<svg width="250" height="250" viewBox="0 0 250 250" fill="none" xmlns="http://www.w3.org/2000/svg">
<g id="7070628_3275432 1">
<g id="Floor">
<path id="Floor_1_" d="M125 238.965C190.056 238.965 242.795 208.516 242.795 170.956C242.795 133.395 190.056 102.947 125 102.947C59.9437 102.947 7.20508 133.395 7.20508 170.956C7.20508 208.516 59.9437 238.965 125 238.965Z" fill="#F0F0F0"/>
</g>
<g id="Shadow">
<path id="Shadow_2_" d="M100.623 222.494C123.058 222.494 141.244 211.994 141.244 199.042C141.244 186.09 123.058 175.59 100.623 175.59C78.1893 175.59 60.0029 186.09 60.0029 199.042C60.0029 211.994 78.1893 222.494 100.623 222.494Z" fill="#E0E0E0"/>
</g>
<g id="Plants_1_">
<g id="Plants_11_">
<g id="XMLID_597_">
<path id="XMLID_603_" d="M216.139 169.702L211.376 166.952C211.376 166.952 210.209 156.751 210.985 148.851C212.076 137.75 219.245 124.392 227.798 127.529C236.351 130.666 223.877 141.972 221.1 151.388C218.323 160.803 216.139 169.702 216.139 169.702Z" fill="#01B2B8"/>
<path id="XMLID_600_" opacity="0.15" d="M216.139 169.702L211.376 166.952C211.376 166.952 210.209 156.751 210.985 148.851C212.076 137.75 219.245 124.392 227.798 127.529C236.351 130.666 223.877 141.972 221.1 151.388C218.323 160.803 216.139 169.702 216.139 169.702Z" fill="black"/>
<path id="XMLID_598_" d="M213.634 168.544C213.637 168.544 213.641 168.544 213.644 168.544C213.803 168.539 213.928 168.406 213.923 168.246C213.086 143.58 225.365 131.172 225.489 131.05C225.603 130.938 225.604 130.755 225.492 130.642C225.379 130.529 225.197 130.527 225.084 130.639C224.958 130.764 212.501 143.35 213.346 168.267C213.351 168.422 213.479 168.544 213.634 168.544Z" fill="white"/>
</g>
<g id="XMLID_594_">
<path id="XMLID_596_" d="M219.133 171.417L215.743 169.46C215.743 169.46 215.167 162.459 218.599 153.956C221.586 146.553 229 140.411 232.728 141.702C236.457 142.992 236.364 145.637 234.546 148.41C232.729 151.184 221.669 157.794 219.133 171.417Z" fill="#01B2B8"/>
<path id="XMLID_595_" d="M217.345 170.672H217.347C217.506 170.671 217.635 170.542 217.634 170.383C217.567 154.787 232.211 144.246 232.359 144.141C232.489 144.049 232.52 143.87 232.427 143.739C232.336 143.61 232.157 143.577 232.025 143.671C231.875 143.777 216.988 154.493 217.057 170.386C217.058 170.544 217.186 170.672 217.345 170.672Z" fill="white"/>
</g>
</g>
<g id="Plants_8_">
<g id="XMLID_493_">
<g id="XMLID_553_">
<path id="XMLID_592_" d="M39.8305 163.573L44.2285 160.605C44.2285 160.605 46.1645 149.082 44.366 138.961C41.837 124.73 32.023 119.995 28.521 121.482C25.019 122.969 24.2705 127.213 30.8045 135.338C34.6595 140.131 39.6955 150.324 39.8305 163.573Z" fill="#01B2B8"/>
</g>
<g id="XMLID_496_" opacity="0.15">
<path id="XMLID_497_" d="M39.8305 163.573L44.2285 160.605C44.2285 160.605 46.1645 149.082 44.366 138.961C41.837 124.73 32.023 119.995 28.521 121.482C25.019 122.969 24.2705 127.213 30.8045 135.338C34.6595 140.131 39.6955 150.324 39.8305 163.573Z" fill="black"/>
</g>
<g id="XMLID_494_">
<path id="XMLID_495_" d="M41.3405 157.873C41.3255 157.873 41.311 157.873 41.2965 157.871C41.122 157.85 40.9965 157.692 41.0175 157.517C42.606 144.118 36.9495 129.581 30.7975 123.797C30.6695 123.677 30.663 123.474 30.784 123.346C30.905 123.219 31.1065 123.212 31.2345 123.333C37.4985 129.222 43.263 143.995 41.6505 157.592C41.631 157.752 41.4965 157.87 41.3405 157.873Z" fill="white"/>
</g>
</g>
<g id="XMLID_259_">
<g id="XMLID_488_">
<path id="XMLID_490_" d="M28.3104 171.344C27.6124 171.763 25.5719 170.249 25.0074 169.886C24.0409 169.264 23.2504 168.372 22.7169 167.357C22.0964 166.175 21.9209 164.899 22.0824 163.575C22.1664 162.889 22.3449 162.218 22.5229 161.55C22.6979 160.894 22.8729 160.238 23.0479 159.581C23.2204 158.934 23.3949 158.264 23.2969 157.602C23.0999 156.266 21.8934 155.352 20.7974 154.564C19.5854 153.692 18.3189 152.535 18.2944 150.923C18.2754 149.68 18.8974 148.512 19.6489 147.522C20.4009 146.531 21.2984 145.651 21.9749 144.607C22.4619 143.856 22.8364 142.977 22.7374 142.087C22.6759 141.534 22.4364 141.017 22.1619 140.533C21.5724 139.495 20.8034 138.548 20.3889 137.428C19.9744 136.309 20.0034 134.905 20.8679 134.082C21.5774 133.406 22.6489 133.293 23.6274 133.338C24.5329 133.381 25.4244 133.772 26.2239 134.196C28.8099 135.569 30.3289 138.571 33.0649 139.614C34.1204 140.016 35.2694 140.086 36.3664 140.354C37.4634 140.621 38.5874 141.157 39.1124 142.157C40.1474 144.129 38.3454 146.618 39.0869 148.717C39.7429 150.575 41.5739 151.256 42.6269 152.921C43.0874 153.65 43.2069 154.5 43.1514 155.36C43.0574 156.816 42.8654 157.887 42.1994 159.517C41.6489 160.864 40.0139 163.452 40.0139 163.452C40.0139 163.452 28.4169 171.279 28.3104 171.344Z" fill="#01B2B8"/>
</g>
<g id="XMLID_420_">
<path id="XMLID_486_" d="M35.0697 167.198C35.0652 167.198 35.0612 167.198 35.0612 167.198C34.8807 167.194 34.7417 167.048 34.7452 166.873C35.0272 154.214 28.7982 140.365 24.3857 136.392C24.2552 136.275 24.2442 136.073 24.3622 135.942C24.4802 135.812 24.6812 135.802 24.8122 135.919C29.3132 139.972 35.6682 154.05 35.3827 166.887C35.3782 167.059 35.2397 167.195 35.0697 167.198Z" fill="white"/>
</g>
<g id="XMLID_398_">
<path id="XMLID_418_" d="M32.7376 151.777C32.7066 151.777 32.6746 151.774 32.6436 151.764C28.5556 150.587 23.4866 150.463 23.4361 150.462C23.2601 150.458 23.1206 150.312 23.1241 150.136C23.1281 149.96 23.2586 149.819 23.4501 149.824C23.5016 149.825 28.6511 149.95 32.8201 151.152C32.9891 151.2 33.0871 151.377 33.0381 151.546C32.9976 151.684 32.8736 151.774 32.7376 151.777Z" fill="white"/>
</g>
</g>
</g>
</g>
<g id="Speech_Bubble">
<g id="Speach_Bubble_1_">
<g id="XMLID_557_">
<path id="XMLID_2921_" d="M150.58 154.872L148.683 153.776C148.086 153.43 147.601 152.591 147.601 151.9L147.601 73.142C147.601 72.4515 148.085 71.612 148.683 71.267L201.356 40.857C201.954 40.512 202.923 40.512 203.521 40.857L205.418 41.952C206.016 42.297 206.501 43.1365 206.501 43.827V122.585C206.501 123.275 206.016 124.115 205.418 124.46L152.745 154.872C152.147 155.218 151.178 155.217 150.58 154.872Z" fill="#455A64"/>
<path id="XMLID_2933_" d="M206.491 43.651C206.416 43.091 205.961 42.886 205.416 43.201L152.746 73.616C152.446 73.791 152.181 74.081 151.981 74.421L147.916 72.076C148.111 71.736 148.381 71.441 148.681 71.266L201.356 40.856C201.951 40.511 202.921 40.511 203.521 40.856L205.416 41.951C205.966 42.266 206.421 43.001 206.491 43.651Z" fill="#455A64"/>
<path id="XMLID_2932_" d="M152.562 154.959C151.962 155.214 151.122 155.184 150.582 154.874L148.682 153.774C148.087 153.429 147.602 152.59 147.602 151.899V73.141C147.602 72.796 147.722 72.416 147.917 72.076L151.982 74.421C151.782 74.761 151.662 75.146 151.662 75.491V154.249C151.662 154.869 152.052 155.154 152.562 154.959Z" fill="#263238"/>
<path id="XMLID_560_" d="M151.662 75.49V154.248C151.662 154.939 152.147 155.218 152.745 154.873L205.418 124.461C206.016 124.116 206.501 123.276 206.501 122.586V43.8265C206.501 43.136 206.016 42.8565 205.418 43.2015L152.745 73.615C152.147 73.96 151.662 74.7995 151.662 75.49Z" fill="#37474F"/>
<path id="XMLID_2955_" d="M139.361 105.511C138.681 105.106 135.526 103.311 135.361 103.216C134.861 102.911 134.681 102.171 135.146 101.671L147.601 88.311L151.661 90.641L139.211 104.006C138.761 104.486 138.906 105.181 139.361 105.511Z" fill="#455A64"/>
<path id="XMLID_2927_" d="M151.662 90.643L139.21 104.005C138.586 104.674 139.113 105.761 140.025 105.686L151.662 104.727V90.643Z" fill="#37474F"/>
</g>
<g id="XMLID_492_">
<path id="XMLID_3091_" d="M179.08 66.601C185.219 63.0565 190.196 65.93 190.196 73.0185C190.196 80.107 185.219 88.7265 179.08 92.271C172.941 95.8155 167.965 92.942 167.965 85.8535C167.965 78.7645 172.942 70.145 179.08 66.601Z" fill="#01B2B8"/>
<path id="XMLID_3076_" d="M179.002 72.1795C180.994 71.0295 182.609 71.9615 182.609 74.261C182.609 76.561 180.994 79.3575 179.002 80.507C177.011 81.6565 175.396 80.725 175.396 78.425C175.396 76.1255 177.011 73.329 179.002 72.1795Z" fill="white"/>
<path id="XMLID_3075_" d="M186.109 84.442C186.109 80.6635 183.456 79.132 180.185 81.0215L178.139 82.2025C174.868 84.0915 172.215 88.686 172.215 92.464V93.4945C172.806 93.6905 173.447 93.7875 174.125 93.789C175.617 93.792 177.297 93.3005 179.081 92.271C181.748 90.731 184.194 88.232 186.109 85.3185V84.442Z" fill="white"/>
</g>
<path id="XMLID_3178_" d="M172.04 127.365L186.123 119.234C186.721 118.889 187.205 119.168 187.205 119.859V124.394C187.205 125.085 186.721 125.924 186.123 126.269L172.04 134.4C171.442 134.745 170.957 134.466 170.957 133.775V129.24C170.957 128.549 171.442 127.71 172.04 127.365Z" fill="#01B2B8"/>
<path id="Vector" d="M165.147 117.233L193.015 101.144C193.732 100.73 194.314 101.066 194.314 101.894V103.582C194.314 104.411 193.732 105.418 193.015 105.832L165.148 121.921C164.43 122.335 163.849 122 163.849 121.171V119.483C163.848 118.655 164.43 117.647 165.147 117.233Z" fill="#FAFAFA"/>
<g id="Group">
<path id="Vector_2" d="M168.407 105.589C168.786 105.37 169.081 105.337 169.291 105.491C169.501 105.645 169.606 105.987 169.606 106.518C169.606 107.05 169.501 107.515 169.291 107.916C169.081 108.318 168.786 108.628 168.407 108.847L167.654 109.281V110.895C167.654 110.949 167.642 111.001 167.617 111.054C167.591 111.108 167.562 111.144 167.527 111.164L167.146 111.384C167.112 111.404 167.082 111.402 167.056 111.378C167.031 111.353 167.019 111.315 167.019 111.262V106.585C167.019 106.532 167.031 106.478 167.056 106.425C167.082 106.373 167.111 106.335 167.146 106.316L168.407 105.589ZM167.654 108.376L168.383 107.955C168.561 107.852 168.704 107.715 168.811 107.545C168.917 107.375 168.97 107.155 168.97 106.885C168.97 106.614 168.917 106.458 168.811 106.416C168.704 106.374 168.561 106.404 168.383 106.508L167.654 106.928V108.376Z" fill="#FAFAFA"/>
<path id="Vector_3" d="M171.702 103.685C171.752 103.656 171.79 103.655 171.815 103.681C171.841 103.708 171.863 103.757 171.881 103.828L173.034 107.739C173.037 107.751 173.038 107.767 173.038 107.787C173.038 107.84 173.026 107.893 173.001 107.946C172.976 107.999 172.946 108.036 172.911 108.055L172.573 108.251C172.51 108.287 172.466 108.292 172.441 108.265C172.415 108.239 172.399 108.209 172.389 108.175L172.187 107.489L170.701 108.347L170.499 109.267C170.489 109.311 170.472 109.361 170.447 109.417C170.422 109.472 170.378 109.518 170.315 109.554L169.977 109.75C169.942 109.769 169.912 109.767 169.887 109.743C169.862 109.719 169.85 109.68 169.85 109.628C169.85 109.608 169.851 109.591 169.855 109.574L171.007 104.334C171.026 104.24 171.047 104.167 171.073 104.111C171.098 104.056 171.135 104.014 171.186 103.985L171.702 103.685ZM171.961 106.715L171.444 104.95L170.927 107.312L171.961 106.715Z" fill="#FAFAFA"/>
<path id="Vector_4" d="M174.787 101.832C174.997 101.711 175.182 101.647 175.342 101.642C175.502 101.636 175.635 101.668 175.742 101.737C175.848 101.806 175.929 101.903 175.984 102.028C176.038 102.153 176.069 102.284 176.076 102.42C176.079 102.476 176.067 102.53 176.041 102.581C176.014 102.632 175.983 102.668 175.949 102.688L175.619 102.878C175.566 102.91 175.527 102.916 175.5 102.901C175.473 102.885 175.448 102.857 175.427 102.817C175.38 102.723 175.309 102.659 175.213 102.625C175.117 102.591 174.975 102.628 174.787 102.737C174.706 102.784 174.628 102.842 174.555 102.911C174.481 102.98 174.416 103.056 174.362 103.138C174.307 103.22 174.264 103.307 174.232 103.397C174.201 103.488 174.185 103.579 174.185 103.671C174.185 103.782 174.2 103.864 174.23 103.917C174.259 103.969 174.309 104.001 174.38 104.011C174.451 104.021 174.544 104.014 174.66 103.99C174.776 103.967 174.921 103.935 175.093 103.893C175.281 103.847 175.443 103.827 175.58 103.833C175.716 103.839 175.827 103.876 175.913 103.944C176 104.013 176.064 104.112 176.106 104.242C176.149 104.373 176.17 104.536 176.17 104.734C176.17 104.951 176.138 105.171 176.076 105.393C176.013 105.614 175.923 105.825 175.808 106.025C175.691 106.225 175.549 106.412 175.379 106.587C175.21 106.762 175.02 106.91 174.81 107.032C174.634 107.133 174.467 107.198 174.307 107.224C174.147 107.252 174.005 107.24 173.882 107.188C173.758 107.136 173.658 107.046 173.582 106.915C173.508 106.785 173.465 106.616 173.456 106.409C173.452 106.353 173.465 106.299 173.491 106.248C173.517 106.197 173.548 106.161 173.582 106.141L173.912 105.951C173.965 105.919 174.006 105.911 174.034 105.923C174.062 105.936 174.085 105.966 174.105 106.012C174.127 106.063 174.153 106.11 174.185 106.155C174.216 106.199 174.258 106.23 174.311 106.248C174.364 106.265 174.431 106.266 174.511 106.252C174.591 106.237 174.69 106.196 174.81 106.126C174.904 106.073 174.995 106.009 175.083 105.936C175.17 105.864 175.247 105.783 175.313 105.695C175.379 105.606 175.432 105.513 175.473 105.414C175.513 105.316 175.534 105.211 175.534 105.1C175.534 104.994 175.512 104.92 175.468 104.878C175.424 104.835 175.357 104.816 175.268 104.82C175.179 104.823 175.069 104.841 174.937 104.873C174.805 104.905 174.653 104.938 174.481 104.97C174.324 105.002 174.187 105.013 174.069 105.001C173.952 104.99 173.854 104.948 173.778 104.876C173.701 104.805 173.644 104.701 173.606 104.566C173.569 104.431 173.55 104.255 173.55 104.037C173.55 103.82 173.582 103.602 173.644 103.383C173.707 103.163 173.793 102.956 173.903 102.763C174.013 102.569 174.143 102.391 174.296 102.229C174.448 102.065 174.612 101.933 174.787 101.832Z" fill="#FAFAFA"/>
<path id="Vector_5" d="M178.07 99.9375C178.28 99.8165 178.465 99.753 178.624 99.7475C178.784 99.742 178.918 99.7735 179.025 99.842C179.131 99.911 179.211 100.008 179.266 100.133C179.321 100.259 179.352 100.39 179.358 100.525C179.361 100.582 179.35 100.636 179.323 100.687C179.296 100.738 179.266 100.774 179.231 100.794L178.902 100.984C178.848 101.015 178.809 101.022 178.782 101.007C178.756 100.991 178.731 100.962 178.71 100.922C178.662 100.829 178.592 100.765 178.496 100.73C178.4 100.697 178.258 100.733 178.07 100.842C177.988 100.89 177.911 100.948 177.837 101.017C177.763 101.086 177.699 101.161 177.644 101.244C177.589 101.326 177.546 101.413 177.515 101.503C177.483 101.594 177.468 101.684 177.468 101.776C177.468 101.888 177.482 101.97 177.512 102.022C177.542 102.076 177.592 102.107 177.663 102.117C177.734 102.127 177.827 102.12 177.943 102.096C178.059 102.073 178.203 102.04 178.375 101.998C178.564 101.952 178.725 101.933 178.862 101.939C178.998 101.945 179.11 101.981 179.196 102.05C179.282 102.119 179.347 102.218 179.389 102.348C179.431 102.479 179.452 102.642 179.452 102.84C179.452 103.057 179.421 103.276 179.358 103.498C179.296 103.72 179.206 103.931 179.09 104.131C178.975 104.331 178.832 104.518 178.662 104.693C178.493 104.868 178.303 105.016 178.094 105.137C177.917 105.239 177.75 105.303 177.59 105.33C177.431 105.358 177.289 105.345 177.165 105.294C177.041 105.242 176.941 105.152 176.866 105.021C176.791 104.89 176.748 104.722 176.739 104.515C176.736 104.459 176.748 104.405 176.774 104.354C176.8 104.302 176.831 104.266 176.866 104.246L177.195 104.056C177.248 104.025 177.289 104.016 177.317 104.029C177.346 104.042 177.369 104.071 177.388 104.118C177.41 104.168 177.437 104.216 177.468 104.261C177.499 104.305 177.541 104.336 177.595 104.354C177.648 104.371 177.715 104.372 177.794 104.358C177.874 104.343 177.973 104.302 178.093 104.233C178.187 104.179 178.278 104.116 178.366 104.042C178.453 103.971 178.53 103.89 178.596 103.801C178.662 103.712 178.715 103.62 178.756 103.521C178.797 103.423 178.817 103.318 178.817 103.206C178.817 103.1 178.795 103.027 178.751 102.984C178.707 102.942 178.64 102.923 178.551 102.926C178.462 102.93 178.352 102.947 178.22 102.98C178.088 103.012 177.936 103.045 177.764 103.077C177.607 103.109 177.47 103.12 177.352 103.108C177.235 103.096 177.137 103.055 177.061 102.983C176.984 102.912 176.927 102.808 176.889 102.673C176.852 102.538 176.833 102.361 176.833 102.144C176.833 101.927 176.865 101.709 176.927 101.489C176.99 101.27 177.076 101.063 177.186 100.869C177.296 100.675 177.426 100.498 177.579 100.335C177.731 100.171 177.894 100.039 178.07 99.9375Z" fill="#FAFAFA"/>
<path id="Vector_6" d="M181.714 100.563L181.309 102.961C181.294 103.042 181.274 103.113 181.25 103.172C181.227 103.231 181.192 103.275 181.145 103.302L180.763 103.522C180.716 103.549 180.679 103.548 180.653 103.516C180.626 103.486 180.608 103.437 180.599 103.371L179.997 99.1505C179.994 99.128 179.992 99.1095 179.992 99.0955C179.992 99.0425 180.005 98.989 180.03 98.936C180.055 98.883 180.084 98.846 180.119 98.8265L180.467 98.6255C180.498 98.608 180.528 98.605 180.557 98.6175C180.585 98.63 180.604 98.6695 180.613 98.737L181.008 101.578L181.356 99.4445C181.362 99.407 181.377 99.3545 181.401 99.288C181.424 99.2215 181.464 99.172 181.52 99.139L181.906 98.9165C181.962 98.884 182.002 98.8875 182.026 98.927C182.049 98.9665 182.064 99.001 182.07 99.031L182.418 100.763L182.813 97.466C182.822 97.388 182.842 97.327 182.87 97.281C182.898 97.236 182.928 97.204 182.959 97.1865L183.307 96.9855C183.341 96.966 183.371 96.968 183.396 96.9925C183.421 97.0165 183.434 97.055 183.434 97.108C183.434 97.122 183.432 97.1425 183.429 97.168L182.827 102.084C182.817 102.162 182.8 102.231 182.774 102.292C182.747 102.353 182.71 102.398 182.663 102.425L182.282 102.645C182.234 102.672 182.199 102.67 182.176 102.637C182.152 102.605 182.133 102.557 182.117 102.494L181.714 100.563Z" fill="#FAFAFA"/>
<path id="Vector_7" d="M184.055 98.4435C184.065 98.168 184.098 97.8935 184.156 97.621C184.214 97.3485 184.3 97.0915 184.413 96.8505C184.526 96.6095 184.667 96.3875 184.836 96.1865C185.006 95.9845 185.206 95.8175 185.438 95.683C185.667 95.5505 185.866 95.4865 186.035 95.49C186.204 95.494 186.345 95.5525 186.458 95.666C186.571 95.7795 186.657 95.9375 186.717 96.139C186.776 96.3415 186.811 96.577 186.821 96.8465C186.824 96.937 186.826 97.037 186.828 97.1465C186.829 97.2565 186.83 97.3705 186.83 97.489C186.83 97.6075 186.829 97.7225 186.828 97.834C186.826 97.9465 186.824 98.049 186.821 98.142C186.811 98.4185 186.777 98.692 186.72 98.9645C186.662 99.237 186.576 99.494 186.463 99.735C186.35 99.976 186.208 100.197 186.038 100.397C185.866 100.597 185.667 100.763 185.438 100.895C185.206 101.029 185.006 101.094 184.836 101.091C184.667 101.087 184.526 101.03 184.413 100.919C184.3 100.808 184.214 100.65 184.156 100.444C184.098 100.239 184.065 100.004 184.055 99.739C184.052 99.649 184.049 99.5495 184.048 99.4385C184.046 99.3285 184.046 99.2145 184.046 99.0965C184.046 98.9785 184.046 98.863 184.048 98.751C184.05 98.6395 184.052 98.537 184.055 98.4435ZM186.186 97.2495C186.173 96.909 186.1 96.6825 185.967 96.5685C185.833 96.455 185.657 96.461 185.438 96.588C185.218 96.715 185.042 96.912 184.908 97.18C184.775 97.4475 184.702 97.758 184.689 98.113C184.683 98.3 184.679 98.506 184.679 98.7305C184.679 98.955 184.683 99.1565 184.689 99.3365C184.701 99.677 184.775 99.9025 184.908 100.014C185.042 100.125 185.218 100.117 185.438 99.9905C185.657 99.864 185.833 99.668 185.967 99.403C186.1 99.1375 186.173 98.828 186.186 98.473C186.192 98.286 186.195 98.0805 186.195 97.856C186.195 97.6315 186.192 97.43 186.186 97.2495Z" fill="#FAFAFA"/>
<path id="Vector_8" d="M189.017 93.6895C189.408 93.4635 189.706 93.4315 189.91 93.594C190.113 93.7565 190.215 94.086 190.215 94.5835C190.215 94.936 190.163 95.266 190.058 95.5755C189.953 95.8845 189.798 96.1585 189.595 96.397L190.244 97.8105C190.253 97.834 190.258 97.858 190.258 97.8825C190.258 97.9255 190.247 97.9685 190.227 98.0125C190.207 98.0555 190.182 98.085 190.154 98.1015L189.754 98.332C189.691 98.368 189.645 98.372 189.615 98.3435C189.585 98.314 189.564 98.285 189.552 98.2535L188.936 96.9215L188.311 97.283V98.97C188.311 99.023 188.298 99.076 188.273 99.1285C188.248 99.182 188.219 99.2185 188.184 99.239L187.803 99.4585C187.768 99.478 187.739 99.476 187.713 99.4515C187.688 99.4275 187.676 99.3895 187.676 99.3365V94.6595C187.676 94.606 187.688 94.553 187.713 94.5005C187.739 94.447 187.768 94.4105 187.803 94.39L189.017 93.6895ZM188.311 96.3775L188.993 95.984C189.172 95.881 189.314 95.75 189.421 95.592C189.527 95.4345 189.58 95.22 189.58 94.9495C189.58 94.6795 189.527 94.529 189.421 94.499C189.314 94.469 189.172 94.5055 188.993 94.609L188.311 95.0025V96.3775Z" fill="#FAFAFA"/>
<path id="Vector_9" d="M192.351 91.7645C192.583 91.6305 192.784 91.5615 192.955 91.5565C193.126 91.5525 193.268 91.604 193.383 91.712C193.498 91.8195 193.585 91.9785 193.646 92.1895C193.707 92.4005 193.744 92.6545 193.757 92.951C193.769 93.3005 193.769 93.658 193.757 94.0225C193.744 94.334 193.707 94.6305 193.646 94.9115C193.585 95.1935 193.498 95.453 193.385 95.6925C193.272 95.9315 193.132 96.146 192.964 96.337C192.796 96.5285 192.6 96.6885 192.374 96.819L191.189 97.503C191.154 97.523 191.125 97.521 191.099 97.4965C191.074 97.4725 191.062 97.4345 191.062 97.381V92.704C191.062 92.6515 191.074 92.5975 191.099 92.545C191.125 92.492 191.154 92.455 191.189 92.435L192.351 91.7645ZM193.122 93.3175C193.115 93.167 193.096 93.0345 193.063 92.921C193.03 92.8075 192.982 92.7195 192.917 92.658C192.853 92.596 192.772 92.566 192.676 92.566C192.578 92.567 192.462 92.606 192.328 92.684L191.698 93.0475V96.3055L192.351 95.9285C192.48 95.8545 192.591 95.7625 192.685 95.652C192.779 95.5425 192.857 95.4215 192.92 95.288C192.983 95.155 193.031 95.012 193.064 94.858C193.096 94.7035 193.116 94.5475 193.122 94.39C193.134 94.0245 193.134 93.668 193.122 93.3175Z" fill="#FAFAFA"/>
</g>
</g>
</g>
<g id="Question_Marks_1_">
<g id="Question_Marks">
<g id="Group_2">
<path id="Vector_10" d="M123.688 19.1975C124.562 19.391 125.386 19.7005 126.159 20.125C126.933 20.55 127.588 21.0705 128.125 21.6865C128.661 22.302 129.048 23.002 129.283 23.786C129.519 24.569 129.536 25.417 129.335 26.3275C129.17 27.071 128.911 27.692 128.557 28.1885C128.203 28.6855 127.796 29.1125 127.337 29.4685C126.878 29.825 126.394 30.1375 125.887 30.405C125.378 30.673 124.897 30.9275 124.445 31.1675C123.992 31.4085 123.581 31.6745 123.216 31.9635C122.849 32.253 122.593 32.5965 122.447 32.993C122.364 33.1895 122.241 33.347 122.079 33.4665C121.915 33.587 121.732 33.6235 121.527 33.579L119.408 33.1095C119.203 33.0645 119.038 32.9505 118.914 32.766C118.789 32.5825 118.758 32.391 118.822 32.1905C119.02 31.4735 119.313 30.8705 119.705 30.382C120.096 29.8935 120.53 29.473 121.008 29.12C121.486 28.7675 121.982 28.4635 122.497 28.207C123.012 27.95 123.491 27.7005 123.936 27.4575C124.379 27.215 124.758 26.957 125.071 26.6855C125.385 26.414 125.585 26.0825 125.672 25.692C125.828 24.986 125.66 24.339 125.165 23.7515C124.671 23.1645 123.931 22.762 122.946 22.5435C121.366 22.1935 120.029 22.7265 118.936 24.142C118.798 24.326 118.666 24.4575 118.542 24.537C118.416 24.617 118.233 24.63 117.991 24.576L115.732 24.076C115.565 24.039 115.433 23.951 115.337 23.813C115.241 23.675 115.214 23.5125 115.255 23.3265C115.417 22.68 115.765 22.06 116.296 21.4655C116.827 20.8715 117.474 20.3715 118.237 19.9645C119 19.5585 119.853 19.274 120.795 19.1125C121.739 18.9515 122.703 18.979 123.688 19.1975ZM121.297 35.2835C121.501 35.3285 121.661 35.442 121.776 35.624C121.892 35.8055 121.928 35.9985 121.882 36.203L121.339 38.6565C121.293 38.8615 121.18 39.0215 120.998 39.137C120.817 39.2535 120.624 39.2885 120.42 39.243L118.022 38.712C117.817 38.666 117.657 38.5535 117.541 38.371C117.425 38.1895 117.389 37.997 117.435 37.792L117.978 35.338C118.024 35.134 118.137 34.9735 118.319 34.8575C118.501 34.7425 118.693 34.7065 118.898 34.752L121.297 35.2835Z" fill="#01B2B8"/>
</g>
<g id="Group_3">
<path id="Vector_11" d="M126.358 42.6525C126.967 42.553 127.575 42.5395 128.18 42.6145C128.784 42.6885 129.337 42.854 129.839 43.1115C130.341 43.37 130.768 43.7195 131.119 44.1615C131.472 44.604 131.699 45.143 131.803 45.7775C131.888 46.2965 131.88 46.7615 131.781 47.17C131.681 47.579 131.53 47.957 131.327 48.3035C131.124 48.6495 130.894 48.9735 130.636 49.275C130.379 49.577 130.136 49.8625 129.908 50.133C129.679 50.4035 129.484 50.679 129.323 50.958C129.162 51.237 129.086 51.5225 129.094 51.814C129.091 51.9615 129.052 52.094 128.979 52.2125C128.905 52.331 128.797 52.402 128.655 52.4255L127.176 52.667C127.033 52.6905 126.898 52.659 126.77 52.573C126.643 52.4875 126.574 52.3725 126.564 52.2275C126.508 51.717 126.542 51.256 126.668 50.842C126.793 50.429 126.964 50.0475 127.18 49.6995C127.396 49.3515 127.636 49.029 127.901 48.7325C128.165 48.4365 128.409 48.1535 128.631 47.8835C128.853 47.615 129.03 47.3525 129.162 47.0985C129.293 46.8435 129.337 46.5805 129.293 46.3075C129.212 45.8155 128.938 45.4435 128.471 45.193C128.003 44.943 127.426 44.874 126.739 44.9865C125.636 45.1665 124.916 45.851 124.577 47.0385C124.535 47.1915 124.485 47.3095 124.425 47.3925C124.365 47.476 124.251 47.531 124.082 47.5585L122.507 47.8165C122.39 47.8355 122.283 47.813 122.185 47.749C122.088 47.6845 122.029 47.588 122.008 47.458C121.946 47.0025 122.01 46.5155 122.199 45.9985C122.387 45.4815 122.674 44.995 123.059 44.5395C123.444 44.0835 123.919 43.6835 124.481 43.3385C125.045 42.9935 125.67 42.765 126.358 42.6525ZM128.942 53.577C129.084 53.554 129.216 53.586 129.337 53.672C129.458 53.7595 129.53 53.874 129.553 54.016L129.833 55.729C129.857 55.8715 129.825 56.0035 129.738 56.124C129.651 56.245 129.537 56.3165 129.394 56.34L127.72 56.6135C127.578 56.637 127.446 56.6055 127.325 56.519C127.204 56.432 127.132 56.3175 127.109 56.175L126.829 54.462C126.806 54.32 126.837 54.188 126.924 54.067C127.011 53.9465 127.125 53.874 127.268 53.8505L128.942 53.577Z" fill="#01B2B8"/>
</g>
<g id="Group_4" opacity="0.2">
<path id="Vector_12" d="M126.358 42.6525C126.967 42.553 127.575 42.5395 128.18 42.6145C128.784 42.6885 129.337 42.854 129.839 43.1115C130.341 43.37 130.768 43.7195 131.119 44.1615C131.472 44.604 131.699 45.143 131.803 45.7775C131.888 46.2965 131.88 46.7615 131.781 47.17C131.681 47.579 131.53 47.957 131.327 48.3035C131.124 48.6495 130.894 48.9735 130.636 49.275C130.379 49.577 130.136 49.8625 129.908 50.133C129.679 50.4035 129.484 50.679 129.323 50.958C129.162 51.237 129.086 51.5225 129.094 51.814C129.091 51.9615 129.052 52.094 128.979 52.2125C128.905 52.331 128.797 52.402 128.655 52.4255L127.176 52.667C127.033 52.6905 126.898 52.659 126.77 52.573C126.643 52.4875 126.574 52.3725 126.564 52.2275C126.508 51.717 126.542 51.256 126.668 50.842C126.793 50.429 126.964 50.0475 127.18 49.6995C127.396 49.3515 127.636 49.029 127.901 48.7325C128.165 48.4365 128.409 48.1535 128.631 47.8835C128.853 47.615 129.03 47.3525 129.162 47.0985C129.293 46.8435 129.337 46.5805 129.293 46.3075C129.212 45.8155 128.938 45.4435 128.471 45.193C128.003 44.943 127.426 44.874 126.739 44.9865C125.636 45.1665 124.916 45.851 124.577 47.0385C124.535 47.1915 124.485 47.3095 124.425 47.3925C124.365 47.476 124.251 47.531 124.082 47.5585L122.507 47.8165C122.39 47.8355 122.283 47.813 122.185 47.749C122.088 47.6845 122.029 47.588 122.008 47.458C121.946 47.0025 122.01 46.5155 122.199 45.9985C122.387 45.4815 122.674 44.995 123.059 44.5395C123.444 44.0835 123.919 43.6835 124.481 43.3385C125.045 42.9935 125.67 42.765 126.358 42.6525ZM128.942 53.577C129.084 53.554 129.216 53.586 129.337 53.672C129.458 53.7595 129.53 53.874 129.553 54.016L129.833 55.729C129.857 55.8715 129.825 56.0035 129.738 56.124C129.651 56.245 129.537 56.3165 129.394 56.34L127.72 56.6135C127.578 56.637 127.446 56.6055 127.325 56.519C127.204 56.432 127.132 56.3175 127.109 56.175L126.829 54.462C126.806 54.32 126.837 54.188 126.924 54.067C127.011 53.9465 127.125 53.874 127.268 53.8505L128.942 53.577Z" fill="black"/>
</g>
<g id="Group_5">
<path id="Vector_13" d="M140.495 45.3446C140.635 45.4441 140.719 45.5806 140.749 45.7541C140.778 45.9281 140.743 46.0846 140.644 46.2241L139.453 47.8996C139.354 48.0396 139.217 48.1241 139.044 48.1531C138.87 48.1831 138.713 48.1476 138.574 48.0486L136.937 46.8846C136.797 46.7851 136.713 46.6491 136.683 46.4756C136.653 46.3011 136.689 46.1451 136.788 46.0056L137.979 44.3296C138.078 44.1901 138.214 44.1056 138.389 44.0761C138.562 44.0466 138.718 44.0816 138.858 44.1811L140.495 45.3446ZM147.422 33.9886C148.018 34.4121 148.541 34.9076 148.988 35.4741C149.436 36.0411 149.764 36.6416 149.971 37.2761C150.179 37.9116 150.247 38.5611 150.175 39.2266C150.103 39.8926 149.847 40.5361 149.404 41.1581C149.043 41.6661 148.65 42.0506 148.226 42.3121C147.801 42.5741 147.359 42.7661 146.9 42.8881C146.44 43.0106 145.976 43.0916 145.509 43.1321C145.04 43.1716 144.597 43.2101 144.179 43.2471C143.761 43.2841 143.368 43.3536 143 43.4551C142.632 43.5561 142.329 43.7336 142.093 43.9856C141.968 44.1071 141.826 44.1866 141.665 44.2251C141.504 44.2636 141.354 44.2331 141.214 44.1336L139.767 43.1046C139.627 43.0056 139.539 42.8671 139.504 42.6886C139.468 42.5106 139.506 42.3561 139.618 42.2251C139.996 41.7481 140.409 41.3876 140.859 41.1441C141.309 40.9011 141.77 40.7221 142.243 40.6086C142.715 40.4951 143.186 40.4241 143.656 40.3951C144.125 40.3656 144.566 40.3301 144.979 40.2886C145.39 40.2471 145.757 40.1741 146.081 40.0691C146.403 39.9641 146.66 39.7786 146.849 39.5121C147.192 39.0296 147.271 38.4891 147.086 37.8891C146.901 37.2896 146.472 36.7506 145.8 36.2726C144.72 35.5056 143.543 35.4811 142.268 36.1991C142.105 36.2936 141.964 36.3516 141.845 36.3716C141.725 36.3916 141.584 36.3431 141.419 36.2261L139.876 35.1296C139.762 35.0486 139.691 34.9406 139.662 34.8061C139.634 34.6706 139.665 34.5406 139.755 34.4136C140.083 33.9781 140.542 33.6211 141.132 33.3426C141.722 33.0641 142.368 32.8936 143.073 32.8306C143.776 32.7676 144.509 32.8246 145.271 33.0036C146.031 33.1816 146.749 33.5101 147.422 33.9886Z" fill="#01B2B8"/>
</g>
<g id="Group_6" opacity="0.6">
<path id="Vector_14" d="M140.495 45.3446C140.635 45.4441 140.719 45.5806 140.749 45.7541C140.778 45.9281 140.743 46.0846 140.644 46.2241L139.453 47.8996C139.354 48.0396 139.217 48.1241 139.044 48.1531C138.87 48.1831 138.713 48.1476 138.574 48.0486L136.937 46.8846C136.797 46.7851 136.713 46.6491 136.683 46.4756C136.653 46.3011 136.689 46.1451 136.788 46.0056L137.979 44.3296C138.078 44.1901 138.214 44.1056 138.389 44.0761C138.562 44.0466 138.718 44.0816 138.858 44.1811L140.495 45.3446ZM147.422 33.9886C148.018 34.4121 148.541 34.9076 148.988 35.4741C149.436 36.0411 149.764 36.6416 149.971 37.2761C150.179 37.9116 150.247 38.5611 150.175 39.2266C150.103 39.8926 149.847 40.5361 149.404 41.1581C149.043 41.6661 148.65 42.0506 148.226 42.3121C147.801 42.5741 147.359 42.7661 146.9 42.8881C146.44 43.0106 145.976 43.0916 145.509 43.1321C145.04 43.1716 144.597 43.2101 144.179 43.2471C143.761 43.2841 143.368 43.3536 143 43.4551C142.632 43.5561 142.329 43.7336 142.093 43.9856C141.968 44.1071 141.826 44.1866 141.665 44.2251C141.504 44.2636 141.354 44.2331 141.214 44.1336L139.767 43.1046C139.627 43.0056 139.539 42.8671 139.504 42.6886C139.468 42.5106 139.506 42.3561 139.618 42.2251C139.996 41.7481 140.409 41.3876 140.859 41.1441C141.309 40.9011 141.77 40.7221 142.243 40.6086C142.715 40.4951 143.186 40.4241 143.656 40.3951C144.125 40.3656 144.566 40.3301 144.979 40.2886C145.39 40.2471 145.757 40.1741 146.081 40.0691C146.403 39.9641 146.66 39.7786 146.849 39.5121C147.192 39.0296 147.271 38.4891 147.086 37.8891C146.901 37.2896 146.472 36.7506 145.8 36.2726C144.72 35.5056 143.543 35.4811 142.268 36.1991C142.105 36.2936 141.964 36.3516 141.845 36.3716C141.725 36.3916 141.584 36.3431 141.419 36.2261L139.876 35.1296C139.762 35.0486 139.691 34.9406 139.662 34.8061C139.634 34.6706 139.665 34.5406 139.755 34.4136C140.083 33.9781 140.542 33.6211 141.132 33.3426C141.722 33.0641 142.368 32.8936 143.073 32.8306C143.776 32.7676 144.509 32.8246 145.271 33.0036C146.031 33.1816 146.749 33.5101 147.422 33.9886Z" fill="white"/>
</g>
</g>
</g>
<g id="Character">
<g id="Character_3_">
<g id="XMLID_285_">
<path id="XMLID_286_" d="M103.264 89.606H85.5V46.5635C85.5 38.78 91.81 32.4695 99.594 32.4695H101.236C109.02 32.4695 115.33 38.7795 115.33 46.5635V77.541C115.329 84.2045 109.927 89.606 103.264 89.606Z" fill="#263238"/>
</g>
<g id="XMLID_2226_">
<g id="XMLID_283_">
<path id="XMLID_284_" d="M83.7729 193.22C83.6269 194.301 83.3164 195.563 83.2584 198.622C83.1964 201.901 82.5939 203.065 82.5139 205.757C82.4229 208.832 82.9539 209.983 84.2019 211.711C85.4499 213.439 88.7249 215.008 90.1089 212.086C91.5099 209.129 91.3149 207.251 90.8724 204.234C90.4149 201.115 90.3569 199.393 90.0914 197.014C89.8579 194.918 89.5779 193.325 89.5779 193.325L83.7729 193.22Z" fill="#263238"/>
<path id="XMLID_2235_" d="M93.0813 171.435L82.2793 171.239C82.4398 178.45 83.5858 186.454 83.7728 193.22C83.8078 194.493 83.7408 203.116 84.2213 205.737C84.9428 209.674 89.6163 209.142 89.8643 206.786C90.1123 204.43 89.5633 194.363 89.5783 193.325C89.5373 188.986 91.5708 181.661 92.6373 173.872C92.6893 173.49 93.0318 171.808 93.0813 171.435Z" fill="#FFA8A7"/>
</g>
<g id="XMLID_266_">
<path id="XMLID_282_" d="M106.957 187.608C106.957 187.608 106.53 187.379 106.442 187.834C106.338 188.376 106.182 189.492 105.957 190.381C105.644 191.616 105.384 193.651 105.572 194.658C105.759 195.664 108.106 196.96 109.63 197.428C111.878 198.118 113.42 199.246 114.652 200.405C116.161 201.825 119.417 203.167 121.635 203.151C124.259 203.132 126.088 202.277 126.953 200.872C127.856 199.404 126.165 199.296 123.166 197.351C122.485 196.909 121.71 196.409 120.838 195.84C116.087 192.736 114.347 191.073 113.003 187.969L106.957 187.608Z" fill="#263238"/>
<path id="XMLID_269_" d="M113.041 185.687C112.961 183.454 114.493 164.514 114.493 164.514L104.234 169.191C106.431 182.302 106.899 185.394 106.938 187.54C106.921 187.59 106.878 187.772 106.88 188.089C106.89 190.637 109.764 192.01 112.007 193.709C112.893 194.379 115.469 196.36 118.072 197.668C119.701 198.487 123.01 198.562 123.42 197.513C120.691 195.429 116.722 192.311 114.551 189.931C113.515 188.794 113.121 187.92 113.041 185.687Z" fill="#FFA8A7"/>
</g>
<path id="XMLID_261_" d="M86.706 101.078C82.768 109.727 82.768 116.415 83.419 127.45C84.016 137.573 84.968 146.484 84.968 146.484C84.8155 148.28 82.319 151.785 81.996 159.723C81.694 167.144 82.507 176.577 82.507 176.577C82.507 176.577 88.111 179.684 92.255 176.55C92.255 176.55 96.2535 157.456 97.4255 148.167C98.448 140.061 100.225 129.702 100.225 129.702L103.989 148.123C103.989 148.123 102.557 152.664 102.222 156.124C101.692 161.588 104.748 172.317 104.748 172.317C104.748 172.317 110.539 174.045 114.075 170.909C114.075 170.909 115.398 153.465 115.891 146.882C116.552 138.069 115.162 114.207 114.075 101.575L86.706 101.078Z" fill="#455A64"/>
<path id="XMLID_2227_" d="M100.225 129.703L101.781 115.837C101.781 115.837 108.751 114.905 111.909 111.937C111.909 111.937 109.536 116.284 103.696 117.127L101.446 130.03L103.989 148.123L100.225 129.703Z" fill="#263238"/>
</g>
<g id="XMLID_2194_">
<path id="XMLID_610_" d="M128.448 97.6715C128.882 93.4215 128.866 90.59 128.828 90.0455C128.676 87.845 128.283 87.487 125.206 83.588C121.053 78.324 117.509 73.593 113.759 68.886C111.083 65.5255 108.269 65.0085 105.521 65.1605C103.6 65.267 107.348 74.5015 109.237 79.966L120.012 91.556C120.344 92.0135 120.496 92.577 120.441 93.139L119.779 103.006L123.006 107.323C123.006 107.323 127.893 103.11 128.448 97.6715Z" fill="#FFA8A7"/>
<path id="XMLID_2220_" d="M95.1407 65.4596C93.0567 65.6031 89.2667 65.9366 89.2667 65.9366C87.0797 67.1571 86.5272 68.1575 86.1202 71.062C85.9472 72.2975 86.9542 75.5946 87.8192 80.2786L89.4607 88.9656L89.2827 93.2736C88.4307 95.9021 86.5032 99.1695 84.8057 103.986C93.1537 108.645 100.155 108.817 106.505 108.002C111.347 107.381 113.909 106.209 114.763 105.052C114.585 100.294 114.248 97.3561 114.166 92.3851C114.131 90.2971 114.257 88.1906 114.338 85.7876C117.586 83.1191 117.623 78.6816 115.851 75.8131C111.735 69.1486 107.732 64.9526 105.081 65.1676L95.1407 65.4596Z" fill="#01B2B8"/>
<path id="XMLID_564_" opacity="0.6" d="M95.1407 65.4596C93.0567 65.6031 89.2667 65.9366 89.2667 65.9366C87.0797 67.1571 86.5272 68.1575 86.1202 71.062C85.9472 72.2975 86.9542 75.5946 87.8192 80.2786L89.4607 88.9656L89.2827 93.2736C88.4307 95.9021 86.5032 99.1695 84.8057 103.986C93.1537 108.645 100.155 108.817 106.505 108.002C111.347 107.381 113.909 106.209 114.763 105.052C114.585 100.294 114.248 97.3561 114.166 92.3851C114.131 90.2971 114.257 88.1906 114.338 85.7876C117.586 83.1191 117.623 78.6816 115.851 75.8131C111.735 69.1486 107.732 64.9526 105.081 65.1676L95.1407 65.4596Z" fill="white"/>
<path id="Vector_15" opacity="0.1" d="M107.875 85.86C107.875 85.86 104.062 88.819 99.7109 87.276C95.3599 85.733 94.7244 81.929 94.7244 81.929C94.7244 81.929 94.2624 86.9035 99.7514 88.6C105.049 90.2365 107.875 85.86 107.875 85.86Z" fill="black"/>
<g id="XMLID_2195_">
<g id="XMLID_2209_">
<path id="Vector_16" d="M113.046 51.805C112.882 59.0235 110.539 60.808 109.365 61.3205C108.191 61.833 105.925 61.5205 103.726 61.1565V65.4885C103.726 65.4885 106.264 68.1495 106.074 70.1335C105.879 72.1225 102.085 72.343 99.2347 70.4C97.1542 68.983 95.6682 67.363 95.0197 66.5945C94.7837 66.315 94.6562 65.964 94.6562 65.598V55.404C94.6562 55.404 93.4512 56.6805 91.3187 55.2195C89.1912 53.7635 89.0067 51.046 90.3087 49.508C91.2367 48.416 93.5952 48.339 94.7282 50.036C95.3637 51.282 95.4512 52.533 96.1637 52.015C98.0657 50.646 97.0457 47.534 99.3422 45.996C99.3472 45.996 99.3472 45.991 99.3522 45.991C100.039 45.622 100.819 45.273 101.69 44.9705C105.787 43.5555 109.335 42.366 110.191 39.5665C111.805 40.5255 113.246 43.289 113.046 51.805Z" fill="#FFA8A7"/>
</g>
<path id="Vector_17" d="M104.972 58.2545C105.495 58.2545 105.919 57.8303 105.919 57.307C105.919 56.7837 105.495 56.3595 104.972 56.3595C104.449 56.3595 104.024 56.7837 104.024 57.307C104.024 57.8303 104.449 58.2545 104.972 58.2545Z" fill="#B16668"/>
<g id="XMLID_2206_">
<path id="XMLID_2207_" d="M104.339 50.7105C104.368 51.283 103.944 51.7675 103.394 51.794C102.843 51.82 102.373 51.3775 102.344 50.805C102.316 50.233 102.739 49.748 103.29 49.7215C103.84 49.696 104.31 50.1385 104.339 50.7105Z" fill="#263238"/>
</g>
<g id="XMLID_2200_">
<path id="XMLID_2201_" d="M111.915 50.809C111.942 51.329 111.557 51.77 111.056 51.7935C110.505 51.8195 110.131 51.467 110.102 50.895C110.076 50.375 110.46 49.934 110.961 49.91C111.462 49.8865 111.889 50.289 111.915 50.809Z" fill="#263238"/>
</g>
<g id="Group_7">
<path id="Vector_18" d="M103.054 53.2811C101.261 53.2811 99.8018 51.8221 99.8018 50.0291C99.8018 47.8181 102.08 47.8181 103.054 47.8181C104.027 47.8181 106.306 47.8181 106.306 50.0291C106.306 51.8226 104.847 53.2811 103.054 53.2811ZM103.054 48.3311C101.083 48.3311 100.315 48.8071 100.315 50.0296C100.315 51.5401 101.543 52.7686 103.054 52.7686C104.564 52.7686 105.793 51.5401 105.793 50.0296C105.793 48.8071 105.025 48.3311 103.054 48.3311Z" fill="#455A64"/>
</g>
<g id="Group_8">
<path id="Vector_19" d="M111.31 53.2811C109.517 53.2811 108.058 51.8221 108.058 50.0291C108.058 47.8181 110.336 47.8181 111.31 47.8181C112.283 47.8181 114.562 47.8181 114.562 50.0291C114.562 51.8226 113.103 53.2811 111.31 53.2811ZM111.31 48.3311C109.339 48.3311 108.571 48.8071 108.571 50.0296C108.571 51.5401 109.799 52.7686 111.31 52.7686C112.82 52.7686 114.049 51.5401 114.049 50.0296C114.049 48.8071 113.281 48.3311 111.31 48.3311Z" fill="#455A64"/>
</g>
<g id="XMLID_2198_">
<path id="XMLID_2199_" d="M106.812 48.981L106.972 55.054L110.168 54.0635L106.812 48.981Z" fill="#F28F8F"/>
</g>
<g id="XMLID_2196_">
<path id="XMLID_2197_" d="M103.723 61.155C101.402 60.8505 96.6258 59.4785 95.8818 57.5905C95.8818 57.5905 96.1298 58.777 97.5563 60C98.9828 61.2225 103.723 62.6005 103.723 62.6005V61.155Z" fill="#F28F8F"/>
</g>
<path id="XMLID_405_" d="M103.833 46.032L101.715 47.323C101.368 46.7135 101.561 45.9305 102.146 45.574C102.731 45.2175 103.487 45.4225 103.833 46.032Z" fill="#263238"/>
<path id="XMLID_382_" d="M112.461 47.4715L110.102 46.6475C110.307 45.982 111.001 45.6275 111.652 45.855C112.304 46.082 112.666 46.806 112.461 47.4715Z" fill="#263238"/>
<g id="Group_9">
<path id="Vector_20" d="M106.049 50.2881C105.907 50.2881 105.793 50.1711 105.793 50.0291C105.793 49.6131 106.616 49.3441 107.354 49.3441C108.093 49.3441 108.57 49.6131 108.57 50.0291C108.57 50.1706 108.455 50.2856 108.313 50.2856C108.172 50.2856 108.057 50.1711 108.057 50.0291C108.034 49.9821 107.797 49.8571 107.354 49.8571C106.91 49.8571 106.328 49.9821 106.304 50.0336C106.305 50.1756 106.19 50.2881 106.049 50.2881Z" fill="#455A64"/>
</g>
<g id="Group_10">
<path id="Vector_21" d="M100.067 50.0715C100.057 50.0715 100.048 50.071 100.038 50.07L94.3222 49.5495C94.2197 49.4545 93.9492 49.175 93.3857 48.9415L100.095 49.5605C100.235 49.576 100.337 49.703 100.321 49.844C100.306 49.9745 100.195 50.0715 100.067 50.0715Z" fill="#455A64"/>
</g>
</g>
</g>
<g id="Group_11">
<path id="Vector_22" d="M76.6016 56.028C78.4706 53.531 79.745 51.644 81.451 49.5035C82.4195 48.288 83.0391 47.4205 83.9711 46.1735C84.6126 45.315 84.9886 44.591 85.6996 44.325C86.4995 44.0255 87.271 43.4335 87.7855 42.893C88.153 42.5065 88.4541 42.063 88.7721 41.6345C89.8401 40.195 91.1161 38.91 92.5476 37.8315C94.052 36.698 95.7235 35.8335 97.267 34.7535C98.188 34.109 99.1755 33.0385 98.0545 32.0395C97.72 31.741 97.2951 31.563 96.8571 31.4675C94.1366 30.873 91.7626 31.811 89.1016 32.4915C87.9451 32.787 86.807 33.1575 85.713 33.636C85.182 33.868 84.6526 34.1205 84.2126 34.497C83.5266 35.084 83.1161 35.9195 82.6706 36.704C81.4741 38.812 78.9955 40.672 77.251 42.313C75.2045 44.238 73.3756 46.003 71.041 48.127C68.9401 50.0385 66.8845 51.801 64.9575 53.8885C63.3635 55.6155 63.9436 56.9665 64.1706 57.433C65.4696 60.105 66.924 61.063 68.6615 62.718C71.671 65.585 82.037 73.832 85.476 76.554C86.212 77.1365 86.79 77.892 87.1615 78.754L87.8181 80.279C91.7381 81.0005 94.3536 75.115 91.1071 68.0285C90.5806 66.879 89.7451 65.9005 88.7236 65.1555C84.6321 62.1705 76.6016 56.028 76.6016 56.028Z" fill="#FFA8A7"/>
<path id="Vector_23" d="M76.6015 56.028C76.6015 56.028 74.829 58.3975 71.8105 59.3255C71.8105 59.3255 74.311 59.9635 77.7335 56.892L76.6015 56.028Z" fill="#F28F8F"/>
</g>
<g id="XMLID_2739_">
<g id="XMLID_2725_">
<g id="XMLID_2695_">
<path id="XMLID_563_" d="M127.43 92.454L127.443 92.4555L126.802 91.903L126.802 91.911C126.657 91.795 126.433 91.7585 126.143 91.8375L119.2 93.726C118.557 93.901 117.858 94.5535 117.64 95.1835L112.644 109.598C112.529 109.932 112.575 110.19 112.736 110.335L112.731 110.337L113.392 110.906L113.391 110.898C113.535 111.018 113.762 111.056 114.057 110.976L120.999 109.088C121.643 108.913 122.341 108.26 122.559 107.63C123.541 104.797 126.575 96.048 127.556 93.215C127.679 92.8595 127.618 92.5925 127.43 92.454Z" fill="#455A64"/>
<path id="XMLID_2696_" d="M113.287 110.151L118.283 95.737C118.501 95.107 119.2 94.4545 119.843 94.2795L126.786 92.3915C127.429 92.2165 127.774 92.5855 127.556 93.2155C126.575 96.0485 123.541 104.797 122.56 107.631C122.342 108.261 121.643 108.914 121 109.089L114.057 110.977C113.414 111.151 113.069 110.781 113.287 110.151Z" fill="#01B2B8"/>
<path id="XMLID_2726_" d="M119.088 94.6795C118.727 94.965 118.416 95.358 118.283 95.7385L113.285 110.148C113.177 110.472 113.209 110.725 113.355 110.871L112.733 110.338L112.74 110.332C112.575 110.186 112.53 109.932 112.645 109.596L117.642 95.18C117.763 94.825 118.048 94.4635 118.384 94.178L119.088 94.6795Z" fill="#37474F"/>
</g>
<path id="XMLID_2549_" d="M125.523 99.0225C125.033 100.491 123.289 101.47 120.421 102.15C117.554 102.829 115.965 105.875 116.428 106.801C116.892 107.728 121.525 108.588 123.379 108.323C125.232 108.058 127.097 105.379 127.658 104.55C128.219 103.721 128.873 97.931 128.277 97.137C127.681 96.3425 126.43 96.4645 126.43 96.4645L125.523 99.0225Z" fill="#F28F8F"/>
</g>
</g>
</g>
</g>
</g>
</svg>
