<svg width="23" height="23" viewBox="0 0 23 23" fill="none" xmlns="http://www.w3.org/2000/svg">
<g id="wave_9971673 1" clip-path="url(#clip0_775_118279)">
<g id="five_x2C__gesture_x2C__hand_x2C__wave">
<g id="Group">
<g id="Group_2">
<path id="Vector" d="M2.57336 12.0031L7.92086 14.7344C8.07898 14.8134 8.42398 15.0075 8.61804 14.6912C8.79773 14.3966 8.49586 14.1594 8.35211 14.0516L2.12773 9.28625C1.67492 8.92688 1.57429 8.22969 1.91929 7.75531C2.26429 7.25937 2.98304 7.11562 3.47179 7.45344L9.79679 11.9888C9.91179 12.075 10.228 12.305 10.458 12.0391C10.688 11.7875 10.4365 11.5 10.3359 11.3922L4.46367 5.19656C4.03961 4.72937 4.06836 3.95312 4.63617 3.42844C5.08898 3.01156 5.88679 2.99719 6.31804 3.44281L12.0896 9.45156C12.1759 9.53781 12.4418 9.81094 12.7149 9.60969C12.9952 9.39406 12.794 9.07781 12.7437 8.95563L9.15711 3.00437C8.91273 2.62344 8.90554 1.84 9.56679 1.44469C10.2496 1.04219 10.9037 1.44469 11.1552 1.86875L15.1443 8.28C15.7121 9.22875 16.6034 10.0266 17.394 10.4003C18.0049 10.6878 18.4793 10.3212 18.5584 9.68156C18.6805 8.68969 18.8746 7.46062 19.2196 6.42562C19.579 5.34031 20.844 4.80125 21.9221 5.3475L21.5555 6.79219C21.189 8.25844 21.1459 9.79656 21.3974 11.2916C21.613 12.5422 21.8287 14.1522 21.7999 15.5825C21.764 17.7388 20.3121 18.6803 19.0112 19.8519C13.3977 24.9478 9.31523 18.0191 7.32429 17.0344L1.53836 13.8216C1.04961 13.5412 0.941794 12.8872 1.22929 12.4128C1.50961 11.9528 2.08461 11.7516 2.57336 12.0031Z" fill="#FFD459"/>
</g>
<g id="Group_3">
<path id="Vector_2" d="M20.24 5.31875C20.4125 5.35469 20.5779 5.405 20.7432 5.48406L20.3766 6.92875C20.01 8.395 19.9669 9.93312 20.2185 11.4281C20.4341 12.6787 20.6497 14.2887 20.621 15.7191C20.585 17.8753 19.1332 18.8169 17.8322 19.9884C16.7685 20.9516 15.7622 21.4834 14.8135 21.7062C16.0929 21.7278 17.4944 21.2319 19.0038 19.8591C20.3047 18.6875 21.7494 17.7459 21.7925 15.5897C21.8213 14.1522 21.6057 12.5422 21.39 11.2987C21.1313 9.80375 21.1816 8.26562 21.5482 6.79937L21.9147 5.35469C21.3613 5.07437 20.7504 5.08875 20.24 5.31875Z" fill="#FFCE49"/>
</g>
<g id="Group_4">
<g id="Group_5">
<path id="Vector_3" d="M20.226 10.7166C20.4417 11.9672 20.6573 13.5772 20.6285 15.0075C20.5926 17.1637 19.1407 18.1053 17.8398 19.2769C15.5973 21.3109 13.5992 21.4259 11.8813 20.7719C13.8363 21.9578 16.237 22.3819 19.0113 19.8591C20.3123 18.6875 21.757 17.7459 21.8001 15.5897C21.8288 14.1522 21.6132 12.5422 21.3976 11.2987C21.146 9.80375 19.9673 9.22156 20.226 10.7166Z" fill="#FFCE49"/>
</g>
</g>
<g id="Group_6">
<g id="Group_7">
<path id="Vector_4" d="M5.13951 3.57221L11.5364 10.1632C11.6226 10.2494 11.8886 10.5225 12.1617 10.3213C12.442 10.1057 12.2408 9.7894 12.1904 9.66721L11.9101 9.20003L6.31826 3.45003C5.92295 3.04034 5.23295 3.01878 4.77295 3.32784C4.90951 3.38534 5.0317 3.4644 5.13951 3.57221Z" fill="#FFCE49"/>
</g>
<g id="Group_8">
<path id="Vector_5" d="M2.23555 7.62592L9.25055 12.65C9.37992 12.7434 9.73211 12.995 9.98367 12.7003C10.2065 12.4631 10.0268 12.19 9.90461 12.0462L3.53648 7.48217C3.11242 7.18748 2.50867 7.2306 2.0918 7.54685C2.14211 7.5756 2.19242 7.59717 2.23555 7.62592Z" fill="#FFCE49"/>
</g>
<g id="Group_9">
<path id="Vector_6" d="M9.97648 1.99812L13.9655 8.40937C14.5334 9.35812 15.4246 10.1559 16.2152 10.5297C16.6393 10.7309 16.9987 10.6016 17.2071 10.2925C16.4668 9.89 15.6762 9.15688 15.1443 8.28L11.1552 1.86875C10.9037 1.44469 10.2496 1.04219 9.5668 1.44469C9.52367 1.46625 9.49492 1.495 9.45898 1.52375C9.6818 1.64594 9.86867 1.81844 9.97648 1.99812Z" fill="#FFCE49"/>
</g>
<g id="Group_10">
<path id="Vector_7" d="M7.51852 15.4028C7.6982 15.4963 8.10789 15.7191 8.3307 15.3525C8.41695 15.2088 8.39539 15.0866 8.34508 14.9788L2.6382 12.0606C2.18539 11.8306 1.68227 11.9313 1.33008 12.2403L7.51852 15.4028Z" fill="#FFCE49"/>
</g>
</g>
</g>
<g id="Group_11">
<g id="Group_12">
<path id="Vector_8" d="M14.914 22.0728C12.3265 22.0728 10.2206 20.0747 8.75435 18.6875C8.12185 18.0838 7.56841 17.5663 7.16591 17.365L1.3656 14.145C1.06372 13.9725 0.848098 13.6922 0.761848 13.3472C0.661223 12.9735 0.725911 12.571 0.919973 12.2332C1.30091 11.5863 2.07716 11.3491 2.73122 11.6797L8.07872 14.411C8.13622 14.4397 8.27279 14.5044 8.31591 14.5044C8.29435 14.4828 8.23685 14.4253 8.12904 14.3391L1.90466 9.57378C1.29372 9.08503 1.17154 8.1794 1.61716 7.54691C1.83997 7.23065 2.19216 7.00065 2.59466 6.93597C2.98279 6.86409 3.36372 6.95034 3.6656 7.16597L9.99779 11.7013C10.1272 11.8019 10.1775 11.8091 10.1918 11.8091C10.1847 11.8019 10.1703 11.7444 10.0768 11.6438L4.19747 5.44815C3.62247 4.80128 3.70154 3.80222 4.38435 3.16972C4.99529 2.61628 6.01591 2.63065 6.56935 3.19847L12.3409 9.20722C12.4415 9.30784 12.4847 9.32222 12.5062 9.3294C12.499 9.29347 12.4487 9.19284 12.4343 9.15691L8.8406 3.19847C8.64654 2.90378 8.58185 2.47253 8.67529 2.08441C8.76872 1.68909 9.0131 1.36566 9.37247 1.15003C10.1847 0.668468 11.0687 1.0494 11.4568 1.69628L15.4387 8.10753C15.9418 8.94847 16.7684 9.72472 17.5375 10.0985C17.6453 10.1488 17.8106 10.1919 17.94 10.12C18.0693 10.0482 18.1628 9.88284 18.1915 9.65284C18.3065 8.76159 18.4934 7.43909 18.8672 6.33222C19.0684 5.71409 19.5356 5.21815 20.1465 4.96659C20.7647 4.71503 21.469 4.74378 22.08 5.04565C22.2309 5.12472 22.31 5.29003 22.2668 5.45534L21.9003 6.90003C21.5481 8.30878 21.4978 9.77503 21.7493 11.2485C22.044 12.9375 22.1806 14.4038 22.159 15.6113C22.1231 17.6453 20.9228 18.6875 19.7584 19.701C19.5931 19.8447 19.4206 19.9957 19.2553 20.1466C17.7028 21.541 16.2437 22.0728 14.914 22.0728ZM2.12029 12.2547C1.89029 12.2547 1.67466 12.3769 1.54529 12.5997V12.6069C1.44466 12.7722 1.41591 12.9807 1.45904 13.1675C1.48779 13.2753 1.55966 13.4263 1.71779 13.5197L7.49654 16.7325C7.98529 16.9697 8.56747 17.5232 9.2431 18.17C11.5359 20.3407 14.6697 23.3163 18.7665 19.6003C18.939 19.4422 19.1115 19.2985 19.284 19.1475C20.4197 18.1557 21.4043 17.3075 21.4403 15.5897C21.4618 14.4325 21.3253 13.0094 21.045 11.3635C20.7718 9.7894 20.8293 8.22253 21.2031 6.71315L21.4906 5.57034C21.1384 5.46253 20.7647 5.4769 20.4197 5.62066C20.0028 5.79316 19.6865 6.13097 19.55 6.54784C19.1978 7.6044 19.0109 8.8694 18.9031 9.7319C18.8456 10.1847 18.6228 10.5513 18.2922 10.7382C17.9831 10.9107 17.6022 10.9107 17.2356 10.7382C16.33 10.3069 15.41 9.43722 14.835 8.47409L10.8459 2.06284C10.7309 1.87597 10.2925 1.43034 9.74622 1.76097C9.55216 1.87597 9.42997 2.04128 9.37966 2.24253C9.32216 2.47253 9.37966 2.69534 9.45154 2.81034L13.0453 8.76878C13.3615 9.39409 13.1531 9.71753 12.9303 9.89003C12.7362 10.0338 12.3409 10.2063 11.8378 9.71034L6.05904 3.69441C5.77154 3.4069 5.19654 3.4069 4.88029 3.69441C4.44185 4.10409 4.45622 4.65753 4.72935 4.9594L10.5943 11.1407C11.0328 11.6007 10.9465 12.0319 10.7165 12.2835C10.6159 12.3985 10.2206 12.765 9.57372 12.2763L3.24872 7.74815C3.10497 7.64753 2.9181 7.6044 2.71685 7.64034C2.50841 7.67628 2.32154 7.79128 2.20654 7.95659C1.97654 8.28003 2.04122 8.76159 2.3431 9.00597L8.56029 13.7641C9.13529 14.2169 9.0706 14.6194 8.91247 14.871C8.74716 15.1441 8.40935 15.3957 7.75529 15.0507L2.4006 12.3122C2.31435 12.2763 2.22091 12.2547 2.12029 12.2547Z" fill="#455A64"/>
</g>
<g id="Group_13">
<path id="Vector_9" d="M5.65669 20.7431C3.55794 20.7431 1.61013 19.55 0.661378 17.6597C0.575128 17.4872 0.647003 17.2716 0.82669 17.1781C1.00638 17.0919 1.222 17.1638 1.30825 17.3363C2.15638 19.0181 3.91732 20.0747 5.80044 20.0172C6.00169 20.0244 6.167 20.1681 6.167 20.3694C6.17419 20.5706 6.01607 20.736 5.81482 20.736C5.7645 20.7431 5.71419 20.7431 5.65669 20.7431Z" fill="#455A64"/>
</g>
<g id="Group_14">
<path id="Vector_10" d="M5.6209 18.9606C5.60652 18.9606 5.59933 18.9606 5.58496 18.9606C4.20496 18.8241 2.9759 18.0191 2.30746 16.8044C2.21402 16.6319 2.27152 16.4091 2.45121 16.3156C2.62371 16.2222 2.84652 16.2797 2.93996 16.4594C3.4934 17.4656 4.51402 18.1341 5.65683 18.2491C5.8509 18.2706 6.00183 18.4431 5.98027 18.6444C5.95871 18.8241 5.80058 18.9606 5.6209 18.9606Z" fill="#455A64"/>
</g>
<g id="Group_15">
<path id="Vector_11" d="M17.7032 5.87938C17.5235 5.87938 17.3654 5.74282 17.3438 5.55595C17.1426 3.6872 15.856 2.08438 14.0735 1.47345C13.8866 1.40876 13.786 1.20751 13.8507 1.02063C13.9154 0.833758 14.1166 0.733133 14.3035 0.797821C16.3447 1.49501 17.8182 3.33501 18.0554 5.48407C18.0769 5.67813 17.9332 5.85782 17.7391 5.87938C17.7319 5.87938 17.7176 5.87938 17.7032 5.87938Z" fill="#455A64"/>
</g>
<g id="Group_16">
<path id="Vector_12" d="M15.9562 6.23874C15.7837 6.23874 15.6256 6.10936 15.604 5.92968C15.4315 4.79405 14.7128 3.80936 13.6778 3.30624C13.4981 3.21999 13.4262 3.00436 13.5125 2.82468C13.5987 2.64499 13.8143 2.57311 13.994 2.65936C15.2375 3.2703 16.1071 4.44905 16.3156 5.82186C16.3443 6.01593 16.2078 6.2028 16.0137 6.23155C15.9921 6.23155 15.9778 6.23874 15.9562 6.23874Z" fill="#455A64"/>
</g>
</g>
</g>
</g>
<defs>
<clipPath id="clip0_775_118279">
<rect width="23" height="23" fill="white"/>
</clipPath>
</defs>
</svg>
