<svg width="280" height="280" viewBox="0 0 280 280" fill="none" xmlns="http://www.w3.org/2000/svg">
<path d="M0 214.143H280V214.283H0V214.143Z" fill="#E0E0E0"/>
<path d="M68.5062 220.074H87.7725V220.214H68.5062V220.074Z" fill="#E0E0E0"/>
<path d="M217.817 220.144H228.658V220.284H217.817V220.144Z" fill="#E0E0E0"/>
<path d="M139.44 219.816H161.414V219.956H139.44V219.816Z" fill="#E0E0E0"/>
<path d="M161.974 217.824H171.797V217.964H161.974V217.824Z" fill="#E0E0E0"/>
<path d="M42.2493 217.894H71.9209V218.034H42.2493V217.894Z" fill="#E0E0E0"/>
<path d="M147.273 189.168H255.408C257.17 189.168 258.604 187.734 258.604 185.972V33.9696C258.604 32.2073 257.17 30.7731 255.408 30.7731H147.273C145.511 30.7731 144.077 32.2073 144.077 33.9696V185.972C144.077 187.734 145.511 189.168 147.273 189.168ZM255.408 30.9137C257.094 30.9137 258.464 32.2846 258.464 33.9702V185.972C258.464 187.658 257.094 189.029 255.408 189.029H147.273C145.588 189.029 144.217 187.658 144.217 185.972V33.9696C144.217 32.2846 145.588 30.9131 147.273 30.9131L255.408 30.9137Z" fill="#E0E0E0"/>
<path d="M26.1467 189.168H134.282C136.043 189.168 137.478 187.734 137.478 185.972V33.9696C137.478 32.2073 136.043 30.7731 134.282 30.7731H26.1467C24.3839 30.7731 22.9503 32.2073 22.9503 33.9696V185.972C22.9497 187.734 24.3839 189.168 26.1467 189.168ZM134.282 30.9137C135.967 30.9137 137.338 32.2846 137.338 33.9702V185.972C137.338 187.658 135.967 189.029 134.282 189.029H26.1467C24.4611 189.029 23.0903 187.658 23.0903 185.972V33.9696C23.0903 32.2846 24.4611 30.9131 26.1467 30.9131L134.282 30.9137Z" fill="#E0E0E0"/>
<path d="M33.9856 144.048C40.8769 133.561 34.5848 122.284 35.6337 110.618C36.6825 98.9526 47.7688 96.4057 45.6711 86.5178C43.239 75.0529 49.716 64.0455 57.057 64.0455C64.398 64.0455 70.875 75.0529 68.4429 86.5178C66.3457 96.4057 77.4321 98.9526 78.4809 110.618C79.5298 122.284 73.2371 133.56 80.129 144.048C87.0204 154.535 85.2121 168.426 81.3274 175.32C80.2573 177.219 78.9978 178.9 77.6241 180.388C66.6028 192.324 47.5107 192.324 36.4893 180.388C35.1162 178.9 33.8562 177.219 32.7861 175.32C28.9025 168.426 27.0937 154.535 33.9856 144.048Z" fill="#01B2B8"/>
<path d="M53.5746 214.143H60.541V155.492C60.541 153.576 58.9736 152.009 57.0578 152.009C55.1421 152.009 53.5746 153.576 53.5746 155.492V214.143Z" fill="#01B2B8"/>
<path d="M100.852 214.143H110.336V155.496C110.336 152.888 108.202 150.754 105.594 150.754C102.985 150.754 100.852 152.888 100.852 155.496V214.143Z" fill="#01B2B8"/>
<path d="M105.594 198.322C89.459 198.322 76.3795 185.243 76.3795 169.108C76.3795 152.974 89.459 139.894 105.594 139.894C121.728 139.894 134.808 152.974 134.808 169.108C134.808 185.243 121.728 198.322 105.594 198.322Z" fill="#01B2B8"/>
<path d="M71.2634 160.349C69.7304 154.178 73.49 147.933 79.6606 146.4C85.8312 144.868 92.0762 148.627 93.6091 154.798C95.1421 160.968 91.3825 167.213 85.2119 168.746C79.0413 170.279 72.7963 166.52 71.2634 160.349Z" fill="#F0F0F0"/>
<path d="M122.487 151.85C121.882 148.134 124.404 144.631 128.12 144.026C131.836 143.421 135.339 145.942 135.944 149.658C136.549 153.373 134.028 156.876 130.312 157.481C126.596 158.087 123.093 155.565 122.487 151.85Z" fill="#01B2B8"/>
<path d="M121.81 152.009C119.167 152.009 117.026 149.867 117.026 147.225C117.026 144.582 119.167 142.44 121.81 142.44C124.452 142.44 126.594 144.582 126.594 147.225C126.594 149.867 124.452 152.009 121.81 152.009Z" fill="#01B2B8"/>
<path d="M165.777 179.14C170.642 179.863 174.858 181.625 178.498 183.994C178.533 179.561 179.345 175.351 181.428 171.951C184.599 175.042 187.168 179.039 189.243 183.338C190.02 175.255 192.142 167.425 196.841 162.476C203.881 166.904 207.51 174.285 209.236 182.103C212.041 177.093 215.911 172.47 221.255 169.108C225.562 173.645 226.938 179.919 226.824 186.343C231.717 180.647 237.152 176.198 242.449 175.676C243.753 184.7 240.975 193.208 237.446 199.917C232.816 208.717 223.605 214.143 213.661 214.143H190.654C180.848 214.143 171.654 208.911 167.053 200.252C164.139 194.767 162.753 187.704 165.777 179.14Z" fill="#01B2B8"/>
<path d="M172.337 62.7979C169.494 54.4701 171.751 48.5414 178.701 48.5414C183.059 48.5414 188.464 50.8749 193.727 54.6745C194.322 52.5084 195.996 51.2103 198.69 51.2103C203.431 51.2103 209.966 55.2211 215.093 60.8799C216.333 59.6182 218.129 58.8454 220.435 58.7211C224.973 58.4657 230.468 60.7701 235.246 64.5187C235.66 63.8915 236.37 63.4979 237.349 63.4396C239.964 63.294 243.503 65.6203 245.261 68.6319C245.371 68.8218 245.468 69.0038 245.565 69.1863H240.135H235.814H220.804H213.418H207.674H198.828H197.222H175.278H170.957C170.734 66.5605 171.198 64.3653 172.337 62.7979Z" fill="#51C0FF"/>
<path d="M172.107 113.362C170.718 109.294 171.82 106.398 175.215 106.398C177.344 106.398 179.984 107.538 182.554 109.394C182.845 108.336 183.663 107.702 184.979 107.702C187.295 107.702 190.487 109.661 192.991 112.426C193.597 111.81 194.474 111.432 195.601 111.371C197.817 111.246 200.501 112.372 202.835 114.203C203.038 113.897 203.384 113.704 203.862 113.676C205.14 113.605 206.869 114.741 207.728 116.212C207.781 116.305 207.828 116.394 207.876 116.483H205.223H203.113H195.781H192.172H189.367H185.045H184.261H173.542H171.432C171.324 115.2 171.55 114.127 172.107 113.362Z" fill="#F0F0F0"/>
<path d="M88.0509 82.5961C88.3349 82.5546 88.6233 82.5334 88.9156 82.5334C88.6473 78.47 90.2008 75.8755 93.5188 75.8755C95.9128 75.8755 98.85 77.2302 101.844 79.5223C100.987 71.6352 103.731 66.509 109.943 66.509C114.954 66.509 121.298 69.8432 127.565 75.2819C128.113 72.1874 129.96 70.3327 133.062 70.3327C138.512 70.3327 146.256 76.0631 152.465 84.1484C152.465 84.1484 152.467 84.159 152.473 84.1484C153.814 82.3458 155.83 81.2308 158.479 81.0539C163.668 80.6893 170.112 83.9815 175.824 89.3474C176.259 88.4408 177.05 87.8786 178.182 87.8052C181.019 87.607 184.93 90.566 187.201 94.5258H180.581H176.094H158.835H150.753H143.556H133.334H114.02H106.492H103.813H93.0982H83.4841C81.0487 88.5248 82.9885 83.2737 88.0509 82.5961Z" fill="#51C0FF"/>
<path d="M140 239.434C80.0344 239.434 31.4224 236.595 31.4224 233.093C31.4224 229.591 80.0344 226.752 140 226.752C199.966 226.752 248.578 229.591 248.578 233.093C248.578 236.595 199.966 239.434 140 239.434Z" fill="#F5F5F5"/>
<path d="M252.641 84.3147L124.977 102.691L107.844 119.981L252.641 84.3147Z" fill="#01B2B8"/>
<path opacity="0.6" d="M252.641 84.3147L124.977 102.691L107.844 119.981L252.641 84.3147Z" fill="white"/>
<path d="M252.641 84.3147L124.977 102.691L130.901 127.692L252.641 84.3147Z" fill="#01B2B8"/>
<path opacity="0.2" d="M252.641 84.3147L124.977 102.691L130.901 127.692L252.641 84.3147Z" fill="black"/>
<path d="M133.523 55.3707L126.11 90.1058C125.709 91.9868 126.919 93.8544 128.8 94.2559L194.925 108.367C196.806 108.769 198.673 107.558 199.075 105.677L206.488 70.942C206.698 69.9587 206.466 68.9764 205.93 68.2064C205.438 67.5087 204.695 66.9834 203.797 66.7919L137.673 52.6804C136.775 52.4889 135.882 52.6647 135.149 53.101C134.345 53.5848 133.732 54.3873 133.523 55.3707Z" fill="#01B2B8"/>
<path opacity="0.4" d="M133.523 55.3707L126.11 90.1058C125.709 91.9868 126.919 93.8544 128.8 94.2559L194.925 108.367C196.806 108.769 198.673 107.558 199.075 105.677L206.488 70.942C206.698 69.9587 206.466 68.9764 205.93 68.2064C205.438 67.5087 204.695 66.9834 203.797 66.7919L137.673 52.6804C136.775 52.4889 135.882 52.6647 135.149 53.101C134.345 53.5848 133.732 54.3873 133.523 55.3707Z" fill="black"/>
<path d="M135.149 53.1009L157.245 80.2228C161.464 85.4028 168.721 86.9512 174.688 83.9451L205.931 68.2058C205.439 67.508 204.696 66.9827 203.798 66.7912L137.674 52.6798C136.775 52.4882 135.883 52.6646 135.149 53.1009Z" fill="#01B2B8"/>
<path d="M252.641 84.3147L147.342 109.338L130.901 127.692L252.641 84.3147Z" fill="#01B2B8"/>
<path opacity="0.6" d="M252.641 84.3147L147.342 109.338L130.901 127.692L252.641 84.3147Z" fill="white"/>
<path d="M214.232 108.445L214.516 108.929L202.8 115.793L202.517 115.309L214.232 108.445Z" fill="#01B2B8"/>
<path d="M197.341 118.338L197.624 118.822L193.409 121.291L193.126 120.808L197.341 118.338Z" fill="#01B2B8"/>
<path d="M252.641 84.3147L147.342 109.338L167.81 134.01L252.641 84.3147Z" fill="#01B2B8"/>
<path d="M111.799 142.947C111.935 142.947 112.075 142.921 112.21 142.867L129.365 136.076C129.94 135.848 130.222 135.197 129.994 134.622C129.767 134.047 129.119 133.764 128.54 133.993L111.385 140.785C110.81 141.012 110.529 141.663 110.757 142.238C110.931 142.678 111.352 142.947 111.799 142.947Z" fill="#01B2B8"/>
<path opacity="0.3" d="M111.799 142.947C111.935 142.947 112.075 142.921 112.21 142.867L129.365 136.076C129.94 135.848 130.222 135.197 129.994 134.622C129.767 134.047 129.119 133.764 128.54 133.993L111.385 140.785C110.81 141.012 110.529 141.663 110.757 142.238C110.931 142.678 111.352 142.947 111.799 142.947Z" fill="black"/>
<path d="M112.809 133.109C112.946 133.109 113.085 133.084 113.221 133.03L122.434 129.382C123.009 129.155 123.29 128.504 123.063 127.929C122.836 127.354 122.187 127.071 121.609 127.3L112.396 130.948C111.821 131.175 111.539 131.826 111.767 132.401C111.942 132.841 112.363 133.109 112.809 133.109Z" fill="#01B2B8"/>
<path opacity="0.5" d="M112.809 133.109C112.946 133.109 113.085 133.084 113.221 133.03L122.434 129.382C123.009 129.155 123.29 128.504 123.063 127.929C122.836 127.354 122.187 127.071 121.609 127.3L112.396 130.948C111.821 131.175 111.539 131.826 111.767 132.401C111.942 132.841 112.363 133.109 112.809 133.109Z" fill="white"/>
<path d="M132.07 142.777C132.206 142.777 132.346 142.751 132.481 142.698L149.208 136.075C149.783 135.848 150.065 135.196 149.837 134.621C149.61 134.046 148.959 133.764 148.383 133.992L131.657 140.615C131.081 140.842 130.8 141.493 131.028 142.069C131.202 142.509 131.624 142.777 132.07 142.777Z" fill="#01B2B8"/>
<path opacity="0.3" d="M132.07 142.777C132.206 142.777 132.346 142.751 132.481 142.698L149.208 136.075C149.783 135.848 150.065 135.196 149.837 134.621C149.61 134.046 148.959 133.764 148.383 133.992L131.657 140.615C131.081 140.842 130.8 141.493 131.028 142.069C131.202 142.509 131.624 142.777 132.07 142.777Z" fill="black"/>
<path d="M71.5116 92.2998C70.0287 95.1972 68.6673 98.0952 67.3748 101.066C66.0919 104.037 64.8739 107.038 63.825 110.189L63.442 111.383C63.3776 111.596 63.2779 111.945 63.2258 112.193C63.1732 112.451 63.1172 112.719 63.0869 112.955C62.9385 113.931 62.9128 114.812 62.896 115.679C62.8685 117.406 62.985 119.053 63.1289 120.691C63.4425 123.962 63.9527 127.145 64.6538 130.336L67.7237 129.996C67.7635 126.841 67.7932 123.656 67.9024 120.548C67.9578 118.998 68.0463 117.451 68.2036 115.992C68.2832 115.267 68.4002 114.556 68.5363 113.962C68.5682 113.804 68.6102 113.685 68.646 113.555C68.6897 113.416 68.7093 113.383 68.7698 113.217L69.192 112.158C70.3619 109.324 71.679 106.466 73.0219 103.621L77.0869 95.0908L71.5116 92.2998Z" fill="#E4897B"/>
<path d="M67.6797 129.035L69.1133 131.716L64.5347 132.994C64.5347 132.994 63.6628 130.837 64.701 129.136L67.6797 129.035Z" fill="#E4897B"/>
<path d="M70.8691 135.582L66.6591 135.915L64.5344 132.994L69.1135 131.716L70.8691 135.582Z" fill="#E4897B"/>
<path d="M90.7908 72.9479C90.8569 73.2732 91.0826 73.5017 91.2954 73.4586C91.5082 73.4155 91.6269 73.117 91.5608 72.7916C91.4947 72.4663 91.2691 72.2378 91.0563 72.2809C90.8435 72.3246 90.7247 72.6231 90.7908 72.9479Z" fill="#263238"/>
<path d="M91.0534 73.5079C91.0534 73.5079 92.174 75.2338 93.1719 75.973C92.706 76.6271 91.6778 76.5806 91.6778 76.5806L91.0534 73.5079Z" fill="#DE5753"/>
<path d="M89.2333 71.3843C89.2859 71.3843 89.338 71.3631 89.3766 71.3216C89.9596 70.6899 90.6523 70.793 90.6831 70.7963C90.7862 70.8148 90.8892 70.742 90.9066 70.6356C90.9239 70.5298 90.8528 70.4295 90.7475 70.4116C90.7106 70.4049 89.8224 70.2643 89.0899 71.0562C89.0171 71.1351 89.0222 71.2583 89.1011 71.3317C89.1386 71.367 89.1857 71.3843 89.2333 71.3843Z" fill="#263238"/>
<path d="M81.5284 77.522C82.1187 80.5314 82.7072 86.0463 80.6016 88.0545C80.6016 88.0545 81.4242 91.1076 87.0164 91.1076C93.1658 91.1076 89.9553 88.055 89.9553 88.055C86.5992 87.2536 86.686 84.7633 87.2707 82.4253L81.5284 77.522Z" fill="#E4897B"/>
<path d="M79.7564 89.9551C79.3123 88.4801 78.8234 86.7922 79.8348 86.2636C80.9475 85.6817 87.0375 85.0887 89.1375 86.1807C91.2375 87.2727 90.6416 90.2642 90.6416 90.2642L79.7564 89.9551Z" fill="#263238"/>
<path d="M66.8397 229.612C67.2614 229.612 67.6685 229.547 67.8275 229.34C67.8942 229.253 67.9479 229.102 67.8241 228.878C67.7597 228.76 67.6562 228.683 67.5184 228.651C66.9142 228.512 65.7813 229.288 65.7331 229.321C65.7012 229.342 65.6855 229.38 65.6928 229.419C65.7001 229.457 65.7281 229.487 65.7656 229.496C65.9767 229.546 66.4152 229.612 66.8397 229.612ZM67.3538 228.827C67.3963 228.827 67.4366 228.831 67.4736 228.84C67.5565 228.86 67.6158 228.903 67.6534 228.971C67.7413 229.131 67.6892 229.199 67.6724 229.221C67.4966 229.452 66.6554 229.456 66.0417 229.352C66.3962 229.134 66.9797 228.827 67.3538 228.827Z" fill="#01B2B8"/>
<path d="M65.7891 229.498C65.8048 229.498 65.821 229.494 65.8355 229.486C66.2611 229.255 67.0843 228.354 66.9975 227.895C66.9819 227.812 66.9203 227.668 66.6873 227.639C66.5395 227.622 66.3967 227.662 66.2723 227.764C65.7941 228.155 65.6961 229.342 65.6916 229.392C65.6888 229.428 65.7056 229.462 65.7359 229.481C65.7521 229.493 65.7706 229.498 65.7891 229.498ZM66.6201 227.83C66.6341 227.83 66.6492 227.831 66.6638 227.833C66.7909 227.848 66.8015 227.907 66.8066 227.932C66.8575 228.203 66.3334 228.884 65.91 229.205C65.9582 228.858 66.0892 228.166 66.3961 227.916C66.4667 227.858 66.5395 227.83 66.6201 227.83Z" fill="#01B2B8"/>
<path d="M91.5441 229.612C92.0716 229.612 92.5813 229.54 92.7521 229.302C92.812 229.219 92.859 229.078 92.7442 228.876C92.6798 228.763 92.5751 228.686 92.4345 228.648C91.7536 228.466 90.3121 229.281 90.2517 229.316C90.2164 229.336 90.1973 229.375 90.2041 229.416C90.2108 229.456 90.241 229.488 90.2813 229.496C90.544 229.549 91.0519 229.612 91.5441 229.612ZM92.196 228.814C92.2643 228.814 92.3276 228.821 92.3841 228.836C92.4743 228.861 92.5365 228.905 92.5751 228.972C92.6445 229.094 92.6193 229.153 92.5941 229.188C92.4088 229.445 91.37 229.458 90.5983 229.352C90.9797 229.156 91.7149 228.814 92.196 228.814Z" fill="#01B2B8"/>
<path d="M90.3002 229.497C90.3137 229.497 90.3277 229.495 90.34 229.489C90.8361 229.267 91.8195 228.377 91.745 227.912C91.7271 227.802 91.6498 227.666 91.3822 227.639C91.1834 227.62 91.0013 227.675 90.8417 227.806C90.3181 228.236 90.2078 229.344 90.2033 229.391C90.2 229.425 90.2151 229.459 90.2431 229.48C90.2605 229.492 90.2801 229.497 90.3002 229.497ZM91.3037 227.83C91.3228 227.83 91.3424 227.832 91.3625 227.833C91.5378 227.851 91.549 227.92 91.5529 227.943C91.5977 228.222 90.9297 228.921 90.4229 229.225C90.4755 228.902 90.6222 228.239 90.9661 227.956C91.0691 227.872 91.18 227.83 91.3037 227.83Z" fill="#01B2B8"/>
<path d="M85.7771 229.401H89.8909L90.3008 219.874H86.187L85.7771 229.401Z" fill="#E4897B"/>
<path d="M61.076 229.401H65.1903L67.2578 219.874H63.144L61.076 229.401Z" fill="#E4897B"/>
<path d="M65.4821 228.924H60.8604C60.6924 228.924 60.5468 229.041 60.5098 229.205L59.6972 232.862C59.6127 233.241 59.9112 233.6 60.2998 233.593C61.9132 233.566 62.6972 233.471 64.73 233.471C65.9804 233.471 68.5564 233.601 70.2835 233.601C71.9724 233.601 72.2356 231.893 71.5289 231.739C68.3593 231.045 67.1648 230.089 66.1501 229.177C65.967 229.013 65.7279 228.924 65.4821 228.924Z" fill="#263238"/>
<path d="M89.8636 228.924H85.3707C85.2027 228.924 85.0571 229.041 85.0201 229.205L84.2076 232.862C84.1236 233.241 84.4114 233.6 84.7995 233.594C86.4201 233.566 88.762 233.471 90.7987 233.471C93.1804 233.471 95.2373 233.601 98.0306 233.601C99.7195 233.601 100.188 231.894 99.481 231.739C96.2627 231.035 93.6352 230.96 90.8536 229.245C90.5524 229.058 90.2186 228.924 89.8636 228.924Z" fill="#263238"/>
<path d="M91.8503 95.2807C95.3385 95.0079 98.6918 94.5566 102.102 93.9176C103.8 93.5917 105.5 93.2271 107.2 92.7696C108.902 92.3132 110.607 91.7958 112.331 91.0762C112.762 90.8992 113.197 90.7004 113.631 90.4938C114.176 90.2244 114.629 89.9444 115.028 89.679C115.837 89.1448 116.529 88.5937 117.219 88.0443C118.589 86.9473 119.864 85.8072 121.121 84.6547C123.626 82.3385 126.002 79.9411 128.29 77.4189L126.23 75.1173L118.105 80.9564C116.764 81.9236 115.41 82.8677 114.078 83.7587C113.415 84.1994 112.737 84.6177 112.119 84.966C111.806 85.1436 111.528 85.2763 111.313 85.3614C110.98 85.4919 110.643 85.6207 110.289 85.7388C107.445 86.6875 104.229 87.2967 101.034 87.8114C97.8361 88.3176 94.5321 88.7343 91.3407 89.0652L91.8503 95.2807Z" fill="#E4897B"/>
<path d="M73.2347 88.9846C69.3791 89.8688 65.4804 101.142 65.4804 101.142L73.4173 106.835C73.4173 106.835 75.6343 101.585 77.8155 96.9926C80.1014 92.181 77.1771 88.0807 73.2347 88.9846Z" fill="#01B2B8"/>
<path opacity="0.4" d="M73.2347 88.9846C69.3791 89.8688 65.4804 101.142 65.4804 101.142L73.4173 106.835C73.4173 106.835 75.6343 101.585 77.8155 96.9926C80.1014 92.181 77.1771 88.0807 73.2347 88.9846Z" fill="black"/>
<path d="M75.4596 95.144L77.0332 98.6664C75.4036 102.183 73.914 105.666 73.5164 106.596C73.5724 102.435 74.362 97.272 75.4596 95.144Z" fill="#01B2B8"/>
<path opacity="0.6" d="M75.4596 95.144L77.0332 98.6664C75.4036 102.183 73.914 105.666 73.5164 106.596C73.5724 102.435 74.362 97.272 75.4596 95.144Z" fill="black"/>
<path d="M96.2824 89.1963C96.2824 89.1963 100.661 94.1422 96.526 124.755C89.8962 124.755 77.7481 124.755 74.522 124.755C74.3702 121.377 76.4926 104.899 73.2351 88.984C73.2351 88.984 77.0067 88.2269 80.6013 88.0539C83.4131 87.9183 87.4832 87.8287 89.955 88.0544C93.2131 88.3518 96.2824 89.1963 96.2824 89.1963Z" fill="#01B2B8"/>
<path opacity="0.4" d="M96.2824 89.1963C96.2824 89.1963 100.661 94.1422 96.526 124.755C89.8962 124.755 77.7481 124.755 74.522 124.755C74.3702 121.377 76.4926 104.899 73.2351 88.984C73.2351 88.984 77.0067 88.2269 80.6013 88.0539C83.4131 87.9183 87.4832 87.8287 89.955 88.0544C93.2131 88.3518 96.2824 89.1963 96.2824 89.1963Z" fill="black"/>
<path d="M97.9098 95.144C98.0554 96.3032 98.1674 97.6752 98.2402 99.2936C96.4202 98.728 94.1578 97.8208 92.1138 96.4152L97.9098 95.144Z" fill="#01B2B8"/>
<path opacity="0.6" d="M97.9098 95.144C98.0554 96.3032 98.1674 97.6752 98.2402 99.2936C96.4202 98.728 94.1578 97.8208 92.1138 96.4152L97.9098 95.144Z" fill="black"/>
<path d="M88.498 95.7444C91.442 98.3528 102.688 98.0919 102.688 98.0919L103.059 87.22C103.059 87.22 96.683 88.1547 91.596 88.0511C85.3116 87.9239 85.2674 92.8816 88.498 95.7444Z" fill="#01B2B8"/>
<path opacity="0.4" d="M88.498 95.7444C91.442 98.3528 102.688 98.0919 102.688 98.0919L103.059 87.22C103.059 87.22 96.683 88.1547 91.596 88.0511C85.3116 87.9239 85.2674 92.8816 88.498 95.7444Z" fill="black"/>
<path d="M126.129 75.1733L128.953 71.8766L131.968 75.2153C131.968 75.2153 130.112 78.3373 127.156 77.8445L126.129 75.1733Z" fill="#E4897B"/>
<path d="M132.94 68.0316L134.026 72.3335L131.968 75.2159L128.953 71.8766L132.94 68.0316Z" fill="#E4897B"/>
<path d="M90.2988 219.876L90.0883 224.787H85.9728L86.1834 219.876H90.2988Z" fill="#CE6F64"/>
<path d="M63.1418 219.876H67.2578L66.1899 224.787H62.0739L63.1418 219.876Z" fill="#CE6F64"/>
<path d="M87.8234 68.8587C91.5138 67.1535 92.6803 59.71 82.0638 61.5535C82.0638 61.5535 83.6637 63.3271 80.4135 64.4471C77.1638 65.5665 79.8843 72.5279 87.8234 68.8587Z" fill="#263238"/>
<path d="M79.8053 74.4632C80.862 78.4068 81.2804 80.7688 83.7141 82.4091C87.3748 84.8759 91.9327 82.0451 92.0755 77.8647C92.2037 74.102 90.4537 68.2848 86.2218 67.4901C82.052 66.7072 78.748 70.5197 79.8053 74.4632Z" fill="#E4897B"/>
<path d="M82.2074 63.5572C79.6953 64.9623 76.2893 65.8 76.6315 67.7919C77.0498 70.2268 74.5724 68.7036 75.1492 72.3313C75.5261 74.7001 79.8952 81.8782 82.9707 81.5276C87.5941 81.0007 87.0083 73.9385 87.0234 70.2274C87.0329 68.04 87.1354 60.8015 82.2074 63.5572Z" fill="#263238"/>
<path d="M87.5787 66.7022C88.6987 66.9665 90.1833 73.4222 85.8449 74.0136C80.8514 74.694 87.5787 66.7022 87.5787 66.7022Z" fill="#263238"/>
<path d="M87.4647 68.9937C88.8373 69.1147 91.9329 67.4627 91.5633 64.978C91.5633 64.978 89.591 67.8855 87.4647 68.9937Z" fill="#263238"/>
<path d="M85.4304 74.5293C85.8599 75.5087 86.673 76.2793 87.4598 76.6892C88.6437 77.3052 89.3084 76.4042 89.0407 75.2203C88.7999 74.1546 87.8932 72.5497 86.6764 72.4181C85.4763 72.2882 84.9392 73.4093 85.4304 74.5293Z" fill="#E4897B"/>
<path d="M79.2705 69.9714C78.4395 69.5486 76.5467 68.5899 76.0309 65.87C76.0309 65.87 74.1823 71.0304 79.2705 69.9714Z" fill="#263238"/>
<path d="M74.5962 69.9171C75.0112 69.6741 75.9531 69.1203 77.2764 69.6528C77.2764 69.6528 75.5521 67.4156 74.5962 69.9171Z" fill="#263238"/>
<path d="M88.7207 124.755C88.7207 124.755 84.052 156.195 81.4889 167.973C78.6821 180.872 68.1077 223.836 68.1077 223.836H60.5729C60.5729 223.836 67.5454 181.913 69.147 169.142C70.8853 155.282 74.5225 124.755 74.5225 124.755H88.7207Z" fill="#01B2B8"/>
<path opacity="0.5" d="M88.7207 124.755C88.7207 124.755 84.052 156.195 81.4889 167.973C78.6821 180.872 68.1077 223.836 68.1077 223.836H60.5729C60.5729 223.836 67.5454 181.913 69.147 169.142C70.8853 155.282 74.5225 124.755 74.5225 124.755H88.7207Z" fill="white"/>
<path d="M69.3106 221.06C69.3425 221.06 68.5328 223.954 68.5328 223.954H60.0555L60.2112 221.371L69.3106 221.06Z" fill="#01B2B8"/>
<path opacity="0.1" d="M69.3106 221.06C69.3425 221.06 68.5328 223.954 68.5328 223.954H60.0555L60.2112 221.371L69.3106 221.06Z" fill="black"/>
<path d="M85.7702 135.957C80.3718 137.015 80.9429 157.147 81.5925 167.502C83.1493 160.182 85.4286 146.098 86.9854 136.102C86.627 135.923 86.2238 135.867 85.7702 135.957Z" fill="#01B2B8"/>
<path opacity="0.4" d="M85.7702 135.957C80.3718 137.015 80.9429 157.147 81.5925 167.502C83.1493 160.182 85.4286 146.098 86.9854 136.102C86.627 135.923 86.2238 135.867 85.7702 135.957Z" fill="white"/>
<path d="M96.5261 124.755C96.5261 124.755 97.0928 155.514 96.6453 168.06C96.18 181.109 91.6221 223.836 91.6221 223.836H84.6529C84.6529 223.836 84.397 181.872 84.0873 169.056C83.7491 155.085 82.0624 124.756 82.0624 124.756H96.5261V124.755Z" fill="#01B2B8"/>
<path opacity="0.5" d="M96.5261 124.755C96.5261 124.755 97.0928 155.514 96.6453 168.06C96.18 181.109 91.6221 223.836 91.6221 223.836H84.6529C84.6529 223.836 84.397 181.872 84.0873 169.056C83.7491 155.085 82.0624 124.756 82.0624 124.756H96.5261V124.755Z" fill="white"/>
<path d="M90.1705 218.83C90.2057 218.83 90.236 218.803 90.2399 218.767C91.468 206.942 94.3649 178.328 94.7317 168.063C95.1052 157.585 94.7658 134.076 94.6527 127.121C94.6521 127.082 94.6208 127.052 94.5827 127.052H94.5816C94.5429 127.052 94.5121 127.084 94.5127 127.123C94.6258 134.077 94.9652 157.583 94.5917 168.057C94.2254 178.319 91.3296 206.928 90.101 218.753C90.0965 218.791 90.1245 218.826 90.1632 218.83C90.1654 218.83 90.1682 218.83 90.1705 218.83Z" fill="#01B2B8"/>
<path opacity="0.4" d="M90.1705 218.83C90.2057 218.83 90.236 218.803 90.2399 218.767C91.468 206.942 94.3649 178.328 94.7317 168.063C95.1052 157.585 94.7658 134.076 94.6527 127.121C94.6521 127.082 94.6208 127.052 94.5827 127.052H94.5816C94.5429 127.052 94.5121 127.084 94.5127 127.123C94.6258 134.077 94.9652 157.583 94.5917 168.057C94.2254 178.319 91.3296 206.928 90.101 218.753C90.0965 218.791 90.1245 218.826 90.1632 218.83C90.1654 218.83 90.1682 218.83 90.1705 218.83Z" fill="white"/>
<path d="M92.9631 221.06C92.9951 221.06 92.57 223.954 92.57 223.954H84.0922L83.8631 221.371L92.9631 221.06Z" fill="#01B2B8"/>
<path opacity="0.1" d="M92.9631 221.06C92.9951 221.06 92.57 223.954 92.57 223.954H84.0922L83.8631 221.371L92.9631 221.06Z" fill="black"/>
</svg>
