<svg width="387" height="258" viewBox="0 0 387 258" fill="none" xmlns="http://www.w3.org/2000/svg">
<path d="M97.1318 36.9404H49.7939V105.558H97.1318V36.9404Z" fill="#E0E0E0"/>
<path d="M94.7578 36.9404H47.4199V105.558H94.7578V36.9404Z" fill="#F5F5F5"/>
<path d="M88.8809 44.3708H53.3027V98.1226H88.8809V44.3708Z" fill="white"/>
<path d="M88.8805 98.1277C88.8805 98.1277 88.8805 98.0348 88.8805 97.8646C88.8805 97.6943 88.8805 97.4311 88.8805 97.1009C88.8805 96.4249 88.8805 95.4342 88.8805 94.1545C88.8805 91.5745 88.8805 87.8232 88.8444 83.0811C88.8444 73.6022 88.8134 60.1759 88.7876 44.3812L88.9063 44.4998H53.3333L53.4623 44.3708C53.4623 64.6496 53.4623 83.3443 53.4623 98.1277L53.3591 98.0245L79.2571 98.0761L86.4089 98.1019H88.2871H88.9373H88.3077H86.4501H79.319L53.3591 98.1535H53.2559V98.0503C53.2559 83.2669 53.2559 64.5722 53.2559 44.2934V44.1644H53.39H88.9631H89.0817V44.376C89.0817 60.2172 89.0353 73.6641 89.025 83.1637C89.025 87.8954 88.9992 91.6364 88.9889 94.2061C88.9889 95.4806 88.9889 96.461 88.9889 97.1318C88.9889 97.4569 88.9889 97.7097 88.9889 97.88C88.9889 98.0503 88.8805 98.1277 88.8805 98.1277Z" fill="#E0E0E0"/>
<path d="M94.8977 36.9404C94.653 37.3792 94.3698 37.7953 94.0515 38.184C93.5045 38.9167 92.7202 39.9178 91.8327 41.0014C90.9451 42.085 90.1092 43.0396 89.49 43.7207C89.1788 44.1054 88.8334 44.4612 88.458 44.7836C88.7253 44.3651 89.0273 43.9698 89.361 43.602L91.6417 40.8362L93.9121 38.055C94.2085 37.6562 94.5382 37.2834 94.8977 36.9404Z" fill="#E0E0E0"/>
<path d="M89.0615 97.9523C90.8282 100.757 92.9053 103.353 95.2535 105.692L89.0615 97.9523Z" fill="white"/>
<path d="M95.2693 105.713C94.8723 105.426 94.5088 105.095 94.1857 104.727C93.3607 103.889 92.5788 103.009 91.843 102.091C90.9865 101.012 90.2692 99.9853 89.779 99.2268C89.4971 98.8266 89.2551 98.3997 89.0566 97.9523C89.3758 98.3207 89.6673 98.7122 89.9287 99.1236C90.4447 99.8563 91.1877 100.857 92.0391 101.925C92.8905 102.994 93.7161 103.933 94.3147 104.604C94.659 104.95 94.978 105.321 95.2693 105.713Z" fill="#E0E0E0"/>
<path d="M47.415 105.501L53.607 97.8542L47.415 105.501Z" fill="white"/>
<path d="M53.6174 97.8542C52.6834 99.2065 51.6811 100.51 50.6142 101.76C49.6159 103.064 48.548 104.313 47.415 105.501C48.349 104.149 49.3513 102.845 50.4182 101.595C51.4165 100.292 52.4844 99.0428 53.6174 97.8542Z" fill="#E0E0E0"/>
<path d="M47.4199 36.9404C48.4896 38.0885 49.4956 39.2943 50.4334 40.5524C51.4377 41.7536 52.3748 43.0094 53.2404 44.3141C52.1726 43.1658 51.1683 41.96 50.2321 40.7021C49.2265 39.5007 48.2877 38.2449 47.4199 36.9404Z" fill="#E0E0E0"/>
<path d="M77.7973 55.2842H65.8828V89.108H77.7973V55.2842Z" fill="#E0E0E0"/>
<path d="M160.956 26.9404V56.9922H117.797L116.244 27.1519L160.956 26.9404Z" fill="#E0E0E0"/>
<path d="M116.239 27.1519V56.9251H159.397V27.1519L116.239 27.1519Z" fill="white"/>
<path d="M159.604 57.1316H116.038V26.9456H159.604V57.1316ZM116.451 56.7239H159.196V27.348H116.451V56.7239Z" fill="#E0E0E0"/>
<path d="M154.727 30.8516H120.919V53.2254H154.727V30.8516Z" fill="white"/>
<path d="M154.728 30.8516H154.077H152.22H145.254L120.919 30.96L121.017 30.862C121.017 37.699 121.017 45.2738 121.017 53.2357L120.914 53.1325H154.722L154.635 53.2151C154.635 46.409 154.671 40.8311 154.681 36.9353C154.681 34.9951 154.681 33.4781 154.681 32.4358C154.681 31.9198 154.681 31.5276 154.681 31.2541C154.681 30.9806 154.681 30.8413 154.681 30.8413C154.681 30.8413 154.681 30.9703 154.681 31.2335C154.681 31.4966 154.681 31.894 154.681 32.3996C154.681 33.4316 154.681 34.9487 154.707 36.8837C154.707 40.7846 154.733 46.3884 154.748 53.2151V53.3028H154.666H120.857H120.749V53.1944C120.749 45.2326 120.749 37.6577 120.749 30.8207V30.7536H120.847L145.249 30.8L152.194 30.831H154.031H154.655L154.728 30.8516Z" fill="#E0E0E0"/>
<path d="M116.244 27.0694C116.511 27.1977 116.761 27.3589 116.987 27.5493C117.426 27.8692 118.019 28.3233 118.68 28.8393C119.34 29.3553 119.897 29.8713 120.3 30.217C120.53 30.4039 120.738 30.6169 120.919 30.8517C120.097 30.2768 119.305 29.6602 118.546 29.0044C117.738 28.4088 116.969 27.7625 116.244 27.0694Z" fill="#E0E0E0"/>
<path d="M159.403 27.1519C158.693 27.8502 157.934 28.4968 157.132 29.0869C156.373 29.731 155.57 30.3207 154.728 30.8516C155.437 30.1534 156.196 29.5067 156.998 28.9166C157.756 28.2712 158.559 27.6814 159.403 27.1519Z" fill="#E0E0E0"/>
<path d="M159.366 56.9303L154.552 53.0293L159.366 56.9303Z" fill="white"/>
<path d="M154.552 53.0293C155.417 53.5969 156.245 54.2209 157.029 54.8972C157.852 55.5217 158.633 56.2009 159.366 56.9303C158.5 56.366 157.674 55.7418 156.894 55.0623C156.067 54.4404 155.284 53.7611 154.552 53.0293Z" fill="#E0E0E0"/>
<path d="M116.244 56.9251C116.945 56.2354 117.695 55.5973 118.489 55.0159C119.239 54.3775 120.034 53.7929 120.868 53.2667C120.169 53.9604 119.418 54.6003 118.623 55.181C117.873 55.8189 117.078 56.4018 116.244 56.9251Z" fill="#E0E0E0"/>
<path d="M127.782 37.8228V45.3151H149.057V37.8228H127.782Z" fill="#E0E0E0"/>
<path d="M336.788 161.596C336.788 161.596 332.913 159.79 329.874 168.871C326.834 177.953 325.931 183.067 325.931 183.067C325.931 183.067 325.059 185.007 323.671 184.031C322.283 183.056 320.132 180.027 318.155 180.935C316.179 181.844 315.756 184.362 316.69 187.814C317.624 191.266 319.394 198.897 319.549 199.589C319.703 200.28 319.461 201.338 318.413 200.827C317.366 200.316 310.957 195.027 308.609 198.211C306.262 201.395 310.462 210.595 310.9 211.596C311.339 212.597 311.2 213.093 310.735 213.428C310.271 213.763 308.295 211.782 306.411 210.332C304.528 208.882 302.097 207.577 300.905 209.527C299.714 211.477 300.333 218.748 308.934 229.419L313.243 234.099L319.502 232.804C332.727 229.218 337.495 223.696 337.676 221.416C337.856 219.135 335.096 218.784 332.748 218.836C330.4 218.887 327.619 219.326 327.443 218.779C327.268 218.232 327.443 217.747 328.382 217.231C329.322 216.715 338.109 211.684 338.099 207.736C338.088 203.789 329.796 204.315 328.646 204.124C327.495 203.934 327.928 202.912 328.45 202.453C328.971 201.993 334.894 196.844 337.676 194.599C340.457 192.355 341.644 190.131 340.529 188.175C339.415 186.219 335.937 187.473 334.244 187.447C332.552 187.422 332.98 185.337 332.98 185.337C332.98 185.337 335.25 180.693 338.14 171.534C341.03 162.375 336.706 161.585 336.706 161.585" fill="#01B2B8"/>
<path d="M312.428 235.394C314.564 228.686 318.558 216.844 321.938 206.653C325.317 196.462 328.367 187.241 330.539 180.554C331.618 177.21 332.49 174.506 333.119 172.628C333.424 171.699 333.635 170.971 333.821 170.471C333.9 170.234 333.962 170.048 334.007 169.914C334.048 169.785 334.074 169.723 334.074 169.723C334.074 169.723 334.074 169.79 334.022 169.919C333.971 170.048 333.929 170.239 333.857 170.481C333.702 170.997 333.481 171.714 333.192 172.648C332.614 174.532 331.762 177.246 330.689 180.595C328.553 187.303 325.529 196.529 322.149 206.715C318.769 216.901 314.75 228.748 312.577 235.435" fill="#E0E0E0"/>
<path d="M320.998 185.285C321.084 185.413 321.158 185.547 321.22 185.688C321.354 185.951 321.535 186.343 321.736 186.823C322.175 187.788 322.768 189.135 323.341 190.631C323.913 192.127 324.455 193.443 324.889 194.465C325.069 194.924 325.229 195.316 325.353 195.626C325.424 195.763 325.476 195.909 325.508 196.059C325.422 195.932 325.348 195.797 325.286 195.657C325.152 195.394 324.971 195.007 324.77 194.522C324.342 193.552 323.79 192.2 323.191 190.703C322.592 189.207 322.056 187.896 321.643 186.88L321.168 185.719C321.093 185.582 321.036 185.436 320.998 185.285Z" fill="#E0E0E0"/>
<path d="M326.112 196.08C326.086 196.028 328.81 194.738 332.195 193.19C335.58 191.642 338.336 190.435 338.387 190.487C338.439 190.538 335.683 191.828 332.298 193.371C328.913 194.914 326.112 196.137 326.112 196.08Z" fill="#E0E0E0"/>
<path d="M320.198 211.498C320.349 211.449 320.505 211.418 320.663 211.405L321.927 211.219C322.99 211.065 324.466 210.843 326.081 210.533C327.696 210.224 329.146 209.909 330.209 209.661L331.452 209.377C331.603 209.33 331.759 209.303 331.917 209.295C331.774 209.36 331.625 209.412 331.473 209.45C331.184 209.537 330.766 209.661 330.245 209.8C329.213 210.079 327.747 210.425 326.117 210.729C324.486 211.034 323.021 211.245 321.942 211.359C321.426 211.421 320.972 211.462 320.668 211.483C320.512 211.501 320.355 211.507 320.198 211.498Z" fill="#E0E0E0"/>
<path d="M313.438 202.742C313.55 202.835 313.65 202.94 313.738 203.056L314.496 203.964C315.131 204.733 315.993 205.807 316.937 206.999C317.881 208.191 318.733 209.274 319.336 210.069L320.043 211.013C320.136 211.125 320.217 211.246 320.286 211.374C320.173 211.283 320.072 211.177 319.987 211.059L319.228 210.156C318.593 209.382 317.732 208.314 316.782 207.122C315.833 205.93 314.992 204.842 314.388 204.052L313.681 203.108C313.586 202.996 313.505 202.873 313.438 202.742Z" fill="#E0E0E0"/>
<path d="M306.504 215.688C306.643 215.81 306.77 215.947 306.881 216.096C307.139 216.395 307.464 216.787 307.856 217.251C308.676 218.232 309.791 219.599 311.019 221.116C312.247 222.633 313.346 224.011 314.115 225.017L315.044 226.209C315.162 226.353 315.267 226.506 315.358 226.668C315.222 226.543 315.096 226.406 314.982 226.261L314.007 225.105C313.191 224.119 312.072 222.757 310.843 221.24C309.615 219.723 308.516 218.345 307.747 217.339C307.376 216.859 307.061 216.457 306.824 216.142C306.703 216.002 306.595 215.849 306.504 215.688Z" fill="#E0E0E0"/>
<path d="M315.275 226.343C315.464 226.286 315.658 226.243 315.853 226.214L317.448 225.925C318.795 225.678 320.652 225.327 322.69 224.893C324.729 224.46 326.565 224.006 327.892 223.671L329.465 223.278C329.656 223.221 329.851 223.18 330.048 223.155C329.867 223.237 329.679 223.303 329.486 223.351C329.12 223.464 328.588 223.624 327.938 223.805C326.617 224.176 324.785 224.646 322.742 225.084C320.699 225.523 318.836 225.858 317.484 226.07C316.808 226.178 316.256 226.256 315.879 226.302C315.68 226.335 315.477 226.349 315.275 226.343Z" fill="#E0E0E0"/>
<path d="M348.3 235.208C348.3 235.28 277.407 235.342 189.981 235.342C102.555 235.342 31.6621 235.296 31.6621 235.208C31.6621 235.121 102.54 235.074 190.002 235.074C277.464 235.074 348.3 235.136 348.3 235.208Z" fill="#263238"/>
<path d="M251.476 55.6373L246.566 59.8365L253.12 67.4994L258.03 63.3002L251.476 55.6373Z" fill="#263238"/>
<path d="M255.719 55.0417L245.616 63.7208L238.531 55.4648C241.318 51.5535 244.641 48.602 248.619 46.7857L255.719 55.0417Z" fill="#455A64"/>
<path d="M247.319 62.2657C247.262 62.3173 245.554 60.4391 243.5 58.081C241.447 55.7228 239.827 53.7724 239.888 53.7208C239.95 53.6692 241.653 55.5474 243.707 57.9055C245.761 60.2636 247.376 62.2193 247.319 62.2657Z" fill="#263238"/>
<path d="M249.228 60.6145C248.82 60.2173 248.441 59.7913 248.093 59.34C247.412 58.5402 246.488 57.4308 245.472 56.1924L242.892 53.0138L242.118 52.0489C241.932 51.8115 241.834 51.7032 241.834 51.6877C241.937 51.5948 243.655 53.5504 245.689 56.0221C246.721 57.2605 247.608 58.3905 248.269 59.2213C248.629 59.6565 248.95 60.1227 249.228 60.6145Z" fill="#263238"/>
<path d="M251.808 58.4112C251.394 58.0152 251.009 57.5893 250.658 57.1367C249.971 56.3265 249.042 55.1965 248.021 53.9426L245.441 50.7125L244.667 49.7269C244.566 49.6094 244.477 49.4834 244.398 49.3502C244.842 49.7165 245.24 50.1339 245.585 50.5938C246.282 51.3936 247.221 52.5185 248.237 53.7723C249.254 55.0262 250.167 56.1769 250.817 57.018C251.186 57.4537 251.518 57.9198 251.808 58.4112Z" fill="#263238"/>
<path d="M254.135 56.3472C254.078 56.3936 252.38 54.4999 250.342 52.116C248.304 49.732 246.704 47.7558 246.761 47.7042C246.818 47.6526 248.51 49.5514 250.549 51.9405C252.587 54.3296 254.192 56.3007 254.135 56.3472Z" fill="#263238"/>
<path d="M337.937 60.8534L333.474 56.1828L326.184 63.1487L330.648 67.8193L337.937 60.8534Z" fill="#263238"/>
<path d="M338.15 65.4494L328.955 55.826L336.814 48.3182C340.859 50.8982 343.986 54.0613 346.004 57.9416L338.15 65.4494Z" fill="#455A64"/>
<path d="M330.493 57.4411C330.442 57.3843 332.222 55.5783 334.472 53.406C336.721 51.2336 338.6 49.5153 338.636 49.5669C338.672 49.6185 336.907 51.4245 334.657 53.602C332.408 55.7796 330.545 57.4927 330.493 57.4411Z" fill="#263238"/>
<path d="M332.247 59.2729C332.614 58.8396 333.014 58.4359 333.444 58.0655C334.203 57.3431 335.266 56.3575 336.447 55.2739L339.487 52.5236L340.41 51.698C340.632 51.5019 340.74 51.4039 340.756 51.3987C340.854 51.4968 338.991 53.3183 336.628 55.4751C335.446 56.5536 334.363 57.5391 333.568 58.2048C333.156 58.595 332.715 58.9521 332.247 59.2729Z" fill="#263238"/>
<path d="M334.58 61.7136C334.951 61.2762 335.357 60.869 335.793 60.4958C336.562 59.7682 337.64 58.7775 338.842 57.6939L341.938 54.9385L342.883 54.1129C342.998 54.0103 343.118 53.9138 343.244 53.8239C342.903 54.2869 342.508 54.7078 342.067 55.0778C341.304 55.8157 340.225 56.8116 339.028 57.8952C337.831 58.9788 336.727 59.9592 335.932 60.6403C335.51 61.0322 335.058 61.391 334.58 61.7136Z" fill="#263238"/>
<path d="M336.763 63.9376C336.711 63.8808 338.517 62.0903 340.793 59.9282C343.068 57.7662 344.957 56.0634 345.008 56.1202C345.06 56.1769 343.254 57.9674 340.979 60.1243C338.703 62.2812 336.814 63.984 336.763 63.9376Z" fill="#263238"/>
<path d="M296.741 38.5555H289.094V50.4906H296.741V38.5555Z" fill="#263238"/>
<path d="M300.828 42.1262H285.09V29.2623C290.606 27.9001 295.869 27.8175 300.843 29.2623L300.828 42.1262Z" fill="#01B2B8"/>
<path d="M301.029 29.3139C300.845 29.4293 300.65 29.5261 300.446 29.6029C299.907 29.8402 299.354 30.0435 298.79 30.2118C297.944 30.4721 297.083 30.6756 296.21 30.8206C295.15 30.9889 294.079 31.0786 293.006 31.089C291.933 31.0906 290.862 31.0112 289.801 30.8516C288.929 30.7163 288.067 30.5215 287.221 30.2685C286.656 30.1032 286.101 29.9051 285.56 29.6751C285.355 29.6041 285.159 29.5088 284.977 29.3913C284.977 29.3449 285.843 29.7009 287.273 30.0828C288.112 30.3045 288.963 30.4767 289.822 30.5988C290.872 30.7408 291.93 30.8132 292.99 30.8155C294.05 30.8034 295.109 30.7207 296.158 30.5678C297.014 30.4441 297.861 30.2718 298.697 30.0518C300.162 29.6338 301.009 29.2675 301.029 29.3139Z" fill="#263238"/>
<path d="M290.291 42.0901C290.219 42.0901 290.157 39.6184 290.157 36.574C290.157 33.5296 290.219 31.058 290.291 31.058C290.364 31.058 290.426 33.5245 290.426 36.574C290.426 39.6236 290.369 42.0901 290.291 42.0901Z" fill="#263238"/>
<path d="M293.289 42.1623C293.217 42.1623 293.155 39.6804 293.155 36.6205C293.155 33.5606 293.217 31.0838 293.289 31.0838C293.362 31.0838 293.424 33.5606 293.424 36.6205C293.424 39.6804 293.367 42.1623 293.289 42.1623Z" fill="#263238"/>
<path d="M296.287 42.1159C296.215 42.1159 296.153 39.6339 296.153 36.5741C296.153 33.5142 296.215 31.0322 296.287 31.0322C296.36 31.0322 296.422 33.5142 296.422 36.5741C296.422 39.6339 296.365 42.1159 296.287 42.1159Z" fill="#263238"/>
<path d="M298.764 42.1159C298.687 42.1159 298.63 39.4327 298.63 36.1252C298.63 32.8176 298.687 30.1344 298.764 30.1344C298.841 30.1344 298.898 32.8176 298.898 36.1252C298.898 39.4327 298.857 42.1159 298.764 42.1159Z" fill="#263238"/>
<path d="M287.458 42.0385C287.386 42.0385 287.324 39.3553 287.324 36.0477C287.324 32.7401 287.386 30.0569 287.458 30.0569C287.531 30.0569 287.593 32.7401 287.593 36.0477C287.593 39.3553 287.536 42.0385 287.458 42.0385Z" fill="#263238"/>
<path d="M331.338 141.782C353.066 120.053 353.066 84.8238 331.338 63.0949C309.609 41.366 274.379 41.366 252.65 63.0949C230.921 84.8238 230.921 120.053 252.65 141.782C274.379 163.511 309.609 163.511 331.338 141.782Z" fill="#01B2B8"/>
<path d="M291.995 148.727C317.802 148.727 338.724 127.805 338.724 101.998C338.724 76.19 317.802 55.2687 291.995 55.2687C266.187 55.2687 245.266 76.19 245.266 101.998C245.266 127.805 266.187 148.727 291.995 148.727Z" fill="#FAFAFA"/>
<path d="M338.723 101.998C338.723 101.998 338.723 101.745 338.687 101.244C338.651 100.744 338.687 99.9956 338.589 99.0203C338.405 96.175 337.959 93.3526 337.258 90.5889C336.752 88.5942 336.112 86.6358 335.343 84.7271C334.439 82.4515 333.352 80.253 332.092 78.1533C329.011 73.0235 324.983 68.5253 320.224 64.8973C314.448 60.5028 307.725 57.5201 300.591 56.1872C294.544 55.0746 288.338 55.1464 282.319 56.3988C280.205 56.8576 278.123 57.4522 276.086 58.1789C267.416 61.3371 259.875 66.9909 254.414 74.4278C252.989 76.3645 251.719 78.4108 250.616 80.5476C250.043 81.6157 249.553 82.7251 249.068 83.8396C248.583 84.9542 248.149 86.11 247.783 87.2865C246.991 89.6408 246.397 92.0573 246.008 94.5105C245.616 96.9908 245.411 99.497 245.394 102.008C245.412 104.52 245.616 107.028 246.003 109.511C246.398 111.963 246.992 114.379 247.778 116.735C248.149 117.906 248.614 119.041 249.063 120.176C249.512 121.312 250.054 122.405 250.611 123.474C251.713 125.612 252.985 127.658 254.414 129.593C259.874 137.033 267.415 142.689 276.086 145.847C278.123 146.574 280.205 147.169 282.319 147.628C284.38 148.058 286.468 148.35 288.568 148.5C292.587 148.803 296.629 148.581 300.591 147.839C307.725 146.506 314.448 143.523 320.224 139.129C324.985 135.503 329.012 131.004 332.092 125.873C333.351 123.773 334.438 121.574 335.343 119.299C337.176 114.737 338.271 109.912 338.589 105.006C338.677 104.031 338.661 103.283 338.687 102.782C338.713 102.281 338.723 102.023 338.723 102.023C338.723 102.023 338.723 102.281 338.723 102.782C338.723 103.283 338.723 104.031 338.651 105.006C338.368 109.926 337.293 114.768 335.467 119.346C334.568 121.632 333.485 123.841 332.227 125.95C329.152 131.106 325.124 135.629 320.359 139.279C314.562 143.7 307.812 146.704 300.647 148.051C296.668 148.803 292.607 149.032 288.568 148.732C286.457 148.582 284.359 148.291 282.288 147.86C280.161 147.402 278.067 146.806 276.019 146.074C267.298 142.904 259.711 137.221 254.218 129.743C252.784 127.797 251.507 125.741 250.399 123.592C249.821 122.519 249.326 121.394 248.82 120.274C248.315 119.155 247.902 117.994 247.53 116.812C246.739 114.446 246.142 112.02 245.745 109.557C244.926 104.561 244.926 99.4652 245.745 94.4692C246.144 92.0169 246.741 89.601 247.53 87.2452C247.907 86.0636 248.371 84.9232 248.825 83.7829C249.28 82.6425 249.821 81.5434 250.399 80.4701C251.511 78.3229 252.789 76.2663 254.223 74.3194C259.714 66.842 267.299 61.1606 276.019 57.9932C278.066 57.2624 280.158 56.666 282.283 56.2078C284.356 55.7771 286.456 55.4858 288.568 55.3358C292.605 55.0359 296.664 55.2649 300.642 56.0169C307.809 57.3578 314.56 60.3624 320.353 64.7889C325.119 68.4406 329.147 72.9655 332.221 78.1223C334.533 82.0151 336.271 86.2208 337.381 90.6096C338.07 93.3829 338.5 96.2141 338.666 99.0668C338.744 100.042 338.718 100.79 338.738 101.291C338.759 101.791 338.723 101.998 338.723 101.998Z" fill="#263238"/>
<path d="M331.865 100.305C330.385 100.367 329.177 100.305 329.172 100.176C329.167 100.047 330.359 99.8717 331.84 99.7892C333.321 99.7066 334.528 99.7582 334.538 99.913C334.549 100.068 333.336 100.243 331.865 100.305Z" fill="#263238"/>
<path d="M330.87 111.064C329.425 110.723 328.29 110.347 328.29 110.218C328.29 110.089 329.518 110.243 330.968 110.558C332.418 110.873 333.548 111.255 333.548 111.404C333.548 111.554 332.305 111.399 330.87 111.064Z" fill="#263238"/>
<path d="M327.015 121.152C325.709 120.44 324.708 119.764 324.77 119.65C324.832 119.537 325.947 120.006 327.257 120.682C328.568 121.358 329.574 122.055 329.502 122.189C329.43 122.323 328.315 121.869 327.015 121.152Z" fill="#263238"/>
<path d="M320.591 129.841C319.528 128.809 318.739 127.891 318.832 127.777C318.925 127.664 319.864 128.432 320.947 129.454C322.031 130.476 322.81 131.389 322.707 131.518C322.604 131.647 321.649 130.878 320.591 129.841Z" fill="#263238"/>
<path d="M312.077 136.497C311.334 135.213 310.818 134.119 310.932 134.052C311.045 133.985 311.757 134.965 312.521 136.234C313.285 137.504 313.801 138.598 313.672 138.68C313.543 138.763 312.825 137.772 312.077 136.497Z" fill="#263238"/>
<path d="M302.092 140.62C301.721 139.181 301.519 137.989 301.648 137.958C301.777 137.927 302.195 139.057 302.593 140.486C302.99 141.915 303.186 143.107 303.036 143.149C302.887 143.19 302.464 142.055 302.092 140.62Z" fill="#263238"/>
<path d="M291.365 141.9C291.365 140.414 291.515 139.212 291.644 139.212C291.773 139.212 291.881 140.419 291.881 141.9C291.881 143.381 291.752 144.588 291.602 144.588C291.453 144.588 291.339 143.391 291.365 141.9Z" fill="#263238"/>
<path d="M280.704 140.285C281.127 138.861 281.571 137.741 281.7 137.777C281.829 137.813 281.602 139 281.184 140.429C280.766 141.859 280.337 143.009 280.188 142.937C280.038 142.865 280.255 141.709 280.704 140.285Z" fill="#263238"/>
<path d="M270.833 135.842C271.623 134.588 272.35 133.623 272.464 133.69C272.577 133.758 272.041 134.846 271.272 136.116C270.503 137.385 269.77 138.345 269.641 138.267C269.512 138.19 270.044 137.101 270.833 135.842Z" fill="#263238"/>
<path d="M262.531 128.928C263.63 127.927 264.595 127.194 264.678 127.292C264.76 127.39 263.965 128.288 262.882 129.304C261.798 130.321 260.844 131.054 260.735 130.945C260.627 130.837 261.437 129.929 262.531 128.928Z" fill="#263238"/>
<path d="M256.379 120.042C257.706 119.377 258.83 118.928 258.887 119.041C258.944 119.155 257.933 119.81 256.617 120.501C255.301 121.193 254.181 121.642 254.109 121.502C254.037 121.363 255.059 120.713 256.379 120.042Z" fill="#263238"/>
<path d="M252.84 109.836C254.301 109.547 255.503 109.418 255.529 109.547C255.555 109.676 254.399 110.032 252.949 110.341C251.499 110.651 250.291 110.78 250.26 110.63C250.229 110.481 251.396 110.125 252.84 109.836Z" fill="#263238"/>
<path d="M252.185 99.0719C253.666 99.1803 254.858 99.3764 254.853 99.5054C254.848 99.6344 253.635 99.6705 252.154 99.5828C250.673 99.4951 249.476 99.3041 249.486 99.1493C249.497 98.9945 250.704 98.9378 252.185 99.0719Z" fill="#263238"/>
<path d="M254.429 88.4785C255.828 88.9945 256.922 89.5105 256.88 89.6188C256.839 89.7272 255.663 89.4486 254.259 88.9635C252.856 88.4785 251.762 87.9728 251.808 87.8283C251.855 87.6838 253.036 87.9728 254.429 88.4785Z" fill="#263238"/>
<path d="M259.439 78.9067C260.647 79.7684 261.565 80.5527 261.503 80.6611C261.441 80.7695 260.378 80.1709 259.155 79.3298C257.933 78.4887 257.014 77.7044 257.091 77.5754C257.169 77.4464 258.227 78.045 259.439 78.9067Z" fill="#263238"/>
<path d="M266.824 71.0222C267.758 72.1729 268.434 73.1739 268.336 73.2616C268.238 73.3493 267.376 72.4876 266.427 71.3473C265.477 70.2069 264.796 69.211 264.915 69.113C265.033 69.015 265.89 69.8715 266.824 71.0222Z" fill="#263238"/>
<path d="M276.06 65.3978C276.648 66.76 277.035 67.9056 276.911 67.9778C276.787 68.0501 276.199 66.9768 275.59 65.6248C274.981 64.2729 274.594 63.1274 274.733 63.0448C274.873 62.9623 275.456 64.0407 276.06 65.3978Z" fill="#263238"/>
<path d="M286.452 62.4721C286.654 63.9427 286.716 65.1501 286.581 65.1708C286.447 65.1914 286.163 64.0149 285.942 62.5495C285.72 61.084 285.658 59.8714 285.807 59.8508C285.957 59.8302 286.251 61.0015 286.452 62.4721Z" fill="#263238"/>
<path d="M297.257 62.4359C297.061 63.9065 296.798 65.0882 296.669 65.0727C296.54 65.0572 296.571 63.8446 296.746 62.374C296.922 60.9034 297.185 59.7166 297.335 59.7373C297.484 59.7579 297.453 60.9602 297.257 62.4359Z" fill="#263238"/>
<path d="M307.676 65.2895C307.093 66.6569 306.52 67.7198 306.396 67.6682C306.272 67.6166 306.639 66.4659 307.201 65.0882C307.764 63.7105 308.342 62.6527 308.481 62.7146C308.62 62.7765 308.264 63.9272 307.676 65.2895Z" fill="#263238"/>
<path d="M316.943 70.8468C316.014 72.0078 315.178 72.8798 315.075 72.7972C314.972 72.7147 315.627 71.6982 316.541 70.5268C317.454 69.3555 318.285 68.4628 318.409 68.5815C318.532 68.7002 317.856 69.6909 316.943 70.8468Z" fill="#263238"/>
<path d="M324.388 78.6797C323.181 79.5465 322.144 80.1657 322.066 80.0574C321.989 79.949 322.892 79.1492 324.084 78.2617C325.276 77.3742 326.313 76.7601 326.406 76.884C326.499 77.0078 325.596 77.8128 324.388 78.6797Z" fill="#263238"/>
<path d="M329.461 88.236C328.068 88.752 326.881 89.0564 326.85 88.9378C326.819 88.8191 327.882 88.2824 329.281 87.751C330.679 87.2195 331.83 86.9047 331.886 87.0492C331.943 87.1937 330.854 87.72 329.461 88.236Z" fill="#263238"/>
<path d="M331.788 98.7727C330.307 98.8914 329.099 98.8811 329.089 98.7727C329.079 98.6644 330.265 98.427 331.741 98.2567C333.217 98.0864 334.43 98.1277 334.44 98.2825C334.45 98.4373 333.253 98.654 331.788 98.7727Z" fill="#263238"/>
<path d="M273.847 51.4452L273.687 51.5174L273.212 51.7084C272.799 51.8838 272.18 52.0954 271.391 52.4411C269.166 53.371 267.006 54.4484 264.925 55.6661C263.604 56.4298 262.206 57.3431 260.735 58.3699C259.265 59.3968 257.763 60.5939 256.262 61.9406C249.669 67.7515 244.633 75.1178 241.612 83.3701C240.905 85.2587 240.374 87.106 239.915 88.8346C239.456 90.5632 239.146 92.2144 238.914 93.7211C238.537 96.1017 238.318 98.5046 238.258 100.914C238.217 101.771 238.258 102.431 238.258 102.88C238.258 103.097 238.258 103.262 238.258 103.396C238.263 103.454 238.263 103.513 238.258 103.572C238.252 103.515 238.252 103.458 238.258 103.401C238.258 103.272 238.258 103.102 238.258 102.885C238.258 102.436 238.202 101.776 238.227 100.919C238.246 98.5007 238.437 96.0865 238.8 93.6953C239.017 92.1782 239.352 90.5322 239.77 88.7829C240.237 86.9236 240.798 85.0894 241.452 83.2876C244.459 74.98 249.524 67.5712 256.174 61.7549C257.686 60.4081 259.223 59.2471 260.679 58.1893C262.134 57.1315 263.568 56.2543 264.905 55.501C267 54.2958 269.178 53.2406 271.422 52.343C272.211 52.0128 272.846 51.827 273.269 51.6568L273.754 51.4916C273.784 51.4739 273.815 51.4584 273.847 51.4452Z" fill="white"/>
<path d="M289.378 48.4317C288.848 48.5419 288.309 48.6126 287.768 48.6433C286.767 48.7465 285.395 48.8961 283.878 49.0922C282.361 49.2883 280.993 49.4947 280.002 49.6495C279.472 49.7586 278.934 49.8276 278.393 49.8559C278.906 49.677 279.434 49.5457 279.972 49.4637C280.957 49.2625 282.324 49.0251 283.842 48.829C285.359 48.633 286.747 48.5091 287.753 48.4524C288.293 48.3946 288.837 48.3877 289.378 48.4317Z" fill="white"/>
<g opacity="0.4">
<path d="M254.646 130.089C254.646 130.089 278.862 168.304 316.427 148.732C355.643 128.298 333.971 81.4609 333.971 81.4609C333.971 81.4609 352.423 118.788 314.198 143.123C304.678 149.186 294.311 149.191 286.406 148.396C266.205 146.374 254.646 130.089 254.646 130.089Z" fill="black"/>
</g>
<path d="M305.018 77.1626C305.251 84.0161 305.044 90.8775 304.399 97.7046C304.162 100.176 303.883 102.674 302.929 104.97C301.974 107.266 300.349 109.371 298.058 110.341C295.767 111.311 292.836 110.909 291.241 109.01L305.018 77.1626Z" fill="#E0E0E0"/>
<path d="M290.978 98.3135L307.959 69.7167L297.711 102.003L292.474 103.566L290.978 98.3135Z" fill="#01B2B8"/>
<g opacity="0.4">
<path d="M307.959 69.7167L295.363 98.9378L297.711 102.003L307.959 69.7167Z" fill="black"/>
</g>
<path d="M292.474 109.031C295.492 109.031 297.939 106.584 297.939 103.566C297.939 100.548 295.492 98.1019 292.474 98.1019C289.456 98.1019 287.01 100.548 287.01 103.566C287.01 106.584 289.456 109.031 292.474 109.031Z" fill="#FAFAFA"/>
<path d="M297.939 103.566C297.89 103.122 297.815 102.681 297.717 102.245C297.4 101.068 296.699 100.031 295.725 99.299C295.009 98.7605 294.17 98.4099 293.284 98.2792C292.398 98.1486 291.493 98.2419 290.653 98.5508C290.169 98.7221 289.714 98.9675 289.306 99.2784C288.871 99.5938 288.489 99.9771 288.176 100.414C287.505 101.328 287.143 102.432 287.143 103.566C287.143 104.7 287.505 105.805 288.176 106.719C288.802 107.569 289.663 108.218 290.653 108.587C291.359 108.846 292.111 108.954 292.862 108.906C293.612 108.857 294.344 108.652 295.011 108.303C295.677 107.955 296.264 107.471 296.732 106.883C297.201 106.295 297.542 105.615 297.732 104.887C297.832 104.452 297.906 104.011 297.954 103.566C297.986 104.019 297.946 104.473 297.835 104.913C297.553 106.143 296.853 107.238 295.854 108.009C295.169 108.541 294.368 108.903 293.516 109.067C292.537 109.254 291.525 109.176 290.586 108.84C290.075 108.664 289.596 108.408 289.167 108.081C288.71 107.751 288.31 107.351 287.98 106.895C287.269 105.938 286.886 104.778 286.886 103.587C286.886 102.396 287.269 101.236 287.98 100.279C288.311 99.8243 288.711 99.4238 289.167 99.0926C289.599 98.7708 290.077 98.5168 290.586 98.3392C291.524 98.0008 292.537 97.9224 293.516 98.1122C294.557 98.3122 295.518 98.808 296.284 99.5401C297.05 100.272 297.588 101.21 297.835 102.24C297.938 102.674 297.973 103.122 297.939 103.566Z" fill="#263238"/>
<path d="M296.477 104.386C296.922 102.184 295.498 100.039 293.297 99.5944C291.096 99.1493 288.951 100.573 288.506 102.774C288.061 104.975 289.485 107.12 291.686 107.565C293.887 108.01 296.032 106.587 296.477 104.386Z" fill="#455A64"/>
<path d="M249.393 234.723H276.276L263.743 126.704L249.393 234.723Z" fill="#E0E0E0"/>
<path d="M117.111 126.704L99.6084 235.998L248.965 237.943L263.743 126.704H117.111Z" fill="#FAFAFA"/>
<path d="M257.092 176.771H109.093L112.313 156.647H259.765L257.092 176.771Z" fill="#EBEBEB"/>
<path d="M257.102 176.787H109.077L112.302 156.663H259.78L257.102 176.787ZM109.108 176.761H257.081L259.749 156.637H112.328L109.108 176.761Z" fill="#263238"/>
<path d="M117.111 126.704L112.312 156.647H259.765L263.743 126.704H117.111Z" fill="#01B2B8"/>
<path d="M117.132 126.704L263.764 126.58H263.903V126.719C259.584 159.284 254.682 196.214 249.501 235.219V235.337H247.706L99.7324 235.296H99.5879V235.167L117.132 126.704C116.987 127.602 110.321 169.506 99.8614 235.219L99.753 235.09H247.67H249.347L249.218 235.203C254.403 196.199 259.316 159.274 263.666 126.709L263.784 126.843L117.132 126.704Z" fill="#263238"/>
<path d="M259.765 156.647C259.765 156.72 226.741 156.781 186.044 156.781C145.347 156.781 112.312 156.72 112.312 156.647C112.312 156.575 145.336 156.513 186.044 156.513C226.751 156.513 259.765 156.57 259.765 156.647Z" fill="#263238"/>
<path d="M257.092 176.771C257.092 176.849 223.892 176.905 182.953 176.905C142.013 176.905 108.809 176.849 108.809 176.771C108.809 176.694 141.998 176.637 182.953 176.637C223.908 176.637 257.092 176.699 257.092 176.771Z" fill="#263238"/>
<path d="M254.079 195.291C254.079 195.368 220.884 195.425 179.945 195.425C139.006 195.425 105.78 195.368 105.78 195.291C105.78 195.213 138.969 195.156 179.924 195.156C220.879 195.156 254.079 195.218 254.079 195.291Z" fill="#263238"/>
<path d="M251.07 213.81C251.07 213.882 217.871 213.944 176.931 213.944C135.992 213.944 102.787 213.882 102.787 213.81C102.787 213.738 135.976 213.676 176.931 213.676C217.886 213.676 251.07 213.738 251.07 213.81Z" fill="#263238"/>
<path d="M120.574 235.368C120.501 235.368 123.21 217.721 126.632 195.987C130.053 174.253 132.875 156.632 132.947 156.647C133.02 156.663 130.311 174.284 126.895 196.028C123.479 217.773 120.651 235.379 120.574 235.368Z" fill="#263238"/>
<path d="M143.396 235.368C143.319 235.368 146.033 217.721 149.449 195.987C152.865 174.253 155.692 156.632 155.77 156.647C155.847 156.663 153.133 174.284 149.712 196.028C146.291 217.773 143.448 235.379 143.396 235.368Z" fill="#263238"/>
<path d="M164.604 234.579C164.532 234.579 167.215 217.112 170.595 195.595C173.975 174.078 176.787 156.632 176.854 156.647C176.921 156.663 174.243 174.109 170.863 195.636C167.483 217.164 164.671 234.589 164.604 234.579Z" fill="#263238"/>
<path d="M185.58 235.203C185.507 235.203 188.211 217.592 191.622 195.905C195.033 174.217 197.855 156.632 197.927 156.647C198 156.663 195.296 174.248 191.885 195.946C188.474 217.644 185.652 235.213 185.58 235.203Z" fill="#263238"/>
<path d="M206.658 235.203C206.585 235.203 209.289 217.592 212.7 195.905C216.111 174.217 218.933 156.632 219.006 156.647C219.078 156.663 216.379 174.248 212.968 195.946C209.558 217.644 206.735 235.213 206.658 235.203Z" fill="#263238"/>
<path d="M227.721 235.296C227.649 235.296 230.358 217.664 233.774 195.941C237.19 174.217 240.012 156.611 240.09 156.627C240.167 156.642 237.453 174.253 234.037 195.982C230.621 217.711 227.793 235.327 227.721 235.296Z" fill="#263238"/>
<g opacity="0.2">
<path d="M214.46 158.051C216.999 156.926 218.588 154.284 219.243 151.585C219.899 148.887 219.796 146.069 219.894 143.288C219.992 140.507 220.322 137.643 221.741 135.254C222.582 133.845 223.764 132.674 224.698 131.317C225.631 129.96 226.323 128.309 225.977 126.673L210.095 126.755L214.46 158.051Z" fill="black"/>
</g>
<path d="M142.524 213.5C142.524 213.5 142.689 226.178 139.49 233.769L119.99 230.446C119.99 230.446 125.862 218.433 124.263 211.756L142.524 213.5Z" fill="#EBEBEB"/>
<path d="M234.78 177.901C234.78 177.901 236.777 190.254 234.754 198.134L215.229 197.716C215.229 197.716 219.222 185.136 216.689 178.846L234.78 177.901Z" fill="#EBEBEB"/>
<path d="M238.908 142.282C235.265 142.282 231.596 139.996 229.666 136.399C227.79 132.818 227.209 128.699 228.02 124.738C229.088 119.578 232.504 115.347 236.725 113.995C240.311 112.844 246.72 113.479 249.744 118.541C251.184 121.016 251.899 123.847 251.808 126.709C251.794 126.912 251.741 127.111 251.65 127.294C251.56 127.476 251.435 127.639 251.281 127.773C251.128 127.908 250.95 128.01 250.757 128.075C250.564 128.141 250.36 128.167 250.156 128.154C249.746 128.126 249.363 127.937 249.092 127.627C248.821 127.318 248.684 126.913 248.712 126.503C248.74 124.268 248.166 122.067 247.05 120.13C244.718 116.234 239.604 116.312 237.633 116.941C234.021 118.097 231.709 122.003 231.013 125.362C230.344 128.614 230.82 131.998 232.36 134.939C233.882 137.777 236.962 139.542 239.692 139.124C240.095 139.068 240.504 139.173 240.83 139.416C241.156 139.659 241.374 140.02 241.436 140.422C241.497 140.824 241.398 141.235 241.16 141.564C240.921 141.894 240.563 142.116 240.162 142.184C239.747 142.248 239.328 142.281 238.908 142.282Z" fill="#263238"/>
<path d="M138.969 142.282C135.321 142.282 131.657 139.996 129.727 136.399C127.85 132.819 127.266 128.699 128.076 124.738C128.979 120.383 132.034 115.367 136.848 113.984C139.169 113.356 141.63 113.48 143.876 114.34L142.762 117.23C141.145 116.616 139.378 116.52 137.705 116.957C134.155 117.989 131.843 121.921 131.131 125.362C130.462 128.614 130.938 131.998 132.478 134.939C134 137.782 137.086 139.542 139.81 139.124L140.28 142.184C139.846 142.251 139.408 142.284 138.969 142.282Z" fill="#263238"/>
<path d="M237.633 126.786L236.209 134.583H257.164L259.027 126.864L237.633 126.786Z" fill="#01B2B8"/>
<path d="M144.279 141.049C144.28 141.708 144.085 142.354 143.719 142.902C143.354 143.451 142.833 143.879 142.224 144.132C141.614 144.385 140.944 144.452 140.297 144.323C139.65 144.195 139.055 143.877 138.589 143.411C138.122 142.944 137.805 142.35 137.676 141.703C137.548 141.056 137.614 140.385 137.867 139.776C138.12 139.166 138.548 138.646 139.097 138.28C139.646 137.914 140.291 137.719 140.951 137.72C141.833 137.722 142.679 138.073 143.303 138.697C143.927 139.321 144.278 140.166 144.279 141.049Z" fill="#263238"/>
<path d="M244.13 141.049C244.131 141.708 243.936 142.354 243.57 142.902C243.204 143.451 242.684 143.879 242.074 144.132C241.465 144.385 240.794 144.452 240.147 144.323C239.5 144.195 238.906 143.877 238.439 143.411C237.973 142.944 237.655 142.35 237.527 141.703C237.398 141.056 237.465 140.385 237.718 139.776C237.971 139.166 238.399 138.646 238.948 138.28C239.497 137.914 240.142 137.719 240.801 137.72C241.684 137.722 242.529 138.073 243.153 138.697C243.777 139.321 244.128 140.166 244.13 141.049Z" fill="#263238"/>
<path d="M189.141 76.5331L183.661 97.3176L164.744 99.3506V102.705L191.323 103.639L196.318 80.3205L189.141 76.5331Z" fill="#FFBE9D"/>
<path d="M197.112 104.191C197.112 104.191 167.556 102.782 159.14 109.351C150.724 115.919 154.8 126.704 154.8 126.704L202.365 126.58L206.566 102.467L197.112 104.191Z" fill="#263238"/>
<path d="M202.143 120.099C202 120.103 201.857 120.092 201.715 120.068C201.436 120.037 201.029 119.996 200.503 119.929C199.471 119.8 197.923 119.583 196.065 119.268C191.188 118.439 186.364 117.324 181.617 115.93C178.841 115.109 176.214 114.284 173.789 113.68C171.648 113.126 169.459 112.78 167.251 112.648C165.762 112.565 164.268 112.651 162.798 112.906C162.282 112.968 161.885 113.102 161.606 113.148C161.469 113.182 161.329 113.208 161.188 113.226C161.32 113.169 161.456 113.126 161.596 113.097C161.984 112.976 162.379 112.878 162.778 112.803C164.251 112.505 165.755 112.389 167.257 112.457C169.496 112.564 171.719 112.894 173.892 113.443C176.333 114.031 178.965 114.856 181.73 115.677C186.451 117.059 191.241 118.194 196.08 119.077C197.943 119.418 199.455 119.66 200.503 119.826L201.71 120.016C201.856 120.032 202.001 120.059 202.143 120.099Z" fill="#455A64"/>
<path d="M174.671 113.52C173.85 112.843 172.975 112.234 172.055 111.699C171.091 111.247 170.092 110.875 169.067 110.584C169.385 110.556 169.705 110.588 170.012 110.677C170.766 110.839 171.495 111.103 172.179 111.461C172.862 111.821 173.493 112.271 174.057 112.798C174.305 112.998 174.513 113.243 174.671 113.52Z" fill="#455A64"/>
<path d="M200.244 168.438L200.642 180.858L198.144 190.776C198.104 190.945 198.098 191.122 198.129 191.294C198.16 191.466 198.226 191.629 198.323 191.775C198.419 191.92 198.545 192.044 198.692 192.138C198.839 192.232 199.004 192.296 199.176 192.324C199.376 192.36 199.581 192.348 199.775 192.289C199.969 192.229 200.146 192.125 200.291 191.983C202.169 190.146 209.063 183.355 208.975 182.452C208.882 181.42 209.424 169.315 209.424 169.315L200.244 168.438Z" fill="#01B2B8"/>
<g opacity="0.6">
<path d="M199.13 192.344L208.934 181.632V182.148C208.94 182.604 208.782 183.047 208.49 183.397C207.711 184.331 205.497 186.864 200.291 191.993C200.142 192.14 199.959 192.249 199.758 192.308C199.558 192.367 199.345 192.376 199.14 192.334L199.13 192.344Z" fill="white"/>
</g>
<g opacity="0.6">
<path d="M206.334 177.643C206.176 177.758 206.068 177.929 206.031 178.12C205.994 178.311 206.03 178.51 206.132 178.675C206.241 178.83 206.405 178.937 206.59 178.976C206.775 179.014 206.967 178.98 207.128 178.882C207.29 178.762 207.401 178.586 207.439 178.388C207.477 178.19 207.44 177.985 207.335 177.814C207.206 177.662 207.024 177.567 206.827 177.548C206.629 177.529 206.432 177.587 206.277 177.71" fill="white"/>
</g>
<path d="M201.921 186.885C201.849 186.921 201.56 186.276 200.822 185.93C200.366 185.751 199.878 185.663 199.388 185.672C199.388 185.641 199.532 185.543 199.821 185.497C200.204 185.45 200.592 185.515 200.94 185.682C201.287 185.849 201.58 186.113 201.782 186.441C201.926 186.694 201.947 186.875 201.921 186.885Z" fill="#263238"/>
<path d="M201.05 188.562C200.693 188.367 200.324 188.195 199.945 188.046C199.542 187.975 199.136 187.927 198.728 187.901C198.917 187.779 199.133 187.705 199.358 187.684C199.583 187.664 199.809 187.697 200.018 187.783C200.75 187.979 201.111 188.526 201.05 188.562Z" fill="#263238"/>
<path d="M203.547 184.728C203.02 184.38 202.468 184.072 201.896 183.804C201.292 183.62 200.674 183.482 200.049 183.392C200.699 183.255 201.374 183.309 201.994 183.546C202.615 183.783 203.154 184.193 203.547 184.728Z" fill="#263238"/>
<path d="M203.743 180.951C203.712 181.028 203.02 180.744 202.128 180.724C201.235 180.703 200.528 180.92 200.497 180.843C200.998 180.567 201.564 180.431 202.135 180.45C202.706 180.469 203.262 180.642 203.743 180.951Z" fill="#263238"/>
<path d="M203.717 177.303C203.174 177.132 202.61 177.036 202.04 177.019C201.476 177.085 200.924 177.229 200.399 177.447C200.399 177.421 200.513 177.261 200.797 177.096C201.177 176.882 201.602 176.76 202.038 176.741C202.473 176.722 202.908 176.807 203.304 176.988C203.588 177.127 203.738 177.272 203.717 177.303Z" fill="#263238"/>
<path d="M202.055 176.322C202.023 176.167 202.023 176.008 202.055 175.853C202.094 175.421 202.218 175.002 202.422 174.62C202.542 174.325 202.759 174.08 203.036 173.923C203.132 173.88 203.238 173.867 203.342 173.887C203.445 173.906 203.54 173.957 203.614 174.031C203.746 174.186 203.818 174.384 203.815 174.589C203.79 175.005 203.623 175.399 203.341 175.706C203.059 176.012 202.679 176.212 202.267 176.271C201.855 176.317 201.439 176.239 201.072 176.048C200.704 175.857 200.402 175.561 200.203 175.197C200.153 175.106 200.123 175.004 200.116 174.9C200.109 174.796 200.124 174.691 200.162 174.594C200.21 174.501 200.285 174.426 200.377 174.377C200.469 174.328 200.574 174.308 200.678 174.32C200.984 174.386 201.269 174.53 201.503 174.738C201.842 175.006 202.132 175.331 202.36 175.698C202.451 175.828 202.517 175.973 202.556 176.126C202.228 175.66 201.833 175.245 201.384 174.893C201.175 174.721 200.927 174.603 200.662 174.547C200.605 174.538 200.546 174.546 200.494 174.572C200.442 174.598 200.4 174.64 200.373 174.692C200.355 174.758 200.35 174.827 200.359 174.896C200.368 174.964 200.39 175.03 200.425 175.089C200.606 175.397 200.871 175.646 201.189 175.807C201.508 175.968 201.866 176.034 202.22 175.997C202.572 175.952 202.898 175.788 203.143 175.531C203.388 175.275 203.538 174.942 203.567 174.589C203.574 174.447 203.53 174.308 203.443 174.196C203.404 174.152 203.352 174.122 203.294 174.11C203.237 174.098 203.177 174.105 203.123 174.129C202.897 174.268 202.717 174.471 202.607 174.712C202.333 175.214 202.146 175.758 202.055 176.322Z" fill="#263238"/>
<path d="M206.54 102.467C206.54 102.467 193.758 126.632 193.583 130.847C193.407 135.063 193.583 173.923 193.583 173.923H213.366C213.882 173.923 216.849 156.415 216.246 152.385C215.642 148.355 213.511 126.693 213.511 126.693H224.894C224.894 126.693 228.016 123.355 227.902 119.119C227.835 116.781 226.308 112.003 224.806 109.469C223.831 107.844 217.582 99.3351 217.582 99.3351L206.54 102.467Z" fill="#263238"/>
<path d="M205.683 104.103C205.669 104.151 205.65 104.198 205.626 104.242C205.58 104.345 205.518 104.474 205.441 104.634L204.698 106.141C204.362 106.796 203.965 107.591 203.501 108.515L202.757 109.996L201.978 111.683L198.144 119.985C197.417 121.533 196.653 123.19 195.859 124.887L194.656 127.467C194.268 128.36 193.974 129.29 193.779 130.244C193.583 131.2 193.481 132.173 193.475 133.149C193.444 134.114 193.423 135.068 193.408 136.002C193.408 137.88 193.371 139.686 193.377 141.41C193.377 144.857 193.418 147.963 193.454 150.569C193.49 153.175 193.521 155.264 193.547 156.761C193.547 157.473 193.547 158.035 193.547 158.438C193.547 158.618 193.547 158.763 193.547 158.876C193.547 158.99 193.547 159.026 193.547 159.026C193.538 158.976 193.538 158.926 193.547 158.876C193.547 158.763 193.547 158.618 193.547 158.443C193.547 158.035 193.506 157.478 193.475 156.761C193.423 155.306 193.356 153.195 193.299 150.569C193.242 147.942 193.181 144.862 193.165 141.41C193.165 139.686 193.165 137.875 193.165 136.002C193.165 135.063 193.196 134.108 193.232 133.138C193.237 132.147 193.339 131.158 193.537 130.187C193.736 129.215 194.037 128.268 194.434 127.359L195.642 124.779L197.943 119.887L201.854 111.606L202.649 109.923C202.923 109.407 203.165 108.891 203.413 108.453L204.646 106.1C204.981 105.465 205.25 104.97 205.436 104.614C205.523 104.459 205.595 104.335 205.647 104.232C205.699 104.129 205.678 104.098 205.683 104.103Z" fill="#455A64"/>
<path d="M201.545 112.333C201.135 111.351 200.79 110.343 200.513 109.315C200.151 108.314 199.856 107.29 199.631 106.25C200.112 107.203 200.492 108.205 200.766 109.237C201.131 110.24 201.392 111.277 201.545 112.333Z" fill="#455A64"/>
<path d="M216.287 151.627C216.254 151.539 216.233 151.447 216.225 151.353C216.201 151.143 216.165 150.88 216.117 150.564C216.024 149.836 215.905 148.845 215.755 147.643C215.472 145.146 215.09 141.756 214.667 138.009C214.243 134.263 213.898 130.832 213.686 128.36C213.588 127.153 213.506 126.162 213.444 125.434C213.444 125.109 213.402 124.846 213.387 124.635C213.38 124.542 213.38 124.449 213.387 124.356C213.419 124.444 213.439 124.536 213.444 124.629C213.469 124.841 213.506 125.104 213.547 125.424C213.629 126.152 213.743 127.137 213.877 128.345C214.151 130.842 214.522 134.237 214.909 137.984C215.296 141.73 215.662 145.12 215.941 147.622C216.055 148.83 216.153 149.821 216.22 150.548C216.246 150.868 216.266 151.136 216.282 151.348C216.291 151.441 216.293 151.534 216.287 151.627Z" fill="#455A64"/>
<path d="M211.261 37.7506C210.956 35.6866 212.726 33.6999 214.77 33.4574C216.813 33.2149 218.872 34.4894 219.811 36.3522C220.248 37.289 220.487 38.3058 220.514 39.3392C220.541 40.3726 220.354 41.4004 219.966 42.3584C219.45 43.6639 218.495 44.9849 217.107 45.0881C215.719 45.1913 214.656 44.1335 213.738 43.1582" fill="#263238"/>
<path d="M196.735 47.988C192.607 38.9425 202.411 34.3966 207.742 35.9033C212.757 37.3223 214.898 39.8197 215.724 43.1737C216.628 46.5387 216.448 50.1032 215.208 53.3596C214.558 54.9385 213.392 56.5381 211.699 56.7342" fill="#263238"/>
<path d="M210.941 40.924C211.366 40.968 211.758 41.1703 212.04 41.4906C212.322 41.811 212.473 42.2258 212.463 42.6526L211.499 65.6765C211.462 68.3958 207.494 69.9335 204.579 69.8716C201.643 69.8096 201.545 68.3648 201.483 65.7797C201.416 61.4608 201.416 59.8354 201.416 59.8612C201.416 59.887 197.701 59.242 196.932 54.3967C196.545 51.987 196.669 48.0344 196.87 44.8043C197.056 41.8992 198.98 38.3285 201.88 38.6123L210.941 40.924Z" fill="#FFBE9D"/>
<path d="M198.769 47.5597C198.766 47.7222 198.827 47.8792 198.939 47.997C199.051 48.1148 199.205 48.1838 199.367 48.1892C199.446 48.1955 199.526 48.1859 199.601 48.1608C199.677 48.1358 199.746 48.0958 199.806 48.0434C199.866 47.9909 199.914 47.927 199.949 47.8554C199.983 47.7839 200.003 47.7061 200.007 47.6268C200.009 47.4647 199.947 47.3083 199.835 47.1908C199.723 47.0734 199.57 47.0039 199.408 46.9972C199.329 46.9909 199.25 47.0006 199.174 47.0256C199.099 47.0507 199.029 47.0906 198.97 47.1431C198.91 47.1955 198.861 47.2594 198.827 47.331C198.792 47.4026 198.773 47.4803 198.769 47.5597Z" fill="#263238"/>
<path d="M197.742 46.8631C197.82 46.9405 198.294 46.5948 198.96 46.5948C199.626 46.5948 200.121 46.9302 200.193 46.8476C200.266 46.7651 200.152 46.667 199.935 46.5122C199.646 46.3122 199.302 46.2059 198.95 46.2078C198.602 46.2044 198.263 46.315 197.985 46.5225C197.778 46.6773 197.706 46.827 197.742 46.8631Z" fill="#263238"/>
<path d="M205.307 47.5597C205.305 47.7185 205.364 47.8719 205.471 47.9889C205.578 48.1058 205.726 48.1775 205.885 48.1893C205.964 48.1956 206.043 48.1859 206.119 48.1609C206.194 48.1358 206.264 48.0959 206.324 48.0434C206.383 47.991 206.432 47.9271 206.466 47.8555C206.501 47.7839 206.521 47.7062 206.524 47.6268C206.526 47.4647 206.464 47.3084 206.353 47.1909C206.241 47.0734 206.088 47.004 205.926 46.9973C205.769 46.9903 205.616 47.0455 205.5 47.1509C205.384 47.2562 205.315 47.4032 205.307 47.5597Z" fill="#263238"/>
<path d="M204.337 46.987C204.414 47.0644 204.884 46.7187 205.549 46.7187C206.215 46.7187 206.71 47.0541 206.783 46.9767C206.855 46.8993 206.741 46.7909 206.525 46.6361C206.235 46.4352 205.891 46.3288 205.539 46.3317C205.192 46.3316 204.854 46.4418 204.574 46.6464C204.337 46.8012 204.28 46.956 204.337 46.987Z" fill="#263238"/>
<path d="M201.891 51.9457C201.539 51.8372 201.175 51.7714 200.807 51.7496C200.637 51.7496 200.472 51.698 200.446 51.5845C200.43 51.4049 200.47 51.2247 200.56 51.0685C200.72 50.6557 200.885 50.2223 201.076 49.7682C201.543 48.6665 201.923 47.5295 202.211 46.3677C201.652 47.4283 201.181 48.5328 200.802 49.6701L200.317 50.9808C200.21 51.1873 200.179 51.4246 200.229 51.6516C200.255 51.7116 200.294 51.765 200.343 51.8079C200.392 51.8507 200.45 51.882 200.513 51.8993C200.607 51.9242 200.704 51.9381 200.802 51.9405C201.163 51.9873 201.529 51.989 201.891 51.9457Z" fill="#263238"/>
<path d="M201.432 59.856C203.723 59.8977 205.98 59.299 207.949 58.1274C207.949 58.1274 206.37 61.4607 201.519 61.0067L201.432 59.856Z" fill="#EB996E"/>
<path d="M202.174 53.5556C202.302 53.3966 202.468 53.2725 202.656 53.1949C202.845 53.1173 203.05 53.0887 203.253 53.1118C203.401 53.1243 203.545 53.1668 203.676 53.2369C203.808 53.307 203.923 53.4032 204.016 53.5195C204.105 53.6308 204.158 53.7666 204.167 53.9087C204.176 54.0508 204.142 54.1923 204.068 54.3141C203.961 54.4348 203.82 54.5204 203.663 54.56C203.507 54.5995 203.342 54.5912 203.191 54.536C202.873 54.4242 202.581 54.2486 202.334 54.02C202.259 53.9667 202.195 53.9003 202.143 53.8239C202.119 53.7871 202.106 53.7441 202.106 53.7001C202.106 53.6561 202.119 53.6131 202.143 53.5762" fill="#EB996E"/>
<path d="M203.862 52.4101C203.753 52.4101 203.748 53.1273 203.129 53.6433C202.51 54.1593 201.736 54.0768 201.731 54.1593C201.725 54.2419 201.901 54.2986 202.247 54.309C202.673 54.3138 203.087 54.1696 203.418 53.9013C203.732 53.6427 203.935 53.2733 203.985 52.8693C203.991 52.5855 203.908 52.4049 203.862 52.4101Z" fill="#263238"/>
<path d="M204.017 45.8156C204.084 45.9962 204.754 45.9085 205.539 46.0065C206.323 46.1046 206.958 46.311 207.061 46.151C207.107 46.0736 206.994 45.9033 206.741 45.7227C206.401 45.504 206.014 45.3696 205.611 45.3306C205.21 45.2805 204.803 45.3283 204.424 45.4699C204.135 45.5834 203.991 45.7279 204.017 45.8156Z" fill="#263238"/>
<path d="M197.989 44.9229C198.108 45.0777 198.567 44.9229 199.125 44.9229C199.682 44.9229 200.157 45.0261 200.255 44.8662C200.301 44.7888 200.255 44.634 200.022 44.4946C199.75 44.3159 199.429 44.2274 199.104 44.2418C198.779 44.2485 198.464 44.3548 198.201 44.5462C198.005 44.6959 197.938 44.8507 197.989 44.9229Z" fill="#263238"/>
<path d="M204.3 37.023C202.656 37.1069 201.059 37.6038 199.656 38.4678C198.87 38.8752 198.172 39.4335 197.602 40.1109C197.032 40.7882 196.601 41.5712 196.333 42.4152C196.266 42.5908 196.234 42.7783 196.241 42.9664C196.248 43.1545 196.294 43.3392 196.375 43.5091C196.528 43.7035 196.745 43.8382 196.987 43.89C197.229 43.9418 197.481 43.9075 197.701 43.7929C198.138 43.5551 198.511 43.213 198.784 42.797C198.894 43.252 199.154 43.6563 199.523 43.9439C199.892 44.2314 200.348 44.3851 200.815 44.3797C201.283 44.3743 201.735 44.2101 202.097 43.9142C202.46 43.6182 202.711 43.2079 202.809 42.7506C202.846 43.2155 203.061 43.6482 203.409 43.9586C203.757 44.2691 204.211 44.4334 204.677 44.4173C205.142 44.377 205.585 44.2017 205.952 43.913C206.319 43.6242 206.593 43.2345 206.741 42.7919C206.855 43.6309 207.145 44.4364 207.593 45.1552C207.822 45.5119 208.155 45.7895 208.547 45.9502C208.94 46.1108 209.372 46.1467 209.786 46.053C209.612 46.7664 209.623 47.5121 209.817 48.2202C210.075 48.9013 211.101 60.5578 211.793 60.3204C212.484 60.083 212.458 48.1944 212.613 47.503C212.957 46.1766 213.13 44.8121 213.129 43.442C213.175 42.0307 212.718 40.6489 211.839 39.5438C210.96 38.4387 209.716 37.6824 208.33 37.41C206.947 37.0927 205.527 36.9625 204.11 37.023" fill="#263238"/>
<path d="M214.011 58.2512C214.011 58.2512 213.965 58.2822 213.862 58.3183C213.717 58.3714 213.566 58.4077 213.413 58.4267C212.695 58.5178 211.967 58.4032 211.312 58.0962C210.657 57.7893 210.102 57.3026 209.713 56.6929C209.186 55.7743 208.963 54.7119 209.078 53.6588C209.156 52.5494 209.414 51.5381 209.533 50.6093C209.649 49.7847 209.722 48.9545 209.749 48.1221C209.749 47.4101 209.749 46.8373 209.749 46.4348C209.727 46.229 209.727 46.0214 209.749 45.8156C209.811 46.0186 209.847 46.2282 209.858 46.44C209.914 47.0041 209.942 47.5707 209.94 48.1376C209.939 48.9778 209.886 49.817 209.78 50.6505C209.667 51.6 209.424 52.6165 209.347 53.6846C209.236 54.6844 209.438 55.6938 209.925 56.5742C210.349 57.2752 211.001 57.809 211.772 58.0861C212.29 58.2837 212.844 58.3681 213.397 58.3338C213.795 58.308 214.006 58.2254 214.011 58.2512Z" fill="#263238"/>
<path d="M202.592 36.3986C202.78 36.7519 202.867 37.1499 202.845 37.5493C202.863 38.5271 202.493 39.4722 201.816 40.1781C201.139 40.8839 200.211 41.2931 199.233 41.3161C198.836 41.3542 198.436 41.2828 198.077 41.1097C198.077 41.0633 198.521 41.1871 199.223 41.1097C200.14 41.0474 201.001 40.6464 201.639 39.9846C202.277 39.3228 202.646 38.4475 202.675 37.5287C202.69 36.8424 202.546 36.4089 202.592 36.3986Z" fill="#455A64"/>
<path d="M203.304 42.1056C203.33 42.1056 203.268 42.4359 202.897 42.7971C202.65 43.0189 202.361 43.1885 202.047 43.2958C201.733 43.4031 201.401 43.4458 201.07 43.4214C200.422 43.3635 199.797 43.1493 199.249 42.7971C198.831 42.5339 198.604 42.3327 198.624 42.2811C198.874 42.3597 199.113 42.4689 199.336 42.6061C199.881 42.8891 200.475 43.0643 201.086 43.1221C201.692 43.1579 202.291 42.9748 202.773 42.6061C203.15 42.3688 203.274 42.085 203.304 42.1056Z" fill="#455A64"/>
<path d="M214.992 40.6247C215.026 41.0689 214.995 41.5157 214.899 41.9508C214.753 43.0286 214.345 44.0543 213.712 44.9385C213.381 45.3769 212.964 45.7431 212.487 46.0147C212.01 46.2862 211.482 46.4573 210.936 46.5174C210.604 46.5473 210.27 46.514 209.95 46.4194C209.728 46.3523 209.62 46.2852 209.625 46.2697C210.051 46.3459 210.485 46.365 210.915 46.3265C211.942 46.1599 212.865 45.6058 213.495 44.7785C214.1 43.9236 214.513 42.9487 214.708 41.9199C214.776 41.4827 214.87 41.0501 214.992 40.6247Z" fill="#455A64"/>
<path d="M215.88 42.9725C215.927 43.1051 215.953 43.2445 215.957 43.3853C215.992 43.7609 216 44.1385 215.983 44.5153C215.956 45.785 215.501 47.0085 214.693 47.988C214.236 48.5265 213.643 48.9313 212.974 49.1593C212.427 49.3385 211.842 49.3741 211.277 49.2625C210.897 49.19 210.537 49.0388 210.219 48.8188C210.002 48.6588 209.909 48.5401 209.92 48.5298C210.343 48.7991 210.814 48.9848 211.308 49.0768C211.84 49.1533 212.383 49.102 212.892 48.9271C213.512 48.6984 214.062 48.3147 214.491 47.8126C215.258 46.8694 215.714 45.7123 215.797 44.4998C215.88 43.5659 215.833 42.9776 215.88 42.9725Z" fill="#455A64"/>
<path d="M147.865 105.341L138.5 126.761H151.395L160.58 105.171L147.865 105.341Z" fill="#455A64"/>
<path d="M141.055 82.56L151.617 103.334H184.93L183.583 100.62L173.934 100.331L166.065 82.818C165.826 82.2844 165.438 81.8315 164.947 81.5138C164.456 81.196 163.884 81.0272 163.299 81.0275H141.994C141.811 81.0209 141.63 81.063 141.469 81.1495C141.308 81.236 141.172 81.3637 141.077 81.5196C140.981 81.6755 140.929 81.854 140.925 82.0368C140.921 82.2196 140.966 82.4001 141.055 82.56Z" fill="#E0E0E0"/>
<path d="M157.737 91.8738C157.737 92.1258 157.662 92.3723 157.522 92.5818C157.382 92.7914 157.183 92.9548 156.95 93.0513C156.717 93.1477 156.461 93.173 156.213 93.1238C155.966 93.0746 155.739 92.9532 155.561 92.775C155.383 92.5967 155.261 92.3696 155.212 92.1224C155.163 91.8752 155.188 91.6189 155.285 91.386C155.381 91.1531 155.544 90.9541 155.754 90.814C155.964 90.674 156.21 90.5992 156.462 90.5992C156.8 90.6006 157.123 90.7353 157.362 90.974C157.6 91.2128 157.735 91.5362 157.737 91.8738Z" fill="#263238"/>
<path d="M188.48 103.375H147.757V105.362H188.48V103.375Z" fill="#455A64"/>
<path d="M175.936 104.371L188.325 126.781H194.248L195.538 124.217L196.725 121.518L188.48 105.362L175.936 104.371Z" fill="#455A64"/>
<path d="M197.464 65.95C197.464 65.95 190.271 68.4835 188.723 76.5331L196.318 80.3206L197.464 65.95Z" fill="#01B2B8"/>
<path d="M197.464 65.9499C197.464 65.9499 192.433 77.2297 192.623 83.3908C192.691 85.5322 194.094 91.1308 194.094 91.1308L196.71 104.991C196.71 104.991 216.736 102.282 217.18 102.282C217.624 102.282 216.509 90.9037 216.509 90.9037L219.775 69.0408C219.775 69.0408 218.279 66.0635 211.519 65.0315C207.469 64.3968 197.464 65.9499 197.464 65.9499Z" fill="#01B2B8"/>
<path d="M195.565 72.498C195.611 72.5238 195.085 73.3649 194.45 74.82C194.082 75.672 193.772 76.5477 193.521 77.4413C193.22 78.5362 193.001 79.6522 192.866 80.7798C192.747 81.9091 192.711 83.0456 192.758 84.1802C192.804 85.1066 192.913 86.0289 193.083 86.9408C193.372 88.4888 193.702 89.4383 193.65 89.4537C193.542 89.2483 193.456 89.0321 193.392 88.8087C193.3 88.5532 193.221 88.2931 193.155 88.0296C193.072 87.72 192.964 87.3743 192.892 86.9976C192.698 86.0791 192.571 85.1479 192.51 84.2112C192.448 83.0617 192.478 81.9092 192.598 80.7643C192.735 79.6211 192.964 78.4908 193.284 77.3845C193.549 76.4851 193.882 75.6072 194.28 74.7581C194.425 74.4283 194.587 74.1062 194.765 73.7931C194.888 73.5505 195.024 73.3145 195.172 73.0862C195.283 72.8774 195.414 72.6803 195.565 72.498Z" fill="#263238"/>
<path d="M199.898 65.8468L200.187 62.7508C200.219 62.429 200.368 62.1302 200.606 61.9113C200.844 61.6924 201.154 61.5688 201.477 61.564L211.359 61.4143C211.659 61.4108 211.948 61.5213 212.17 61.7234C212.391 61.9256 212.527 62.2043 212.551 62.5031L212.804 65.8416C211.976 67.5949 210.577 69.0144 208.836 69.8664C205.93 71.2751 201.415 71.3215 201.415 71.3215L199.898 65.8468Z" fill="#01B2B8"/>
<path d="M202.484 61.5897C202.514 61.5897 202.37 61.791 202.308 62.1057C202.252 62.5615 202.252 63.0225 202.308 63.4783C202.395 64.1428 202.395 64.8158 202.308 65.4804C202.131 64.8331 202.04 64.165 202.04 63.4938C201.971 63.0159 201.992 62.5294 202.102 62.0593C202.272 61.7032 202.468 61.5639 202.484 61.5897Z" fill="#263238"/>
<path d="M204.853 65.4185C204.68 64.7865 204.597 64.1334 204.605 63.4783C204.567 63.0147 204.567 62.5487 204.605 62.0851C204.657 61.7136 204.806 61.5227 204.837 61.5691C204.868 61.6156 204.791 61.7858 204.796 62.1264C204.801 62.467 204.853 62.952 204.853 63.468C204.939 64.1153 204.939 64.7712 204.853 65.4185Z" fill="#263238"/>
<path d="M207.82 65.3359C207.606 64.7338 207.476 64.1053 207.433 63.468C207.305 62.8366 207.265 62.1907 207.314 61.5485C207.53 62.1553 207.66 62.7892 207.701 63.4319C207.827 64.0582 207.867 64.6988 207.82 65.3359Z" fill="#263238"/>
<path d="M210.379 65.532C210.144 64.8689 210.018 64.1716 210.008 63.468C209.908 62.7665 209.926 62.0534 210.059 61.3575C210.194 62.0375 210.267 62.7284 210.276 63.4215C210.376 64.1203 210.411 64.8268 210.379 65.532Z" fill="#263238"/>
<g opacity="0.3">
<path d="M212.34 77.3536C211.942 80.8263 212.206 86.8119 213.434 90.0885L219.202 80.5579L212.34 77.3536Z" fill="black"/>
</g>
<path d="M219.239 68.3235L219.27 68.3545C220.906 70.0717 222.102 72.1588 222.758 74.4381L223.821 79.2834L212.469 81.0378C211.844 78.9826 211.696 76.812 212.035 74.691C212.593 71.0377 219.239 68.3235 219.239 68.3235Z" fill="#01B2B8"/>
<path d="M223.82 79.2834C223.747 79.3094 223.671 79.3284 223.593 79.3402L222.943 79.4589L220.513 79.8562L212.288 81.1049H212.143V80.9553C212.118 80.269 212.097 79.5569 212.081 78.8242C212.056 76.9201 212.081 75.0987 212.195 73.4423C212.274 71.958 212.728 70.518 213.516 69.2575C214.045 68.4097 214.771 67.7018 215.632 67.1935C215.864 67.0556 216.109 66.9415 216.364 66.853C216.449 66.8139 216.54 66.7878 216.633 66.7756C216.633 66.7756 216.271 66.9149 215.683 67.2916C214.864 67.8162 214.177 68.5224 213.676 69.3556C212.928 70.6081 212.503 72.0264 212.437 73.4836C212.319 75.1245 212.324 76.9408 212.355 78.8448C212.355 79.5672 212.391 80.2845 212.407 80.9656L212.257 80.8366L220.513 79.6756L222.954 79.3608L223.614 79.2834C223.683 79.2745 223.752 79.2745 223.82 79.2834Z" fill="#263238"/>
<path d="M199.842 72.1678C199.264 71.8313 198.733 71.4201 198.263 70.9449C197.733 70.5358 197.261 70.0567 196.859 69.5207C197.967 70.266 198.97 71.1563 199.842 72.1678Z" fill="#FAFAFA"/>
<path d="M198.309 78.1379C197.904 78.5536 197.436 78.902 196.921 79.1699C196.449 79.5123 195.927 79.7803 195.373 79.9645C196.249 79.2118 197.236 78.5992 198.299 78.1482L198.309 78.1379Z" fill="#FAFAFA"/>
<path d="M204.641 79.6085C204.549 78.8752 204.549 78.1333 204.641 77.4C204.645 76.6627 204.735 75.9285 204.909 75.2122C205 75.9438 205 76.6838 204.909 77.4155C204.908 78.1546 204.817 78.8908 204.641 79.6085Z" fill="#FAFAFA"/>
<path d="M210.797 85.5786C210.283 85.0966 209.804 84.5793 209.362 84.0306C208.855 83.5472 208.381 83.03 207.943 82.4826C208.563 82.8419 209.11 83.3125 209.558 83.8706C210.069 84.3622 210.488 84.9405 210.797 85.5786Z" fill="#FAFAFA"/>
<path d="M211.664 73.0966C211.221 73.5572 210.715 73.9533 210.162 74.273C209.656 74.6631 209.098 74.9825 208.506 75.2225C208.95 74.761 209.457 74.3649 210.013 74.046C210.519 73.658 211.074 73.3388 211.664 73.0966Z" fill="#FAFAFA"/>
<path d="M206.101 68.5815C205.611 69.0579 205.059 69.4658 204.46 69.7941C203.911 70.2009 203.311 70.5339 202.675 70.7849C203.165 70.3077 203.717 69.8982 204.316 69.5671C204.867 69.1654 205.467 68.8343 206.101 68.5815Z" fill="#FAFAFA"/>
<path d="M211.117 70.3772C210.779 69.8777 210.514 69.332 210.332 68.757C210.079 68.2103 209.905 67.6299 209.816 67.0336C210.159 67.5326 210.423 68.0806 210.601 68.659C210.858 69.2027 211.032 69.7819 211.117 70.3772Z" fill="#FAFAFA"/>
<path d="M218.016 72.6425C217.191 72.0703 216.475 71.3557 215.9 70.532C216.337 70.7819 216.727 71.1068 217.051 71.4918C217.44 71.8137 217.767 72.2036 218.016 72.6425Z" fill="#FAFAFA"/>
<path d="M215.172 77.6735C215.008 77.1638 214.933 76.6297 214.95 76.0945C214.873 75.5661 214.889 75.0283 214.997 74.5052C215.234 75.5438 215.293 76.6151 215.172 77.6735Z" fill="#FAFAFA"/>
<path d="M220.905 76.6311C220.305 76.7269 219.692 76.7058 219.099 76.5692C218.495 76.5198 217.905 76.357 217.36 76.0894C217.96 76.0957 218.557 76.1683 219.141 76.3061C219.739 76.3513 220.33 76.4602 220.905 76.6311Z" fill="#FAFAFA"/>
<path d="M197.789 87.0286C197.368 86.446 197.021 85.8133 196.757 85.1452C196.411 84.5146 196.144 83.8439 195.962 83.1483C196.383 83.7308 196.729 84.3635 196.994 85.0317C197.341 85.6617 197.608 86.3325 197.789 87.0286Z" fill="#FAFAFA"/>
<path d="M205.369 95.171C204.884 94.7304 204.462 94.2251 204.115 93.6695C203.701 93.1626 203.354 92.6041 203.083 92.0079C203.569 92.4489 203.993 92.9541 204.342 93.5095C204.758 94.0139 205.104 94.5729 205.369 95.171Z" fill="#FAFAFA"/>
<path d="M211.633 91.7551C211.102 92.1013 210.525 92.3722 209.92 92.5601C209.346 92.8309 208.736 93.0169 208.108 93.1122C209.212 92.4934 210.399 92.0364 211.633 91.7551Z" fill="#FAFAFA"/>
<path d="M196.199 98.3496C196.447 97.376 196.865 96.4538 197.432 95.6251C197.345 96.1248 197.17 96.6051 196.916 97.0441C196.756 97.518 196.513 97.9599 196.199 98.3496Z" fill="#FAFAFA"/>
<path d="M191.344 75.0315C191.045 74.6536 190.866 74.1957 190.828 73.7157C190.706 73.2506 190.728 72.7597 190.89 72.3071C190.996 72.7547 191.065 73.2103 191.096 73.6693C191.215 74.1159 191.298 74.5715 191.344 75.0315Z" fill="#FAFAFA"/>
<path d="M199.966 93.1277C199.415 92.9825 198.892 92.7471 198.418 92.4311C197.904 92.1977 197.43 91.8842 197.015 91.5023C197.565 91.6498 198.087 91.885 198.563 92.1989C199.075 92.436 199.548 92.7492 199.966 93.1277Z" fill="#FAFAFA"/>
<path d="M204.945 84.5311C204.099 85.5445 203.116 86.4354 202.024 87.1782C202.416 86.6441 202.878 86.1651 203.397 85.754C203.855 85.2778 204.376 84.8663 204.945 84.5311Z" fill="#FAFAFA"/>
<g opacity="0.3">
<path d="M201.896 84.3712C202.146 86.1699 202.948 87.8466 204.192 89.17C205.482 90.429 207.479 91.0637 209.156 90.4084C209.339 90.358 209.507 90.2641 209.646 90.1347C209.786 90.0054 209.892 89.8444 209.955 89.6653C209.984 89.4453 209.935 89.2222 209.817 89.034C209.7 88.8459 209.521 88.7043 209.31 88.6333C208.892 88.4989 208.454 88.4361 208.015 88.4476C206.764 88.3655 205.554 87.9649 204.501 87.284C203.448 86.6031 202.587 85.6644 201.999 84.5569" fill="black"/>
</g>
<path d="M208.604 88.5301C208.604 88.5301 208.485 88.5714 208.258 88.592C207.939 88.6243 207.618 88.6243 207.299 88.592C206.825 88.5363 206.359 88.4255 205.911 88.2618C204.804 87.864 203.822 87.1824 203.062 86.2855C202.754 85.922 202.489 85.5237 202.273 85.0987C202.121 84.8155 202.001 84.5161 201.917 84.206C201.875 84.0953 201.852 83.9785 201.85 83.8603C201.901 83.8603 202.041 84.3247 202.438 85.0058C202.67 85.4032 202.942 85.7766 203.248 86.1204C203.627 86.5386 204.051 86.9141 204.512 87.2401C204.978 87.5557 205.476 87.8204 205.998 88.0296C206.427 88.198 206.871 88.3225 207.324 88.4011C208.104 88.5146 208.604 88.4785 208.604 88.5301Z" fill="#263238"/>
<path d="M180.198 96.848L187.67 95.976L192.938 99.428L213.062 94.5983L213.537 80.8108L222.479 79.6343V96.3269C222.429 98.3534 221.578 100.277 220.111 101.677C218.645 103.077 216.684 103.838 214.657 103.793L185.162 102.973L183.908 100.465L177.577 100.274L180.198 96.848Z" fill="#FFBE9D"/>
<path d="M212.825 94.5724C212.701 94.6218 212.573 94.6615 212.443 94.6911L211.349 94.9749L207.309 95.976L193.955 99.2113L192.711 99.5106H192.66H192.618L187.355 96.0482H187.427L179.951 96.9151L180.002 96.8841L178.021 99.3971L177.505 100.058C177.447 100.137 177.382 100.209 177.309 100.274C177.357 100.19 177.41 100.109 177.469 100.032L177.985 99.3506L179.904 96.8016H179.935L187.402 95.8676H187.443H187.474L192.747 99.3145H192.654L193.898 99.0152L207.268 95.847L211.328 94.913L212.433 94.6705C212.561 94.6276 212.692 94.5948 212.825 94.5724Z" fill="#EB996E"/>
<path d="M184.279 98.9894C183.315 99.1022 182.344 99.1402 181.374 99.1029H180.858L180.93 99.0771C180.347 99.6137 179.716 100.097 179.047 100.522C179.579 99.9347 180.159 99.3928 180.781 98.9017L180.812 98.8707H181.384C182.351 98.831 183.319 98.8707 184.279 98.9894Z" fill="#EB996E"/>
<path d="M216.535 96.8274C216.15 96.2205 215.651 95.6946 215.064 95.2794C214.442 94.9279 213.756 94.7034 213.047 94.6189C213.256 94.5466 213.479 94.5288 213.697 94.5673C214.224 94.623 214.731 94.7996 215.178 95.0833C215.626 95.367 216.002 95.7502 216.277 96.2031C216.416 96.3849 216.505 96.6003 216.535 96.8274Z" fill="#EB996E"/>
<path d="M87.4887 207.055H53.7939V211.684H87.4887V207.055Z" fill="#263238"/>
<path d="M87.5447 211.746H53.7363V206.999H87.5447V211.746ZM53.8498 211.627H87.4311V207.112H53.8498V211.627Z" fill="#263238"/>
<path d="M56.9209 210.146L61.7661 234.073H79.7126L84.4031 211.689L56.9209 210.146Z" fill="#263238"/>
<path d="M56.9209 231.808L59.5061 235.368H81.3174L84.4031 231.808H56.9209Z" fill="#455A64"/>
<path d="M69.3767 210.843C69.3096 210.843 69.2271 199.759 69.1858 186.075C69.1445 172.39 69.1858 161.307 69.2374 161.307C69.289 161.307 69.387 172.39 69.4283 186.075C69.4696 199.759 69.4438 210.843 69.3767 210.843Z" fill="#263238"/>
<path d="M76.8843 183.103C76.8618 183.191 76.8307 183.278 76.7914 183.361C76.714 183.552 76.6108 183.789 76.4921 184.078C76.4251 184.238 76.3528 184.408 76.2703 184.594C76.1877 184.78 76.1258 185.001 76.0484 185.223L75.7852 185.946C75.6975 186.204 75.6253 186.462 75.5375 186.771C75.1372 188.126 74.8218 189.505 74.5933 190.899C74.3343 192.61 74.1621 194.332 74.0773 196.059C73.9554 199.203 74.0451 202.35 74.3456 205.482C74.4539 206.689 74.5623 207.659 74.6449 208.33C74.6758 208.645 74.7068 208.903 74.7274 209.104C74.7344 209.195 74.7344 209.286 74.7274 209.377C74.6949 209.291 74.6741 209.201 74.6655 209.109C74.6294 208.908 74.5881 208.655 74.5365 208.345C74.4281 207.675 74.2888 206.704 74.1598 205.502C73.8089 202.364 73.6968 199.204 73.8244 196.049C73.9009 194.312 74.0732 192.581 74.3404 190.863C74.5791 189.466 74.9135 188.087 75.3414 186.735C75.4343 186.446 75.5117 186.168 75.6046 185.915L75.8833 185.192L76.1309 184.568C76.2135 184.377 76.2961 184.212 76.3683 184.052L76.714 183.35C76.7573 183.259 76.8147 183.176 76.8843 183.103Z" fill="#263238"/>
<path d="M76.0232 174.14C75.9946 174.264 75.9584 174.386 75.9148 174.506C75.8271 174.759 75.7084 175.105 75.5639 175.538L75.3059 176.281C75.2234 176.56 75.1305 176.859 75.0324 177.179C74.8364 177.819 74.6093 178.546 74.4081 179.367L74.0675 180.652C73.9643 181.101 73.8611 181.57 73.7528 182.05C73.5154 183.015 73.3451 184.062 73.1284 185.146C72.7569 187.344 72.4318 189.79 72.2048 192.344C71.9777 194.898 71.9003 197.37 71.8694 199.604C71.8384 201.839 71.8694 203.851 71.9829 205.538C72.0087 206.385 72.0655 207.143 72.1067 207.814C72.148 208.485 72.1893 209.063 72.2306 209.532C72.2718 210.002 72.2925 210.347 72.3131 210.621C72.32 210.746 72.32 210.872 72.3131 210.998C72.28 210.876 72.2592 210.752 72.2512 210.626C72.2203 210.353 72.179 209.997 72.1222 209.542C72.0655 209.088 72.0087 208.51 71.9571 207.824C71.9055 207.138 71.8384 206.395 71.7971 205.549C71.6836 203.856 71.6372 201.844 71.632 199.604C71.6269 197.365 71.7352 194.904 71.9519 192.329C72.1686 189.754 72.5144 187.313 72.8962 185.105C73.1181 184.006 73.2987 182.958 73.5412 182.009C73.6547 181.524 73.7682 181.054 73.8714 180.605L74.2275 179.326C74.4391 178.505 74.6816 177.778 74.8931 177.138C74.9963 176.818 75.0944 176.524 75.1821 176.245C75.2698 175.966 75.373 175.729 75.4607 175.507L75.8529 174.475C75.8969 174.357 75.954 174.245 76.0232 174.14Z" fill="#263238"/>
<path d="M67.2456 212.804C67.2402 212.761 67.2402 212.717 67.2456 212.675C67.2456 212.577 67.2456 212.453 67.2147 212.293C67.1889 211.942 67.1579 211.452 67.1166 210.827C67.0341 209.532 66.9206 207.695 66.7761 205.425C66.4871 200.868 66.064 194.589 65.2952 187.649C64.903 184.181 64.4489 180.894 63.9742 177.912C63.7265 176.426 63.4995 175.012 63.2363 173.691C62.9732 172.37 62.7203 171.147 62.5139 170.027C62.3075 168.907 62.0444 167.906 61.8431 167.024C61.6419 166.142 61.4613 165.378 61.3271 164.759C61.193 164.14 61.064 163.675 60.9762 163.33C60.9453 163.18 60.9143 163.056 60.8937 162.958C60.8857 162.915 60.8857 162.872 60.8937 162.829C60.9149 162.868 60.9306 162.91 60.9401 162.953L61.0433 163.319C61.1414 163.66 61.2704 164.134 61.4406 164.738C61.6109 165.342 61.8122 166.106 62.0237 166.993C62.2353 167.881 62.4933 168.877 62.7255 169.996C62.9577 171.116 63.2415 172.334 63.4788 173.655C63.7162 174.976 63.9948 176.389 64.2425 177.881C64.7276 180.863 65.1868 184.155 65.579 187.618C66.3478 194.553 66.7451 200.853 66.9928 205.414C67.1166 207.7 67.2044 209.542 67.256 210.822C67.256 211.447 67.2972 211.937 67.3076 212.293C67.3076 212.448 67.3076 212.577 67.3076 212.675C67.2935 212.72 67.2726 212.764 67.2456 212.804Z" fill="#263238"/>
<path d="M69.103 166.668C68.9534 165.12 67.3693 163.913 65.7903 163.897C65.0005 163.932 64.2291 164.146 63.5344 164.523C62.8397 164.901 62.2401 165.431 61.781 166.075C60.8727 167.37 60.2163 168.825 59.846 170.363C58.783 174.062 58.2051 177.948 58.6592 181.771C59.1133 185.595 60.6613 189.357 63.4064 192.055C63.8501 192.499 64.4384 192.938 65.0421 192.803C65.3688 192.708 65.6655 192.53 65.9038 192.287C68.5906 189.827 70.7201 186.821 72.1494 183.47C73.5787 180.12 74.2748 176.502 74.1908 172.86C74.1495 171.41 73.9586 169.893 73.1588 168.686C72.359 167.478 70.4756 166.188 69.1082 166.673" fill="#01B2B8"/>
<path d="M57.3226 154.078L55.1038 158.102C55.0522 158.195 54.9851 158.304 54.8767 158.309C54.7684 158.314 54.6703 158.211 54.6084 158.113L48.7363 149.124L50.0882 148.355L57.3226 154.078Z" fill="#01B2B8"/>
<g opacity="0.2">
<path d="M57.3226 154.078L55.1038 158.102C55.0522 158.195 54.9851 158.304 54.8767 158.309C54.7684 158.314 54.6703 158.211 54.6084 158.113L48.7363 149.124L50.0882 148.355L57.3226 154.078Z" fill="black"/>
</g>
<path d="M69.2377 161.327L49.2066 149.506C49.0926 149.462 48.9883 149.396 48.8997 149.312C48.8112 149.228 48.7401 149.127 48.6906 149.016C48.6132 148.722 48.835 148.433 49.0466 148.211C50.4249 146.782 52.0946 145.668 53.9421 144.942C55.7896 144.216 57.7717 143.897 59.7536 144.005C61.7347 144.148 63.6514 144.771 65.3379 145.82C67.0245 146.869 68.4303 148.313 69.4338 150.027C71.3636 153.479 71.4307 158.051 69.2119 161.327" fill="#01B2B8"/>
<path d="M52.1162 145.734C52.2018 145.71 52.2906 145.7 52.3794 145.703C52.5497 145.703 52.8077 145.662 53.1379 145.667C54.0679 145.654 54.9972 145.727 55.914 145.884C57.2799 146.118 58.6111 146.522 59.8769 147.086C62.0614 148.069 64.0015 149.523 65.5582 151.343C67.1149 153.164 68.2496 155.307 68.8811 157.617C69.1395 158.514 69.3123 159.433 69.3971 160.362C69.4383 160.688 69.428 160.946 69.4383 161.121C69.4472 161.208 69.4472 161.297 69.4383 161.384C69.4383 161.384 69.3919 161.023 69.3093 160.352C69.1951 159.435 69.007 158.53 68.7469 157.643C67.9069 154.702 66.2592 152.055 63.9909 150.003C61.7226 147.951 58.9244 146.575 55.914 146.033C55.0067 145.861 54.0869 145.762 53.1637 145.739C52.4568 145.744 52.1162 145.755 52.1162 145.734Z" fill="#263238"/>
<path d="M66.5234 153.169C66.2005 153.366 65.8537 153.521 65.4914 153.629C64.8515 153.882 63.9434 154.201 62.963 154.521C61.9826 154.841 61.0538 155.089 60.383 155.254C60.027 155.363 59.6602 155.432 59.2891 155.46C59.6191 155.301 59.965 155.176 60.3211 155.089L62.8701 154.289L65.414 153.469C65.773 153.332 66.1446 153.232 66.5234 153.169Z" fill="#263238"/>
<path d="M63.3704 144.697C63.5497 145.427 63.6296 146.179 63.6078 146.931C63.6667 147.681 63.625 148.436 63.4839 149.176C63.3872 148.433 63.3492 147.684 63.3704 146.936C63.3114 146.191 63.3114 145.442 63.3704 144.697Z" fill="#263238"/>
<path d="M49.0205 149.284C49.4892 149.069 49.9761 148.896 50.4756 148.768C51.3838 148.484 52.6531 148.128 54.0876 147.788C55.5221 147.447 56.7915 147.189 57.6996 147.024C58.2086 146.91 58.7266 146.841 59.2476 146.818C58.7578 146.975 58.2578 147.099 57.7512 147.189C56.8224 147.395 55.5427 147.705 54.1392 148.025C52.7357 148.345 51.4612 148.691 50.5272 148.928C50.0334 149.08 49.5301 149.199 49.0205 149.284Z" fill="#263238"/>
<path d="M60.001 162.942C58.2775 161.637 56.456 161.394 54.294 161.462C52.1316 161.599 50.014 162.14 48.0504 163.056C44.6706 164.532 41.4972 166.714 39.4796 169.8C37.4621 172.886 36.7552 176.973 38.267 180.337C38.386 180.689 38.6303 180.984 38.9533 181.168C39.3286 181.272 39.7287 181.241 40.0834 181.08C43.9276 179.826 47.7924 178.562 51.327 176.601C54.8616 174.64 58.0763 171.911 59.97 168.345C60.4549 167.513 60.7673 166.592 60.8885 165.636C60.9402 165.153 60.8882 164.664 60.736 164.202C60.5839 163.74 60.3351 163.316 60.0061 162.958" fill="#01B2B8"/>
<path d="M60.0317 162.54C59.9456 162.589 59.8537 162.627 59.7582 162.654L58.9532 162.932L58.3702 163.123C58.1586 163.201 57.9316 163.293 57.689 163.391C57.204 163.588 56.657 163.784 56.043 164.073L55.1039 164.501C54.7736 164.65 54.4486 164.836 54.1028 165.017C53.4062 165.357 52.7045 165.796 51.9511 166.24C48.7334 168.235 45.87 170.751 43.4784 173.686C42.9624 174.372 42.4206 175.017 41.9923 175.667C41.7704 175.987 41.5486 176.286 41.3525 176.591L40.8365 177.468C40.4753 178.02 40.207 178.557 39.949 179.016C39.8251 179.243 39.7013 179.455 39.5981 179.656C39.4949 179.857 39.4123 180.038 39.3349 180.208L38.9531 180.972C38.9171 181.064 38.8685 181.151 38.8086 181.23C38.8337 181.134 38.8683 181.04 38.9118 180.951L39.2472 180.167C39.3246 179.996 39.4072 179.811 39.4949 179.604C39.5826 179.398 39.7116 179.186 39.8303 178.954C40.078 178.484 40.3463 177.922 40.6868 177.38C40.8623 177.096 41.0377 176.797 41.2028 176.488C41.368 176.178 41.6156 175.879 41.8324 175.554C42.2555 174.893 42.7766 174.243 43.3081 173.546C44.5107 172.068 45.829 170.688 47.2504 169.418C48.6876 168.17 50.2234 167.04 51.8428 166.039C52.6013 165.595 53.3134 165.161 54.0151 164.826C54.366 164.65 54.6962 164.47 55.0471 164.31L56.0017 163.897C56.6054 163.613 57.173 163.428 57.6684 163.242C57.9161 163.154 58.1431 163.066 58.3598 162.994L58.9481 162.819L59.7685 162.586C59.855 162.565 59.9429 162.549 60.0317 162.54Z" fill="#263238"/>
<path d="M46.5742 169.826C45.2023 170.349 43.8037 170.798 42.3842 171.173C40.9861 171.627 39.5631 172.001 38.1221 172.292C39.4939 171.77 40.8925 171.32 42.312 170.946C43.7109 170.494 45.1338 170.12 46.5742 169.826Z" fill="#263238"/>
<path d="M46.399 179.052C46.3286 178.621 46.2975 178.184 46.3061 177.747C46.3061 176.942 46.3061 175.822 46.3061 174.594C46.3061 173.366 46.4093 172.246 46.4764 171.441C46.4869 171.003 46.5422 170.567 46.6415 170.141C46.6762 170.577 46.6762 171.015 46.6415 171.451C46.6105 172.334 46.5796 173.407 46.5434 174.599C46.5073 175.791 46.4867 176.864 46.4609 177.747C46.4802 178.183 46.4595 178.62 46.399 179.052Z" fill="#263238"/>
<path d="M54.3252 175.038C54.2581 175.038 54.0466 172.772 53.8557 169.97C53.6647 167.169 53.5564 164.893 53.6235 164.893C53.6905 164.893 53.8969 167.153 54.093 169.955C54.2891 172.757 54.3923 175.032 54.3252 175.038Z" fill="#263238"/>
<path d="M44.4639 164.671C44.9088 164.615 45.358 164.601 45.8055 164.63C46.6311 164.63 47.7766 164.661 49.0408 164.702C50.305 164.743 51.4453 164.795 52.2709 164.841C52.7192 164.847 53.1663 164.89 53.6074 164.97C53.1625 165.027 52.7133 165.04 52.2658 165.012C51.4402 165.012 50.2947 164.986 49.0305 164.939C47.7663 164.893 46.6259 164.847 45.7951 164.8C45.3485 164.795 44.9032 164.752 44.4639 164.671Z" fill="#263238"/>
<path d="M64.2681 193.129C64.2451 193.037 64.2347 192.944 64.2371 192.85C64.2371 192.649 64.2371 192.385 64.201 192.066C64.17 191.379 64.1649 190.394 64.201 189.166C64.2371 187.938 64.3042 186.488 64.4487 184.878C64.5931 183.268 64.8305 181.498 65.1556 179.656C65.4807 177.814 65.8831 176.085 66.2908 174.496C66.6984 172.906 67.1422 171.539 67.5447 170.368C67.9471 169.196 68.2877 168.304 68.5767 167.654C68.7005 167.354 68.7985 167.138 68.8811 166.926C68.9127 166.84 68.9525 166.757 68.9998 166.678C68.9885 166.77 68.9623 166.859 68.9224 166.942L68.6283 167.7C68.3909 168.34 68.0658 169.248 67.6891 170.435C67.3125 171.622 66.8997 173.015 66.492 174.563C66.0844 176.111 65.7025 177.855 65.3723 179.692C65.0421 181.529 64.8202 183.304 64.6551 184.888C64.4899 186.472 64.3971 187.943 64.3558 189.16C64.3145 190.378 64.2887 191.369 64.2887 192.055C64.2887 192.375 64.2887 192.633 64.2887 192.84C64.2886 192.936 64.2817 193.033 64.2681 193.129Z" fill="#263238"/>
<path d="M65.3211 179.46C65.0868 179.78 64.8187 180.074 64.5213 180.337C64.0053 180.853 63.2674 181.544 62.4315 182.282C61.5956 183.02 60.8061 183.655 60.223 184.104C59.9248 184.363 59.5995 184.59 59.2529 184.78C59.5155 184.483 59.8058 184.211 60.1198 183.969L62.2715 182.102L64.4078 180.213C64.6876 179.933 64.9934 179.681 65.3211 179.46Z" fill="#263238"/>
<path d="M71.6625 184.563C71.3487 184.193 71.064 183.8 70.8111 183.386L68.8348 180.497L66.8121 177.638C66.5121 177.257 66.2413 176.853 66.002 176.431C66.3512 176.768 66.6674 177.138 66.9462 177.535C67.5035 178.242 68.2466 179.233 69.0102 180.363C69.7739 181.493 70.4654 182.53 70.9349 183.294C71.2166 183.693 71.4602 184.118 71.6625 184.563Z" fill="#263238"/>
<path d="M68.3399 168.5C68.376 168.557 66.2759 169.976 63.6391 171.668C61.0023 173.361 58.8403 174.692 58.8042 174.635C58.768 174.578 60.8682 173.159 63.5101 171.467C66.152 169.774 68.3089 168.448 68.3399 168.5Z" fill="#263238"/>
<path d="M74.3049 174.924C73.1929 173.998 72.1302 173.015 71.1211 171.978C70.0586 171.002 69.0509 169.969 68.1025 168.882C69.2185 169.805 70.283 170.788 71.2914 171.828C72.3546 172.801 73.3607 173.835 74.3049 174.924Z" fill="#263238"/>
<path d="M75.7754 174.785L77.5814 174.635C78.8657 174.53 80.112 174.148 81.2347 173.515C81.7841 173.195 82.3528 172.909 82.9375 172.659C85.1717 171.766 87.6692 171.926 90.0737 171.802C94.0135 171.604 97.8735 170.618 101.426 168.902C101.639 168.808 101.819 168.652 101.942 168.453C102.313 167.777 101.622 167.174 101.028 166.807C97.9789 164.929 94.8777 163.03 91.4257 162.096C87.9736 161.162 84.0469 161.322 81.1057 163.35C77.6485 165.734 76.3843 170.626 75.8012 174.785" fill="#01B2B8"/>
<path d="M101.957 168.216C101.853 168.173 101.751 168.125 101.653 168.072L100.796 167.623C100.053 167.23 98.9848 166.653 97.6277 166.008C96.0559 165.231 94.4169 164.599 92.7309 164.119C90.669 163.526 88.5095 163.351 86.3789 163.603C84.2453 163.84 82.2303 164.706 80.5894 166.09C79.3078 167.281 78.2824 168.721 77.576 170.321C76.9413 171.678 76.544 172.834 76.2653 173.619L75.9402 174.532C75.9083 174.64 75.8668 174.746 75.8164 174.847C75.8313 174.734 75.8572 174.624 75.8938 174.516C75.9661 174.284 76.0589 173.975 76.1724 173.593C76.5168 172.465 76.9269 171.359 77.4005 170.28C78.0958 168.642 79.1258 167.167 80.4243 165.951C82.0882 164.517 84.1452 163.618 86.3273 163.371C88.4868 163.11 90.6767 163.285 92.767 163.887C94.4626 164.385 96.1087 165.037 97.6845 165.837C99.0312 166.508 100.089 167.107 100.822 167.525L101.658 168.015C101.766 168.069 101.866 168.137 101.957 168.216Z" fill="#263238"/>
<path d="M97.6169 170.564C97.5808 170.615 95.2123 169.088 92.3331 167.148C89.4538 165.208 87.1473 163.587 87.1731 163.536C87.1989 163.484 89.5725 165.012 92.4517 166.952C95.331 168.892 97.653 170.507 97.6169 170.564Z" fill="#263238"/>
<path d="M95.3469 163.304C94.142 163.682 92.8702 163.8 91.6162 163.649C92.2294 163.522 92.8528 163.449 93.479 163.433C94.0967 163.336 94.7217 163.293 95.3469 163.304Z" fill="#263238"/>
<path d="M84.743 161.405C84.2917 162.473 83.7 163.476 82.9834 164.387C83.1681 163.838 83.4286 163.317 83.7574 162.839C84.0162 162.317 84.348 161.834 84.743 161.405Z" fill="#263238"/>
<path d="M86.8592 171.957C86.4602 171.791 86.0798 171.583 85.724 171.338C85.0377 170.925 84.1141 170.306 83.144 169.599C82.1739 168.892 81.2916 168.206 80.662 167.71C80.3097 167.461 79.9814 167.18 79.6816 166.869C80.0651 167.069 80.428 167.306 80.7652 167.576L83.2885 169.408C84.2689 170.12 85.1719 170.744 85.8324 171.198C86.1961 171.421 86.5397 171.675 86.8592 171.957Z" fill="#263238"/>
<path d="M78.4322 182.468C76.7088 182.009 74.65 183.686 74.3042 185.435C73.9585 187.184 74.6087 188.97 75.3724 190.595C77.0157 194.204 79.4535 197.395 82.5035 199.929C85.5798 202.452 89.4184 203.861 93.3962 203.928C92.6687 200.543 93.5872 197.004 93.1847 193.562C92.8251 190.531 91.4479 187.711 89.2781 185.563C87.1083 183.416 84.2743 182.068 81.2393 181.74C80.1402 181.622 78.8657 181.451 78.4271 182.468" fill="#01B2B8"/>
<path d="M93.3968 203.928C93.3103 203.9 93.2272 203.862 93.1491 203.815C92.9231 203.687 92.7075 203.542 92.5041 203.381C91.7814 202.752 91.2009 201.977 90.8013 201.106C90.5278 200.59 90.2182 199.991 89.9189 199.346C89.6196 198.701 89.3204 198.02 88.9901 197.282C88.6591 196.527 88.2782 195.794 87.8498 195.089C87.3903 194.338 86.8727 193.624 86.3018 192.953C85.1253 191.57 83.8559 190.373 82.7568 189.222C81.7631 188.221 80.8585 187.135 80.053 185.977C79.5134 185.191 79.0699 184.344 78.732 183.453C78.6237 183.139 78.5411 182.886 78.4998 182.716C78.4713 182.631 78.4539 182.542 78.4482 182.452C78.4482 182.452 78.5669 182.803 78.8198 183.423C79.1877 184.29 79.6479 185.115 80.1923 185.884C81.0132 187.017 81.9243 188.082 82.9168 189.068C84.021 190.203 85.2956 191.4 86.4875 192.798C87.0717 193.478 87.6013 194.203 88.0716 194.965C88.4983 195.682 88.8792 196.425 89.212 197.189L90.1202 199.253C90.4091 199.893 90.7084 200.481 90.9767 201.013C91.3534 201.876 91.901 202.654 92.5866 203.299C93.082 203.743 93.4226 203.908 93.3968 203.928Z" fill="#263238"/>
<path d="M84.4854 201.116C84.4957 200.724 84.5494 200.335 84.6453 199.955C84.7795 199.243 85.0014 198.268 85.3006 197.205C85.5999 196.142 85.9198 195.198 86.1778 194.522C86.2908 194.146 86.4484 193.786 86.6474 193.448C86.5777 193.832 86.4741 194.208 86.3378 194.573C86.1211 195.265 85.8218 196.214 85.5328 197.272C85.2439 198.33 85.0168 199.29 84.8104 199.991C84.7393 200.376 84.6304 200.753 84.4854 201.116Z" fill="#263238"/>
<path d="M93.0816 192.803C92.6685 192.743 92.2612 192.648 91.8638 192.52C91.1208 192.329 90.094 192.06 88.9536 191.802C87.8132 191.544 86.7709 191.348 86.0176 191.204C85.6045 191.151 85.1969 191.061 84.7998 190.936C85.2168 190.925 85.6338 190.96 86.0434 191.039C86.807 191.137 87.8597 191.312 89.0052 191.555C90.1507 191.797 91.1776 192.107 91.9103 192.344C92.3156 192.456 92.7081 192.61 93.0816 192.803Z" fill="#263238"/>
<path d="M78.0869 195.218C78.1064 194.765 78.1686 194.314 78.2727 193.872C78.4275 193.051 78.6648 191.916 78.9899 190.683C79.315 189.449 79.6556 188.34 79.9239 187.545C80.0563 187.109 80.2291 186.686 80.4399 186.281C80.3649 186.728 80.2545 187.168 80.1096 187.597C79.8826 188.402 79.5627 189.511 79.2428 190.739C78.9228 191.968 78.6545 193.098 78.4636 193.908C78.3756 194.354 78.2496 194.793 78.0869 195.218Z" fill="#263238"/>
<path d="M89.1237 185.559C89.1237 185.621 86.9617 185.45 84.3146 185.167C81.6675 184.883 79.521 184.604 79.5313 184.542C81.1399 184.588 82.7451 184.718 84.3404 184.929C85.9445 185.057 87.541 185.268 89.1237 185.559Z" fill="#263238"/>
<path d="M87.5447 211.668C87.5447 211.735 79.9749 211.787 70.6405 211.787C61.306 211.787 53.7363 211.735 53.7363 211.668C53.7363 211.601 61.306 211.55 70.6405 211.55C79.9749 211.55 87.5447 211.601 87.5447 211.668Z" fill="#455A64"/>
<path d="M82.2814 221.405C82.2814 221.472 77.1782 221.529 70.8881 221.529C64.5981 221.529 59.5 221.472 59.5 221.405C59.5 221.338 64.5981 221.287 70.8881 221.287C77.1782 221.287 82.2814 221.364 82.2814 221.405Z" fill="#455A64"/>
<path d="M82.4784 222.798C82.4784 222.866 77.3803 222.917 71.0903 222.917C64.8002 222.917 59.7021 222.866 59.7021 222.798C59.7021 222.731 64.8002 222.68 71.0903 222.68C77.3803 222.68 82.4784 222.731 82.4784 222.798Z" fill="#455A64"/>
<path d="M82.4775 220.26C82.4775 220.327 77.204 220.378 70.6973 220.378C64.1905 220.378 58.917 220.327 58.917 220.26C58.917 220.193 64.1905 220.141 70.6973 220.141C77.204 220.141 82.4775 220.193 82.4775 220.26Z" fill="#455A64"/>
</svg>
