<svg width="16" height="16" viewBox="0 0 16 16" fill="none" xmlns="http://www.w3.org/2000/svg">
    <g clip-path="url(#clip0_2090_200785)">
        <path fill-rule="evenodd" clip-rule="evenodd"
              d="M9.62403 7.27691V3.91753C9.62391 3.80778 9.58026 3.70256 9.50267 3.62494C9.42508 3.54732 9.31988 3.50363 9.21012 3.50347H6.78825C6.67843 3.50351 6.57312 3.54714 6.49545 3.62478C6.41779 3.70242 6.37411 3.80771 6.37403 3.91753V7.27691C6.37416 7.38669 6.41782 7.49195 6.49545 7.56958C6.57308 7.64721 6.67834 7.69088 6.78812 7.691H9.21C9.31976 7.69082 9.42498 7.64713 9.50259 7.56951C9.58019 7.49189 9.62387 7.38667 9.62403 7.27691ZM6.81153 5.14409H7.78028V5.98006H6.81153V5.14409ZM8.21778 5.14409H9.18653V5.98006H8.21778V5.14409ZM9.18653 3.94097V4.70659H6.81153V3.94097H9.18653ZM6.81153 6.41756H7.78028V7.25347H6.81153V6.41756ZM8.21778 7.25347V6.41756H9.18653V7.25347H8.21778ZM11.7334 5.59722C11.7334 6.33581 11.5144 7.05781 11.104 7.67193C10.6937 8.28604 10.1105 8.76469 9.42811 9.04733C8.74575 9.32998 7.99489 9.40393 7.27049 9.25984C6.54609 9.11575 5.88069 8.76008 5.35843 8.23782C4.83617 7.71556 4.4805 7.05016 4.33641 6.32576C4.19232 5.60136 4.26627 4.8505 4.54892 4.16813C4.83156 3.48577 5.31021 2.90254 5.92432 2.4922C6.53844 2.08186 7.26044 1.86284 7.99903 1.86284C8.9891 1.86398 9.93829 2.25779 10.6384 2.95788C11.3385 3.65796 11.7323 4.60715 11.7334 5.59722ZM12.498 12.2769C13.1906 12.6722 13.5566 13.1535 13.5566 13.6691C13.5566 14.3291 12.9522 14.9319 11.8547 15.366C10.8213 15.7747 9.45191 16.0001 7.99919 16.0001C6.54647 16.0001 5.17659 15.7747 4.14325 15.366C3.04578 14.9319 2.44141 14.3291 2.44141 13.6691C2.44141 13.1528 2.80844 12.6706 3.50291 12.275C4.07544 11.9491 4.84506 11.6944 5.74041 11.5325L4.07262 9.41125C3.14041 8.22528 2.60856 6.81528 2.57481 5.44062C2.53884 3.96372 3.06288 2.64003 4.09003 1.61281C5.12878 0.579837 6.53417 0 7.99911 0C9.46405 0 10.8694 0.579837 11.9082 1.61281C12.9353 2.64003 13.4591 3.96372 13.4231 5.44062C13.3897 6.81528 12.8575 8.22528 11.9254 9.41125L10.2575 11.5325C11.1548 11.6947 11.9256 11.95 12.498 12.2769ZM4.79922 2C5.75458 1.04668 6.64933 0.8 7.99897 0.8C9.34861 0.8 10.2439 1.04668 11.1992 2C13.0642 3.86503 13.0744 6.41475 11.1992 8.8L7.99919 12.8L4.79922 9.04733C2.92388 6.66205 2.93419 3.865 4.79922 2ZM11.1992 14.8C12.1402 14.2703 12.3248 14.2483 12.498 13.6691C12.498 12.936 11.8175 12.22 9.95016 11.9238L8.17106 14.1866C8.1506 14.2127 8.12447 14.2338 8.09465 14.2483C8.06484 14.2628 8.03212 14.2703 7.99897 14.2703C7.96582 14.2703 7.9331 14.2628 7.90328 14.2483C7.87347 14.2338 7.84734 14.2127 7.82687 14.1866L6.04791 11.9238C4.18009 12.22 3.50291 13.0695 3.59922 13.6C3.67067 13.9936 4.39922 14.4 4.39922 14.4C5.99922 15.2 6.42734 15.2 7.82687 15.2C9.22641 15.2 10.2157 15.1891 11.1992 14.8Z"
              fill="#01B2B8"/>
    </g>
    <defs>
        <clipPath id="clip0_2090_200785">
            <rect width="16" height="16" fill="white"/>
        </clipPath>
    </defs>
</svg>
