<svg width="15" height="15" viewBox="0 0 15 15" fill="none" xmlns="http://www.w3.org/2000/svg">
    <g clip-path="url(#clip0_2090_201297)">
        <path d="M9.75613 12.9166C10.2546 12.9166 10.6587 12.5124 10.6587 12.0139C10.6587 11.5154 10.2546 11.1113 9.75613 11.1113C9.25763 11.1113 8.85352 11.5154 8.85352 12.0139C8.85352 12.5124 9.25763 12.9166 9.75613 12.9166Z"
              fill="#0A3C68"/>
        <path d="M9.75613 3.88922C10.2546 3.88922 10.6587 3.4851 10.6587 2.9866C10.6587 2.4881 10.2546 2.08398 9.75613 2.08398C9.25763 2.08398 8.85352 2.4881 8.85352 2.9866C8.85352 3.4851 9.25763 3.88922 9.75613 3.88922Z"
              fill="#0A3C68"/>
        <path d="M2.08426 8.40289C2.58276 8.40289 2.98687 7.99877 2.98687 7.50027C2.98687 7.00177 2.58276 6.59766 2.08426 6.59766C1.58576 6.59766 1.18164 7.00177 1.18164 7.50027C1.18164 7.99877 1.58576 8.40289 2.08426 8.40289Z"
              fill="#0A3C68"/>
        <path d="M12.9154 5.69472C12.5162 5.69591 12.1288 5.82947 11.8137 6.07448C11.4986 6.31949 11.2737 6.66211 11.1742 7.04865H9.24083C9.17691 6.79413 9.05781 6.55679 8.89197 6.35342C8.72612 6.15005 8.51759 5.98564 8.28114 5.87183C8.04468 5.75802 7.7861 5.69759 7.5237 5.69483C7.26129 5.69206 7.00149 5.74703 6.7627 5.85584L5.32889 4.06415C5.56474 3.75441 5.69309 3.37618 5.69445 2.98687C5.69445 2.62983 5.58858 2.28081 5.39021 1.98394C5.19185 1.68707 4.90991 1.45569 4.58005 1.31906C4.25019 1.18242 3.88722 1.14667 3.53703 1.21633C3.18685 1.28598 2.86519 1.45792 2.61273 1.71038C2.36026 1.96285 2.18833 2.28451 2.11867 2.63469C2.04902 2.98487 2.08477 3.34784 2.2214 3.67771C2.35803 4.00757 2.58942 4.28951 2.88628 4.48787C3.18315 4.68623 3.53218 4.79211 3.88922 4.79211C4.1437 4.79152 4.39512 4.73659 4.62666 4.63099L6.06001 6.42268C5.82308 6.73183 5.69467 7.11046 5.69467 7.49996C5.69467 7.88945 5.82308 8.26808 6.06001 8.57723L4.62666 10.3689C4.39512 10.2633 4.1437 10.2084 3.88922 10.2078C3.53218 10.2078 3.18315 10.3137 2.88628 10.512C2.58942 10.7104 2.35803 10.9923 2.2214 11.3222C2.08477 11.6521 2.04902 12.015 2.11867 12.3652C2.18833 12.7154 2.36026 13.0371 2.61273 13.2895C2.86519 13.542 3.18685 13.7139 3.53703 13.7836C3.88722 13.8532 4.25019 13.8175 4.58005 13.6809C4.90991 13.5442 5.19185 13.3128 5.39021 13.016C5.58858 12.7191 5.69445 12.3701 5.69445 12.013C5.69312 11.6237 5.56477 11.2455 5.32889 10.9358L6.76225 9.14407C7.00106 9.25296 7.26091 9.30799 7.52336 9.30527C7.78582 9.30255 8.04447 9.24214 8.28097 9.12832C8.51748 9.0145 8.72607 8.85006 8.89194 8.64665C9.05782 8.44324 9.17693 8.20584 9.24083 7.95126H11.1742C11.2592 8.27736 11.4339 8.57309 11.6786 8.80488C11.9232 9.03667 12.2279 9.19523 12.5581 9.26254C12.8883 9.32986 13.2307 9.30325 13.5466 9.18572C13.8624 9.06819 14.1389 8.86446 14.3448 8.59766C14.5507 8.33086 14.6776 8.01168 14.7112 7.67637C14.7447 7.34106 14.6836 7.00305 14.5348 6.70073C14.3859 6.3984 14.1552 6.14387 13.869 5.96605C13.5827 5.78822 13.2524 5.69422 12.9154 5.69472ZM2.9866 2.98687C2.9866 2.80835 3.03954 2.63384 3.13872 2.48541C3.2379 2.33697 3.37887 2.22128 3.5438 2.15297C3.70873 2.08465 3.89022 2.06677 4.06531 2.1016C4.2404 2.13643 4.40123 2.22239 4.52746 2.34863C4.6537 2.47486 4.73966 2.63569 4.77449 2.81078C4.80932 2.98587 4.79144 3.16736 4.72313 3.33229C4.65481 3.49722 4.53912 3.63819 4.39068 3.73737C4.24225 3.83655 4.06774 3.88949 3.88922 3.88949C3.6499 3.88925 3.42046 3.79408 3.25124 3.62486C3.08201 3.45563 2.98684 3.22619 2.9866 2.98687ZM3.88922 12.9157C3.7107 12.9157 3.53619 12.8627 3.38775 12.7635C3.23932 12.6644 3.12363 12.5234 3.05531 12.3585C2.98699 12.1935 2.96912 12.012 3.00394 11.8369C3.03877 11.6619 3.12474 11.501 3.25097 11.3748C3.3772 11.2486 3.53804 11.1626 3.71313 11.1278C3.88822 11.0929 4.0697 11.1108 4.23463 11.1791C4.39957 11.2474 4.54054 11.3631 4.63972 11.5116C4.7389 11.66 4.79183 11.8345 4.79183 12.013C4.7916 12.2524 4.69642 12.4818 4.5272 12.651C4.35798 12.8202 4.12853 12.9154 3.88922 12.9157ZM7.49968 8.40257C7.32116 8.40257 7.14665 8.34963 6.99822 8.25045C6.84978 8.15127 6.73409 8.0103 6.66577 7.84537C6.59746 7.68044 6.57958 7.49895 6.61441 7.32386C6.64924 7.14877 6.7352 6.98794 6.86144 6.86171C6.98767 6.73548 7.1485 6.64951 7.32359 6.61468C7.49868 6.57985 7.68017 6.59773 7.8451 6.66605C8.01003 6.73436 8.151 6.85005 8.25018 6.99849C8.34936 7.14692 8.4023 7.32143 8.4023 7.49996C8.40206 7.73927 8.30689 7.96872 8.13767 8.13794C7.96844 8.30716 7.739 8.40233 7.49968 8.40257ZM12.9154 8.40257C12.7369 8.40257 12.5623 8.34963 12.4139 8.25045C12.2655 8.15127 12.1498 8.0103 12.0815 7.84537C12.0132 7.68044 11.9953 7.49895 12.0301 7.32386C12.0649 7.14877 12.1509 6.98794 12.2771 6.86171C12.4034 6.73548 12.5642 6.64951 12.7393 6.61468C12.9144 6.57985 13.0959 6.59773 13.2608 6.66605C13.4257 6.73436 13.5667 6.85005 13.6659 6.99849C13.7651 7.14692 13.818 7.32143 13.818 7.49996C13.8178 7.73927 13.7226 7.96872 13.5534 8.13794C13.3841 8.30716 13.1547 8.40233 12.9154 8.40257Z"
              fill="#0A3C68"/>
    </g>
    <defs>
        <clipPath id="clip0_2090_201297">
            <rect width="14.4419" height="14.4419" fill="white" transform="translate(0.279297 0.279297)"/>
        </clipPath>
    </defs>
</svg>
