<svg width="16" height="16" viewBox="0 0 16 16" fill="none" xmlns="http://www.w3.org/2000/svg">
    <g clip-path="url(#clip0_2090_201429)">
        <path d="M5.85625 15.9967C3.0125 16.0999 0.781252 14.2155 0.462502 11.7467C0.246877 10.0874 0.743752 8.66548 1.92188 7.48423C4.05938 5.34048 6.2 3.19986 8.34375 1.06236C9.025 0.381107 9.85 0.021732 10.8125 -0.000142955C12.225 -0.031393 13.5469 0.818607 14.1125 2.10611C14.6875 3.42173 14.4375 4.95611 13.4406 5.97486C12.2281 7.21548 10.9906 8.43111 9.76563 9.65611C8.81563 10.6061 7.86563 11.5561 6.9125 12.503C6.2625 13.1467 5.49688 13.3436 4.62813 13.0405C3.225 12.553 2.75938 10.7155 3.78438 9.63423C4.59688 8.77486 5.45 7.95611 6.28438 7.12173C7.46875 5.93736 8.65 4.75611 9.83438 3.57486C10.0406 3.36861 10.2781 3.28423 10.5656 3.36548C10.8375 3.44048 11 3.62798 11.0594 3.89986C11.1156 4.15923 11.0344 4.38111 10.8469 4.56861C9.99063 5.42173 9.13438 6.27798 8.27813 7.13423C7.15 8.26236 6.02188 9.38736 4.89688 10.5155C4.57813 10.8342 4.57188 11.2624 4.86875 11.5561C5.15625 11.8405 5.58438 11.8249 5.9 11.5124C7.62813 9.78736 9.35625 8.06236 11.0844 6.33736C11.5219 5.89986 11.9688 5.46861 12.3969 5.02486C13.4969 3.87486 13.0281 1.99361 11.5125 1.52173C10.725 1.27486 10.0063 1.44048 9.40625 2.01236C8.76563 2.62486 8.14688 3.26236 7.52188 3.88736C6 5.40923 4.47813 6.92798 2.95625 8.44986C2.14688 9.25298 1.7375 10.2124 1.84688 11.3467C1.98438 12.7749 2.73125 13.8092 4.06875 14.3342C5.42813 14.8686 6.7125 14.6374 7.77813 13.6311C8.98125 12.4936 10.1281 11.2999 11.3 10.128C12.3188 9.11236 13.3344 8.09361 14.35 7.07798C14.5625 6.86548 14.8125 6.79048 15.1 6.87798C15.375 6.96236 15.5375 7.16236 15.5813 7.44673C15.6219 7.70298 15.525 7.91236 15.3438 8.09361C14.5 8.93736 13.6563 9.78111 12.8125 10.6249C11.5188 11.9186 10.225 13.2124 8.93438 14.503C7.98125 15.453 6.8375 15.9561 5.85625 15.9967Z"
              fill="#A5AAC6"/>
    </g>
    <defs>
        <clipPath id="clip0_2090_201429">
            <rect width="16" height="16" fill="white"/>
        </clipPath>
    </defs>
</svg>
