<svg width="14" height="17" viewBox="0 0 14 17" fill="none" xmlns="http://www.w3.org/2000/svg">
    <path
            d="M7.00065 16.916C7.91732 16.916 8.66732 16.166 8.66732 15.2493H5.33398C5.33398 16.166 6.08398 16.916 7.00065 16.916ZM12.0007 11.916V7.74935C12.0007 5.19102 10.6423 3.04935 8.25065 2.48268V1.91602C8.25065 1.22435 7.69232 0.666016 7.00065 0.666016C6.30898 0.666016 5.75065 1.22435 5.75065 1.91602V2.48268C3.36732 3.04935 2.00065 5.18268 2.00065 7.74935V11.916L0.333984 13.5827V14.416H13.6673V13.5827L12.0007 11.916ZM10.334 12.7493H3.66732V7.74935C3.66732 5.68268 4.92565 3.99935 7.00065 3.99935C9.07565 3.99935 10.334 5.68268 10.334 7.74935V12.7493Z"
          fill="#01B2B8"/>
</svg>
