<svg width="16" height="16" viewBox="0 0 16 16" fill="none" xmlns="http://www.w3.org/2000/svg">
    <g clip-path="url(#clip0_3199_18045)">
        <path d="M8 0.391846C3.5888 0.391846 0 3.3312 0 6.94417C0 9.07318 1.23731 11.0378 3.33076 12.2677C3.04031 13.6255 2.3894 14.5783 2.38227 14.5886L1.67067 15.6079L2.9049 15.4498C3.04707 15.4315 6.35828 14.9926 8.71836 13.4702C10.6565 13.3291 12.4565 12.6181 13.8014 11.4596C15.2192 10.2383 16 8.63468 16 6.94425C16 3.3312 12.4112 0.391846 8 0.391846ZM8.50558 12.3796L8.35503 12.3882L8.22983 12.4723C6.8574 13.3943 5.02009 13.9058 3.86426 14.1559C4.10672 13.6138 4.36153 12.8933 4.48872 12.0614L4.54816 11.6726L4.19981 11.49C2.26016 10.4735 1.10212 8.77428 1.10212 6.94417C1.10212 3.93898 4.19651 1.49397 8 1.49397C11.8035 1.49397 14.8979 3.93891 14.8979 6.94417C14.8979 9.78632 12.09 12.1738 8.50558 12.3796Z"
              fill="#0A3C68"/>
    </g>
    <defs>
        <clipPath id="clip0_3199_18045">
            <rect width="16" height="16" fill="white"/>
        </clipPath>
    </defs>
</svg>
