<svg width="16" height="16" viewBox="0 0 16 16" fill="none" xmlns="http://www.w3.org/2000/svg">
    <path d="M10.2684 15.5999H2.34844C1.68672 15.5999 1.14844 15.0616 1.14844 14.3999V4.98223C1.14844 4.32051 1.68672 3.78223 2.34844 3.78223H4.93078C5.15172 3.78223 5.33078 3.96129 5.33078 4.18223C5.33078 4.40316 5.15172 4.58223 4.93078 4.58223H2.34844C2.12789 4.58223 1.94844 4.7616 1.94844 4.98223V14.3999C1.94844 14.6205 2.12789 14.7999 2.34844 14.7999H10.2684C10.489 14.7999 10.6684 14.6205 10.6684 14.3999V11.8175C10.6684 11.5966 10.8475 11.4175 11.0684 11.4175C11.2894 11.4175 11.4684 11.5966 11.4684 11.8175V14.3999C11.4684 15.0616 10.9302 15.5999 10.2684 15.5999Z"
          fill="#272B2E"/>
    <path d="M13.6512 12.2174H6.21922C5.28844 12.2174 4.53125 11.4602 4.53125 10.5294V1.5999C4.53125 0.938184 5.06953 0.399902 5.73125 0.399902H11.3873C11.4933 0.399902 11.595 0.44209 11.67 0.516934L14.7341 3.57943C14.8091 3.65443 14.8512 3.75631 14.8512 3.8624V11.0174C14.8512 11.6791 14.313 12.2174 13.6512 12.2174ZM5.73125 1.1999C5.5107 1.1999 5.33125 1.37928 5.33125 1.5999V10.5294C5.33125 11.0191 5.72961 11.4174 6.21922 11.4174H13.6512C13.8718 11.4174 14.0512 11.238 14.0512 11.0174V4.02818L11.2216 1.1999H5.73125Z"
          fill="#272B2E"/>
    <path d="M14.4523 4.26237H12.1883C11.5266 4.26237 10.9883 3.72409 10.9883 3.06237V0.799875C10.9883 0.638156 11.0857 0.492218 11.2352 0.430343C11.3846 0.368468 11.5566 0.402687 11.6711 0.516906L14.7351 3.57941C14.8495 3.69378 14.8838 3.86597 14.8218 4.01534C14.7599 4.16487 14.6141 4.26237 14.4523 4.26237ZM11.7883 1.76519V3.06237C11.7883 3.283 11.9677 3.46237 12.1883 3.46237H13.4863L11.7883 1.76519Z"
          fill="#272B2E"/>
</svg>
