<svg width="24" height="18" viewBox="0 0 24 18" fill="none" xmlns="http://www.w3.org/2000/svg">
    <path fill-rule="evenodd" clip-rule="evenodd"
          d="M19.4528 1.95722V7.77657H19.3547C19.1982 7.77657 19.0407 7.78432 18.8825 7.7998H18.8386C18.6915 7.81528 18.5444 7.83593 18.3973 7.86432H18.3276C18.1857 7.8927 18.0463 7.92625 17.907 7.96754L17.8347 7.98819C17.6954 8.02948 17.5586 8.07593 17.4244 8.13012L17.3625 8.15335C17.2257 8.21012 17.0889 8.27206 16.9547 8.33915L16.9212 8.35722C16.787 8.4269 16.6631 8.50174 16.5237 8.58432H16.5083C16.3792 8.6669 16.2502 8.75722 16.1315 8.84238L16.0876 8.87593C15.9715 8.96625 15.8605 9.06432 15.7521 9.16496L15.7212 9.19077L13.1792 6.86819L19.2979 1.24238C19.4059 1.46488 19.459 1.70999 19.4528 1.95722ZM0.299229 1.26045C0.187397 1.47568 0.12898 1.71466 0.128906 1.95722V11.7482C0.129492 12.0055 0.195187 12.2585 0.319874 12.4837L3.58697 9.48496L6.42568 6.88625L0.299229 1.26045ZM12.5934 7.4127L11.1844 8.70302L10.6373 9.20625C10.4068 9.4201 10.104 9.53893 9.78955 9.53893C9.47512 9.53893 9.17231 9.4201 8.94181 9.20625L8.16762 8.49141L6.98826 7.4127L4.07471 10.0888L0.856648 13.0463C1.099 13.1974 1.37876 13.2779 1.66439 13.2785H14.0515C14.0515 13.2063 14.0515 13.1366 14.0515 13.0643C14.0515 12.9069 14.0515 12.7495 14.0721 12.5946C14.0721 12.543 14.0876 12.4914 14.0928 12.4398C14.0928 12.3366 14.1186 12.2333 14.1366 12.1301C14.1366 12.0708 14.1625 12.0114 14.1754 11.9521C14.1883 11.8927 14.2141 11.7663 14.2399 11.6759C14.2657 11.5856 14.276 11.5521 14.2941 11.4927C14.3121 11.4333 14.3508 11.3172 14.3818 11.2346C14.4128 11.1521 14.4308 11.1133 14.4541 11.054C14.4773 10.9946 14.5263 10.8863 14.565 10.7959C14.6037 10.7056 14.6218 10.6772 14.6528 10.6179C14.6837 10.5585 14.7405 10.4579 14.787 10.3804C14.8334 10.303 14.8515 10.2695 14.885 10.2153C14.9186 10.1611 14.9908 10.0579 15.0476 9.98044C15.1044 9.90303 15.1173 9.8798 15.156 9.83077L15.1896 9.78432L12.5934 7.4127ZM23.8708 13.0643C23.8714 14.2166 23.4323 15.3258 22.643 16.1653C21.8537 17.0049 20.7738 17.5116 19.6236 17.5821C18.4734 17.6525 17.3397 17.2814 16.4539 16.5445C15.568 15.8076 14.9967 14.7604 14.8566 13.6166C14.8329 13.4334 14.8208 13.249 14.8205 13.0643C14.8205 12.9224 14.8205 12.783 14.8412 12.6437C14.9295 11.6655 15.3366 10.7434 15.9999 10.0192C16.4262 9.55458 16.9448 9.18403 17.5225 8.9312C18.1001 8.67836 18.7241 8.54879 19.3547 8.55077C19.5064 8.55045 19.658 8.55821 19.8089 8.57399C20.9234 8.68256 21.9573 9.20293 22.7085 10.0334C23.4597 10.8638 23.8742 11.9445 23.8708 13.0643ZM21.4037 12.7882L18.867 10.2514C18.8322 10.211 18.7894 10.1782 18.7413 10.155C18.6932 10.1319 18.6409 10.119 18.5876 10.1171C18.5343 10.1151 18.4811 10.1242 18.4315 10.1438C18.3819 10.1634 18.3368 10.193 18.2992 10.2308C18.2616 10.2686 18.2321 10.3138 18.2128 10.3636C18.1935 10.4133 18.1846 10.4665 18.1868 10.5198C18.189 10.5731 18.2022 10.6253 18.2255 10.6733C18.2488 10.7213 18.2819 10.7639 18.3225 10.7985L20.5857 13.0617L18.3225 15.3224C18.2684 15.3765 18.2316 15.4455 18.2167 15.5205C18.2018 15.5955 18.2094 15.6733 18.2387 15.744C18.268 15.8147 18.3175 15.8751 18.3811 15.9177C18.4447 15.9602 18.5195 15.983 18.596 15.983C18.6986 15.9827 18.7969 15.9419 18.8696 15.8695L21.4063 13.3301C21.4775 13.2577 21.5172 13.1602 21.5167 13.0586C21.5163 12.9571 21.4756 12.8599 21.4037 12.7882ZM17.9147 0.424317H1.65665C1.35429 0.424129 1.05873 0.513967 0.807616 0.682381L8.77407 8.00883L9.45536 8.63335C9.54383 8.71423 9.65936 8.75908 9.77923 8.75908C9.8991 8.75908 10.0146 8.71423 10.1031 8.63335L10.5805 8.21528L18.7663 0.682381C18.5143 0.513904 18.2179 0.424084 17.9147 0.424317Z"
          fill="#01B2B8"
          stroke="#fff"
    />
</svg>
