<svg width="18" height="18" viewBox="0 0 18 18" fill="none" xmlns="http://www.w3.org/2000/svg">
<path d="M9.0015 1.49805C13.1445 1.49805 16.503 4.85655 16.503 8.99955C16.503 13.1418 13.1445 16.4995 9.0015 16.4995C4.8585 16.5003 1.5 13.1418 1.5 8.99955C1.5 4.85655 4.8585 1.49805 9.0015 1.49805ZM9.0015 2.62305C8.15836 2.6139 7.32177 2.77207 6.54016 3.0884C5.75856 3.40473 5.04745 3.87294 4.448 4.46592C3.84854 5.05891 3.37265 5.7649 3.04787 6.54303C2.72308 7.32116 2.55585 8.15598 2.55585 8.99917C2.55585 9.84237 2.72308 10.6772 3.04787 11.4553C3.37265 12.2334 3.84854 12.9394 4.448 13.5324C5.04745 14.1254 5.75856 14.5936 6.54016 14.9099C7.32177 15.2263 8.15836 15.3844 9.0015 15.3753C10.6806 15.3571 12.2847 14.6773 13.4656 13.4835C14.6465 12.2897 15.3088 10.6783 15.3088 8.99917C15.3088 7.32 14.6465 5.7086 13.4656 4.51482C12.2847 3.32104 10.6806 2.64126 9.0015 2.62305ZM6.348 11.0868C6.66367 11.4886 7.06662 11.8134 7.52634 12.0365C7.98606 12.2596 8.4905 12.3752 9.0015 12.3745C9.51194 12.3752 10.0158 12.2598 10.4751 12.0371C10.9344 11.8144 11.3371 11.4902 11.6528 11.089C11.6985 11.0311 11.7553 10.9827 11.8198 10.9467C11.8843 10.9107 11.9553 10.8877 12.0286 10.8791C12.102 10.8705 12.1763 10.8764 12.2474 10.8966C12.3185 10.9167 12.3849 10.9506 12.4429 10.9964C12.5008 11.0422 12.5492 11.099 12.5852 11.1635C12.6213 11.228 12.6442 11.2989 12.6528 11.3723C12.6614 11.4457 12.6555 11.52 12.6354 11.5911C12.6152 11.6622 12.5813 11.7286 12.5355 11.7865C12.1146 12.321 11.5778 12.7529 10.9656 13.0497C10.3534 13.3464 9.68182 13.5002 9.0015 13.4995C8.32019 13.5002 7.64765 13.3459 7.03475 13.0484C6.42185 12.7508 5.88464 12.3178 5.46375 11.782C5.41805 11.724 5.38423 11.6575 5.36423 11.5864C5.34423 11.5152 5.33843 11.4409 5.34717 11.3675C5.35591 11.2941 5.37902 11.2232 5.41517 11.1588C5.45132 11.0943 5.49981 11.0376 5.55788 10.9919C5.61594 10.9462 5.68243 10.9124 5.75356 10.8924C5.82469 10.8724 5.89906 10.8666 5.97243 10.8753C6.0458 10.8841 6.11673 10.9072 6.18117 10.9433C6.24561 10.9795 6.3023 11.028 6.348 11.086M6.7515 6.56205C6.8768 6.5585 7.00153 6.58012 7.11833 6.62562C7.23512 6.67112 7.34161 6.73958 7.43149 6.82695C7.52136 6.91432 7.59281 7.01883 7.64159 7.13429C7.69038 7.24975 7.71551 7.37383 7.71551 7.49917C7.71551 7.62452 7.69038 7.74859 7.64159 7.86405C7.59281 7.97952 7.52136 8.08402 7.43149 8.17139C7.34161 8.25876 7.23512 8.32722 7.11833 8.37272C7.00153 8.41822 6.8768 8.43984 6.7515 8.4363C6.50755 8.42939 6.2759 8.32764 6.10579 8.15264C5.93568 7.97765 5.84051 7.74322 5.84051 7.49917C5.84051 7.25512 5.93568 7.02069 6.10579 6.8457C6.2759 6.67071 6.50755 6.56895 6.7515 6.56205ZM11.2515 6.56205C11.3768 6.5585 11.5015 6.58012 11.6183 6.62562C11.7351 6.67112 11.8416 6.73958 11.9315 6.82695C12.0214 6.91432 12.0928 7.01883 12.1416 7.13429C12.1904 7.24975 12.2155 7.37383 12.2155 7.49917C12.2155 7.62452 12.1904 7.74859 12.1416 7.86405C12.0928 7.97952 12.0214 8.08402 11.9315 8.17139C11.8416 8.25876 11.7351 8.32722 11.6183 8.37272C11.5015 8.41822 11.3768 8.43984 11.2515 8.4363C11.0075 8.42939 10.7759 8.32764 10.6058 8.15264C10.4357 7.97765 10.3405 7.74322 10.3405 7.49917C10.3405 7.25512 10.4357 7.02069 10.6058 6.8457C10.7759 6.67071 11.0075 6.56895 11.2515 6.56205Z" fill="#A5AAC6"/>
</svg>
