<svg width="20" height="17" viewBox="0 0 20 17" fill="none" xmlns="http://www.w3.org/2000/svg">
    <path d="M6.07143 9.71429H5.46429C4.12288 9.71429 3.03571 10.8033 3.03571 12.1474V14.5669C3.03571 15.9106 4.12288 17 5.46429 17H6.07143C6.74194 17 7.28571 16.4551 7.28571 15.7834V10.9308C7.28571 10.2588 6.74194 9.71429 6.07143 9.71429ZM13.9643 9.71429H13.3571C12.6866 9.71429 12.1429 10.2588 12.1429 10.9308V15.7834C12.1429 16.4551 12.6866 17 13.3571 17H13.9643C15.3057 17 16.3929 15.9106 16.3929 14.5669V12.1474C16.3929 10.8037 15.3057 9.71429 13.9643 9.71429ZM9.71429 0C4.28453 0 0.173415 4.52056 0 9.71429V13.9643C0 14.2997 0.271696 14.5714 0.607143 14.5714H1.21429C1.54973 14.5714 1.82143 14.2997 1.82143 13.9643V9.71429C1.82143 5.36297 5.36297 1.82902 9.71429 1.82826C14.0656 1.82902 17.6071 5.36297 17.6071 9.71429V13.9643C17.6071 14.2997 17.8788 14.5714 18.2143 14.5714H18.8214C19.1569 14.5714 19.4286 14.2997 19.4286 13.9643V9.71429C19.2552 4.52056 15.144 0 9.71429 0Z" fill="black"/>
</svg>
