<svg width="18" height="18" viewBox="0 0 18 18" fill="none" xmlns="http://www.w3.org/2000/svg">
    <path d="M13.5461 0.441895H4.45303C2.23747 0.441895 0.441406 2.23796 0.441406 4.45352V13.5465C0.441406 15.7621 2.23747 17.5582 4.45303 17.5582H13.5461C15.7616 17.5582 17.5577 15.7621 17.5577 13.5465V4.45352C17.5577 2.23796 15.7616 0.441895 13.5461 0.441895Z" fill="url(#paint0_radial_2090_201794)"/>
    <path d="M13.5461 0.441895H4.45303C2.23747 0.441895 0.441406 2.23796 0.441406 4.45352V13.5465C0.441406 15.7621 2.23747 17.5582 4.45303 17.5582H13.5461C15.7616 17.5582 17.5577 15.7621 17.5577 13.5465V4.45352C17.5577 2.23796 15.7616 0.441895 13.5461 0.441895Z" fill="url(#paint1_radial_2090_201794)"/>
    <path d="M8.99915 2.31494C7.18335 2.31494 6.95542 2.3229 6.24229 2.35533C5.53049 2.38795 5.04462 2.50061 4.61952 2.66596C4.17971 2.83672 3.8067 3.06518 3.43509 3.43693C3.06314 3.8086 2.83468 4.18162 2.66338 4.62123C2.49757 5.04646 2.38478 5.53253 2.35275 6.244C2.32086 6.9572 2.3125 7.18519 2.3125 9.00106C2.3125 10.8169 2.32052 11.0441 2.35288 11.7572C2.38565 12.469 2.49831 12.9549 2.66352 13.38C2.83441 13.8198 3.06288 14.1928 3.43462 14.5644C3.80616 14.9364 4.17918 15.1654 4.61865 15.3362C5.04408 15.5015 5.53003 15.6142 6.24169 15.6468C6.95489 15.6792 7.18262 15.6872 8.99835 15.6872C10.8143 15.6872 11.0415 15.6792 11.7547 15.6468C12.4665 15.6142 12.9529 15.5015 13.3783 15.3362C13.8179 15.1654 14.1904 14.9364 14.5619 14.5644C14.9338 14.1928 15.1622 13.8198 15.3336 13.3802C15.4979 12.9549 15.6108 12.4689 15.6442 11.7574C15.6762 11.0442 15.6846 10.8169 15.6846 9.00106C15.6846 7.18519 15.6762 6.95733 15.6442 6.24413C15.6108 5.53233 15.4979 5.04653 15.3336 4.62143C15.1622 4.18162 14.9338 3.8086 14.5619 3.43693C14.19 3.06505 13.818 2.83659 13.3779 2.66603C12.9517 2.50061 12.4655 2.38789 11.7537 2.35533C11.0405 2.3229 10.8135 2.31494 8.99708 2.31494H8.99915ZM8.39934 3.51983C8.57739 3.51957 8.77604 3.51983 8.99915 3.51983C10.7844 3.51983 10.9959 3.52625 11.7009 3.55828C12.3528 3.5881 12.7066 3.69701 12.9423 3.78855C13.2543 3.9097 13.4768 4.05458 13.7107 4.28866C13.9447 4.52267 14.0895 4.74552 14.211 5.05756C14.3025 5.29291 14.4116 5.64673 14.4413 6.29862C14.4733 7.00346 14.4802 7.21514 14.4802 8.99952C14.4802 10.7839 14.4733 10.9956 14.4413 11.7004C14.4114 12.3523 14.3025 12.7061 14.211 12.9415C14.0898 13.2536 13.9447 13.4758 13.7107 13.7096C13.4767 13.9436 13.2545 14.0885 12.9423 14.2097C12.7069 14.3016 12.3528 14.4103 11.7009 14.4401C10.9961 14.4721 10.7844 14.4791 8.99915 14.4791C7.21384 14.4791 7.00223 14.4721 6.29745 14.4401C5.64556 14.41 5.29174 14.3011 5.05585 14.2096C4.74388 14.0883 4.52097 13.9435 4.28696 13.7095C4.05294 13.4755 3.90813 13.2532 3.78664 12.941C3.69511 12.7056 3.58606 12.3518 3.55637 11.6999C3.52435 10.995 3.51793 10.7834 3.51793 8.99785C3.51793 7.2124 3.52435 7.00179 3.55637 6.29695C3.58619 5.64506 3.69511 5.29123 3.78664 5.05555C3.90786 4.74351 4.05294 4.52067 4.28702 4.28666C4.52103 4.05265 4.74388 3.90776 5.05592 3.78634C5.2916 3.69441 5.64556 3.58576 6.29745 3.5558C6.91424 3.52792 7.15326 3.51957 8.39934 3.51816V3.51983ZM12.5682 4.62999C12.1252 4.62999 11.7658 4.98903 11.7658 5.43204C11.7658 5.87499 12.1252 6.23437 12.5682 6.23437C13.0111 6.23437 13.3705 5.87499 13.3705 5.43204C13.3705 4.98909 13.0111 4.62972 12.5682 4.62972V4.62999ZM8.99915 5.56744C7.10299 5.56744 5.5656 7.10483 5.5656 9.00106C5.5656 10.8973 7.10299 12.4339 8.99915 12.4339C10.8954 12.4339 12.4322 10.8973 12.4322 9.00106C12.4322 7.10489 10.8952 5.56744 8.99901 5.56744H8.99915ZM8.99915 6.77233C10.23 6.77233 11.2279 7.77009 11.2279 9.00106C11.2279 10.2319 10.23 11.2298 8.99915 11.2298C7.76825 11.2298 6.77049 10.2319 6.77049 9.00106C6.77049 7.77009 7.76825 6.77233 8.99915 6.77233Z" fill="white"/>
    <defs>
        <radialGradient id="paint0_radial_2090_201794" cx="0" cy="0" r="1" gradientUnits="userSpaceOnUse" gradientTransform="translate(4.98792 18.8765) rotate(-90) scale(16.9635 15.7774)">
            <stop stop-color="#FFDD55"/>
            <stop offset="0.1" stop-color="#FFDD55"/>
            <stop offset="0.5" stop-color="#FF543E"/>
            <stop offset="1" stop-color="#C837AB"/>
        </radialGradient>
        <radialGradient id="paint1_radial_2090_201794" cx="0" cy="0" r="1" gradientUnits="userSpaceOnUse" gradientTransform="translate(-2.42564 1.67487) rotate(78.681) scale(7.58278 31.2565)">
            <stop stop-color="#3771C8"/>
            <stop offset="0.128" stop-color="#3771C8"/>
            <stop offset="1" stop-color="#6600FF" stop-opacity="0"/>
        </radialGradient>
    </defs>
</svg>
