<svg width="32" height="32" viewBox="0 0 32 32" fill="none" xmlns="http://www.w3.org/2000/svg">
    <path d="M17.2844 15.9094L14.8531 19.0094L13.5688 17.3719C13.5454 17.342 13.5155 17.3178 13.4814 17.3012C13.4473 17.2846 13.4098 17.276 13.3719 17.276C13.3339 17.276 13.2965 17.2846 13.2624 17.3012C13.2283 17.3178 13.1984 17.342 13.175 17.3719L10.0562 21.3469C10.0274 21.3837 10.0095 21.4279 10.0046 21.4745C9.99968 21.521 10.008 21.568 10.0285 21.6101C10.049 21.6521 10.081 21.6875 10.1207 21.7123C10.1604 21.737 10.2063 21.7501 10.2531 21.75H21.75C21.9594 21.75 22.075 21.5094 21.9469 21.3469L17.6812 15.9094C17.6576 15.8794 17.6274 15.8553 17.593 15.8387C17.5587 15.822 17.521 15.8134 17.4828 15.8134C17.4446 15.8134 17.407 15.822 17.3726 15.8387C17.3382 15.8553 17.3081 15.8794 17.2844 15.9094ZM11.25 13.8125C11.25 14.144 11.3817 14.462 11.6161 14.6964C11.8505 14.9308 12.1685 15.0625 12.5 15.0625C12.8315 15.0625 13.1495 14.9308 13.3839 14.6964C13.6183 14.462 13.75 14.144 13.75 13.8125C13.75 13.481 13.6183 13.163 13.3839 12.9286C13.1495 12.6942 12.8315 12.5625 12.5 12.5625C12.1685 12.5625 11.8505 12.6942 11.6161 12.9286C11.3817 13.163 11.25 13.481 11.25 13.8125ZM26.7062 9.01875L19.9813 2.29375C19.7938 2.10625 19.5406 2 19.275 2H6C5.44687 2 5 2.44687 5 3V29C5 29.5531 5.44687 30 6 30H26C26.5531 30 27 29.5531 27 29V9.72812C27 9.4625 26.8937 9.20625 26.7062 9.01875ZM24.6938 10.1875H18.8125V4.30625L24.6938 10.1875ZM24.75 27.75H7.25V4.25H16.6875V11C16.6875 11.3481 16.8258 11.6819 17.0719 11.9281C17.3181 12.1742 17.6519 12.3125 18 12.3125H24.75V27.75Z"
          fill="#0078D7"/>
</svg>
