<svg width="16" height="16" viewBox="0 0 16 16" fill="none" xmlns="http://www.w3.org/2000/svg">
    <g clip-path="url(#clip0_2090_200773)">
        <path fill-rule="evenodd" clip-rule="evenodd" d="M12.5 5.99991C12.5021 6.96412 12.1924 7.90317 11.617 8.67691L8 13.4999L4.383 8.67691C3.95951 8.10475 3.67779 7.44028 3.56099 6.73809C3.44419 6.0359 3.49564 5.31602 3.71111 4.63758C3.92659 3.95913 4.29994 3.34148 4.8005 2.83537C5.30106 2.32925 5.91454 1.9491 6.59057 1.72615C7.26659 1.50319 7.98586 1.4438 8.6893 1.55283C9.39274 1.66187 10.0603 1.93623 10.6371 2.35338C11.2139 2.77053 11.6835 3.31857 12.0073 3.95247C12.3312 4.58638 12.5 5.28807 12.5 5.99991ZM14 5.99991C14 7.33991 13.561 8.57591 12.82 9.57391L8.937 14.7499L8 15.9999L7.062 14.7499L3.18 9.57391C2.61469 8.81134 2.23838 7.92551 2.08199 6.98922C1.9256 6.05293 1.99359 5.09289 2.28039 4.18799C2.56718 3.28308 3.06459 2.45914 3.73175 1.78386C4.3989 1.10858 5.21676 0.601227 6.11812 0.303494C7.01948 0.0057613 7.97863 -0.0738568 8.91675 0.0711819C9.85486 0.216221 10.7452 0.581777 11.5145 1.13781C12.2839 1.69385 12.9104 2.4245 13.3424 3.26973C13.7745 4.11496 13.9999 5.05065 14 5.99991ZM8 7.99991C8.53043 7.99991 9.03914 7.7892 9.41421 7.41412C9.78929 7.03905 10 6.53034 10 5.99991C10 5.46948 9.78929 4.96077 9.41421 4.5857C9.03914 4.21062 8.53043 3.99991 8 3.99991C7.46957 3.99991 6.96086 4.21062 6.58579 4.5857C6.21071 4.96077 6 5.46948 6 5.99991C6 6.53034 6.21071 7.03905 6.58579 7.41412C6.96086 7.7892 7.46957 7.99991 8 7.99991Z" fill="#06B2B8"/>
    </g>
    <defs>
        <clipPath id="clip0_2090_200773">
            <rect width="16" height="16" fill="white"/>
        </clipPath>
    </defs>
</svg>
