<svg width="16" height="16" viewBox="0 0 16 16" fill="none" xmlns="http://www.w3.org/2000/svg">
    <g clip-path="url(#clip0_2090_200828)">
        <path fill-rule="evenodd" clip-rule="evenodd"
              d="M9.26874 5.25026C9.26709 5.58616 9.13228 5.90769 8.89388 6.14433C8.65549 6.38096 8.33297 6.51339 7.99707 6.51257C7.66117 6.51174 7.3393 6.37772 7.10208 6.13991C6.86485 5.9021 6.73163 5.57991 6.73163 5.24401C6.73163 4.90811 6.86485 4.58592 7.10208 4.3481C7.3393 4.11029 7.66117 3.97628 7.99707 3.97545C8.33297 3.97462 8.65549 4.10705 8.89388 4.34369C9.13228 4.58033 9.26709 4.90186 9.26874 5.23776V5.25026ZM13.7129 0.000976562H2.28774C2.19819 0.0112634 2.11555 0.0541041 2.05553 0.121351C1.99551 0.188597 1.96229 0.275559 1.96221 0.365695V4.56941L0.289177 6.13748C0.243047 6.17989 0.206338 6.23151 0.181424 6.28901C0.156511 6.34651 0.143949 6.4086 0.144552 6.47126V15.5409C0.144684 15.6622 0.192941 15.7786 0.278733 15.8644C0.364526 15.9502 0.480848 15.9984 0.602177 15.9985H15.3985C15.5198 15.9985 15.6362 15.9502 15.722 15.8644C15.8078 15.7786 15.8561 15.6623 15.8562 15.5409V6.47141C15.8568 6.40869 15.8442 6.34654 15.8193 6.28899C15.7943 6.23144 15.7575 6.17978 15.7113 6.13735L14.0384 4.57191V0.365695C14.0383 0.275566 14.0051 0.18862 13.9451 0.121379C13.8851 0.0541381 13.8024 0.0112897 13.7129 0.000976562ZM8.0004 8.28879C8.04184 8.28879 8.08158 8.27233 8.11088 8.24302C8.14018 8.21372 8.15665 8.17398 8.15665 8.13254C8.15665 8.0911 8.14018 8.05136 8.11088 8.02205C8.08158 7.99275 8.04184 7.97629 8.0004 7.97629C7.40435 7.976 6.82476 7.7807 6.35008 7.4202C5.87541 7.05971 5.53171 6.5538 5.37145 5.9797C5.21118 5.4056 5.24315 4.79483 5.46248 4.2406C5.6818 3.68637 6.07643 3.21911 6.58615 2.91014C7.09587 2.60117 7.69268 2.46745 8.2855 2.52939C8.87833 2.59133 9.43461 2.84552 9.86945 3.25318C10.3043 3.66084 10.5938 4.19958 10.6938 4.78718C10.7939 5.37478 10.6989 5.97896 10.4234 6.50754C10.3772 6.59608 10.3025 6.66655 10.2115 6.70767C10.1205 6.74879 10.0183 6.75819 9.92125 6.73436C9.82424 6.71053 9.73802 6.65485 9.67639 6.57623C9.61476 6.49761 9.58128 6.40059 9.5813 6.3007V5.23463C9.57942 4.85894 9.44393 4.49616 9.19907 4.21121C8.95421 3.92626 8.61596 3.73773 8.24482 3.67933C7.87368 3.62093 7.49388 3.69649 7.17335 3.89248C6.85281 4.08846 6.61247 4.3921 6.4953 4.74907C6.37814 5.10603 6.3918 5.49304 6.53384 5.84085C6.67588 6.18867 6.93704 6.4746 7.2706 6.6475C7.60415 6.8204 7.98834 6.86899 8.35443 6.78457C8.72053 6.70015 9.04464 6.48823 9.2688 6.18673V6.3007C9.26883 6.47051 9.32579 6.63542 9.43059 6.76905C9.53539 6.90267 9.68196 6.9973 9.84688 7.0378C10.0118 7.0783 10.1855 7.06233 10.3403 6.99245C10.4951 6.92257 10.622 6.80281 10.7006 6.65232C11.0082 6.06296 11.1144 5.38916 11.0031 4.73377C10.8918 4.07839 10.5691 3.47742 10.0843 3.02262C9.59941 2.56782 8.97906 2.28417 8.31791 2.21496C7.65675 2.14576 6.99111 2.2948 6.4226 2.63934C5.85408 2.98389 5.41393 3.505 5.16933 4.12313C4.92473 4.74127 4.88912 5.42246 5.06794 6.06273C5.24676 6.70299 5.63017 7.26716 6.15966 7.6691C6.68915 8.07104 7.33563 8.28868 8.0004 8.28879ZM1.96221 7.41379L0.542177 6.3287L1.96221 4.99785V7.41379ZM15.4585 6.3287L14.0384 7.41379V4.99991L15.4585 6.3287ZM12.8887 8.29232V1.14826L3.11024 1.1462V8.29116L7.91221 11.9612C7.93729 11.9811 7.96836 11.9919 8.00038 11.9919C8.0324 11.9919 8.06347 11.9811 8.08855 11.9612L12.8887 8.29232Z"
              fill="#01B2B8"/>
    </g>
    <defs>
        <clipPath id="clip0_2090_200828">
            <rect width="16" height="16" fill="white"/>
        </clipPath>
    </defs>
</svg>
