<svg width="16" height="16" viewBox="0 0 16 16" fill="none" xmlns="http://www.w3.org/2000/svg">
    <path d="M4.65625 7.3125C4.65625 7.65771 4.37647 7.9375 4.03125 7.9375C3.68604 7.9375 3.40625 7.65771 3.40625 7.3125V6.6875C3.40625 6.34229 3.68604 6.0625 4.03125 6.0625C4.37647 6.0625 4.65625 6.34229 4.65625 6.6875V7.3125ZM6.53125 6.0625C6.18604 6.0625 5.90625 6.34229 5.90625 6.6875V7.3125C5.90625 7.65771 6.18604 7.9375 6.53125 7.9375C6.87647 7.9375 7.15625 7.65771 7.15625 7.3125V6.6875C7.15625 6.34229 6.87647 6.0625 6.53125 6.0625ZM4.65625 9.5C4.65625 9.15479 4.37647 8.875 4.03125 8.875C3.68604 8.875 3.40625 9.15479 3.40625 9.5V10.125C3.40625 10.4702 3.68604 10.75 4.03125 10.75C4.37647 10.75 4.65625 10.4702 4.65625 10.125V9.5ZM7.15625 10.125V9.5C7.15625 9.15479 6.87647 8.875 6.53125 8.875C6.18604 8.875 5.90625 9.15479 5.90625 9.5V10.125C5.90625 10.4702 6.18604 10.75 6.53125 10.75C6.87647 10.75 7.15625 10.4702 7.15625 10.125ZM4.03125 11.6875C3.68604 11.6875 3.40625 11.9673 3.40625 12.3125V12.9375C3.40625 13.2827 3.68604 13.5625 4.03125 13.5625C4.37647 13.5625 4.65625 13.2827 4.65625 12.9375V12.3125C4.65625 11.9673 4.37647 11.6875 4.03125 11.6875ZM4.65625 3.875C4.65625 3.52979 4.37647 3.25 4.03125 3.25C3.68604 3.25 3.40625 3.52979 3.40625 3.875V4.5C3.40625 4.84521 3.68604 5.125 4.03125 5.125C4.37647 5.125 4.65625 4.84521 4.65625 4.5V3.875ZM7.15625 3.875C7.15625 3.52979 6.87647 3.25 6.53125 3.25C6.18604 3.25 5.90625 3.52979 5.90625 3.875V4.5C5.90625 4.84521 6.18604 5.125 6.53125 5.125C6.87647 5.125 7.15625 4.84521 7.15625 4.5V3.875ZM8.40625 3.875V4.5C8.40625 4.84521 8.68604 5.125 9.03125 5.125C9.37647 5.125 9.65625 4.84521 9.65625 4.5V3.875C9.65625 3.52979 9.37647 3.25 9.03125 3.25C8.68604 3.25 8.40625 3.52979 8.40625 3.875ZM14.7753 15.535C14.5348 15.8306 14.1799 16 13.8016 16H7.69837C7.31799 16 6.96204 15.8307 6.7218 15.5355C6.4801 15.2385 6.38623 14.8527 6.46423 14.4769C6.66614 13.5043 7.20093 12.6193 7.96997 11.9849C8.26123 11.7446 8.5813 11.5447 8.92066 11.3884C8.5426 10.9589 8.3125 10.396 8.3125 9.78015C8.3125 8.43604 9.40588 7.34265 10.75 7.34265C12.0941 7.34265 13.1875 8.43604 13.1875 9.78015C13.1875 10.396 12.9574 10.9589 12.5793 11.3884C12.9187 11.5447 13.2388 11.7445 13.53 11.9849C14.2837 12.6066 14.8123 13.469 15.0232 14.4186C15.0281 14.4351 15.0322 14.4517 15.0358 14.4686C15.1141 14.8466 15.0192 15.2352 14.7753 15.535ZM9.5625 9.78015C9.5625 10.4349 10.0952 10.9677 10.75 10.9677C11.4048 10.9677 11.9375 10.4349 11.9375 9.78015C11.9375 9.12537 11.4048 8.59265 10.75 8.59265C10.0952 8.59265 9.5625 9.12537 9.5625 9.78015ZM13.8121 14.7323C13.812 14.7319 13.8119 14.7314 13.8119 14.7311C13.5117 13.2856 12.224 12.2365 10.75 12.2365C9.276 12.2365 7.98816 13.2856 7.68811 14.7311C7.6853 14.7451 7.69495 14.7496 7.69495 14.7498C7.69519 14.7498 7.69629 14.75 7.69837 14.75H13.8016C13.802 14.7496 13.8104 14.7433 13.8121 14.7323ZM4.6875 14.75H2.1875V2.8125H2.8125C3.15772 2.8125 3.4375 2.53271 3.4375 2.1875V1.25H9.65625V2.1875C9.65625 2.53271 9.93604 2.8125 10.2813 2.8125H10.9063V5.5625C10.9063 5.90771 11.186 6.1875 11.5313 6.1875C11.8765 6.1875 12.1563 5.90771 12.1563 5.5625V2.1875C12.1563 1.84229 11.8765 1.5625 11.5313 1.5625H10.9063V0.625C10.9063 0.279785 10.6265 0 10.2813 0H2.8125C2.46729 0 2.1875 0.279785 2.1875 0.625V1.5625H1.5625C1.21729 1.5625 0.9375 1.84229 0.9375 2.1875V15.375C0.9375 15.7202 1.21729 16 1.5625 16H4.6875C5.03272 16 5.3125 15.7202 5.3125 15.375C5.3125 15.0298 5.03272 14.75 4.6875 14.75Z"
          fill="#01B2B8"/>
</svg>
