<svg width="15" height="15" viewBox="0 0 15 15" fill="none" xmlns="http://www.w3.org/2000/svg">
    <path d="M12.5149 0.752184L1.50512 7.10134C0.594698 7.62801 0.682036 8.97513 1.65598 9.37476L4.68103 10.6266V12.8603C4.68103 14.0883 6.24781 14.5938 6.97297 13.6172L8.13217 12.0531L11.0937 13.2758C11.2499 13.3393 11.4139 13.3711 11.578 13.3711C11.795 13.3711 12.0094 13.3155 12.2026 13.207C12.5414 13.0165 12.7743 12.6777 12.8352 12.2939L14.4072 2.04636C14.5687 0.985083 13.4306 0.225513 12.5149 0.752184V0.752184ZM5.95139 12.8603V11.1506L6.92004 11.5503L5.95139 12.8603ZM11.578 12.1007L7.50758 10.4202L11.2181 5.06612C11.5013 4.6559 10.9667 4.17951 10.5909 4.50504L4.99332 9.3827L2.1403 8.20232L13.1501 1.85052L11.578 12.1007Z"
          fill="#06B2B8"/>
</svg>
