<svg width="15" height="16" viewBox="0 0 15 16" fill="none" xmlns="http://www.w3.org/2000/svg">
    <path fill-rule="evenodd" clip-rule="evenodd"
          d="M10.8544 0.397411C8.51302 -0.12596 6.08501 -0.12596 3.74367 0.397411L3.49139 0.453225C2.8328 0.60047 2.22792 0.927408 1.74394 1.39772C1.25997 1.86803 0.915845 2.4633 0.749806 3.11741C0.156315 5.45603 0.156315 7.90586 0.749806 10.2445C0.90815 10.8683 1.22862 11.4392 1.67872 11.8992C2.12883 12.3592 2.69256 12.6921 3.31278 12.864L3.65883 14.9299C3.66988 14.9955 3.69831 15.0569 3.74116 15.1078C3.78402 15.1587 3.83973 15.1971 3.90249 15.2192C3.96526 15.2412 4.03279 15.246 4.09804 15.2331C4.1633 15.2202 4.2239 15.19 4.27353 15.1457L6.3059 13.3276C7.83155 13.4207 9.36271 13.2987 10.8544 12.9652L11.1074 12.9094C11.766 12.7622 12.3709 12.4352 12.8548 11.9649C13.3388 11.4946 13.6829 10.8993 13.849 10.2452C14.4424 7.90659 14.4424 5.45679 13.849 3.11815C13.6829 2.46395 13.3386 1.86862 12.8545 1.3983C12.3704 0.927975 11.7654 0.601092 11.1066 0.453969L10.8544 0.397411ZM4.37176 3.05713C4.23345 3.037 4.09242 3.06484 3.97213 3.13602H3.96171C3.68264 3.29974 3.43111 3.50588 3.21678 3.74848C3.03818 3.95462 2.94143 4.16299 2.91613 4.36392C2.90125 4.48299 2.91167 4.60355 2.94664 4.71741L2.96004 4.72485C3.16097 5.31499 3.42292 5.88281 3.74292 6.41713C4.15554 7.16763 4.6633 7.86174 5.25362 8.48225L5.27148 8.50755L5.29976 8.52839L5.31688 8.54848L5.33771 8.56634C5.96039 9.15844 6.65613 9.66861 7.40804 10.0845C8.26757 10.5526 8.78925 10.7736 9.10255 10.8659V10.8703C9.19408 10.8986 9.27743 10.9113 9.36153 10.9113C9.62835 10.8916 9.8809 10.7831 10.0789 10.6032C10.3208 10.3889 10.5254 10.1366 10.6847 9.85602V9.85081C10.8343 9.56802 10.7837 9.3016 10.5679 9.12076C10.1344 8.74199 9.66562 8.40558 9.16804 8.11611C8.83464 7.93527 8.49604 8.04467 8.35911 8.22774L8.06664 8.59685C7.91632 8.77992 7.64395 8.75462 7.64395 8.75462L7.6365 8.75908C5.60413 8.24039 5.06162 6.18271 5.06162 6.18271C5.06162 6.18271 5.03632 5.9029 5.2246 5.76002L5.59074 5.46532C5.76636 5.32243 5.88841 4.98457 5.70013 4.65118C5.41258 4.15314 5.07683 3.68454 4.69771 3.25211C4.61503 3.15034 4.49906 3.08102 4.37027 3.05639L4.37176 3.05713ZM7.80543 2.16262C7.70675 2.16262 7.61211 2.20182 7.54232 2.2716C7.47254 2.34138 7.43334 2.43603 7.43334 2.53471C7.43334 2.6334 7.47254 2.72804 7.54232 2.79782C7.61211 2.8676 7.70675 2.90681 7.80543 2.90681C8.74683 2.90681 9.52822 3.21415 10.1466 3.80355C10.4644 4.12578 10.7122 4.50755 10.8745 4.92578C11.0374 5.34476 11.1119 5.79202 11.0925 6.24002C11.0905 6.28888 11.098 6.33767 11.1148 6.3836C11.1316 6.42953 11.1573 6.4717 11.1904 6.5077C11.2573 6.58041 11.3503 6.62359 11.449 6.62774C11.5477 6.63188 11.6439 6.59665 11.7167 6.5298C11.7894 6.46295 11.8325 6.36996 11.8367 6.27127C11.8598 5.72019 11.7683 5.17031 11.568 4.65639C11.3669 4.14002 11.062 3.67043 10.672 3.27667L10.6646 3.26922C9.89734 2.5362 8.92618 2.16262 7.80543 2.16262ZM7.78013 3.38606C7.68145 3.38606 7.5868 3.42526 7.51702 3.49505C7.44724 3.56483 7.40804 3.65947 7.40804 3.75815C7.40804 3.85684 7.44724 3.95148 7.51702 4.02126C7.5868 4.09105 7.68145 4.13025 7.78013 4.13025H7.79278C8.47148 4.17862 8.96562 4.40485 9.31167 4.7762C9.66664 5.15871 9.85046 5.63425 9.83632 6.22215C9.83405 6.32084 9.87107 6.41639 9.93925 6.48777C10.0074 6.55916 10.1012 6.60054 10.1999 6.60281C10.2985 6.60508 10.3941 6.56805 10.4655 6.49987C10.5369 6.4317 10.5782 6.33796 10.5805 6.23927C10.5984 5.46755 10.3498 4.8015 9.85715 4.27015V4.26867C9.35334 3.72839 8.66199 3.44262 7.82999 3.38681L7.81734 3.38532L7.78013 3.38606ZM7.76599 4.63257C7.7162 4.62818 7.66602 4.63386 7.61847 4.64929C7.57092 4.66471 7.52697 4.68956 7.48923 4.72235C7.4515 4.75514 7.42076 4.79519 7.39884 4.84013C7.37693 4.88506 7.3643 4.93394 7.3617 4.98387C7.3591 5.03379 7.36658 5.08372 7.38371 5.13069C7.40083 5.17765 7.42724 5.22069 7.46136 5.25722C7.49549 5.29375 7.53662 5.32303 7.58231 5.34331C7.628 5.3636 7.67731 5.37447 7.72729 5.37527C8.03836 5.39164 8.23706 5.48541 8.36208 5.61118C8.48785 5.73769 8.58162 5.94085 8.59874 6.25862C8.59966 6.30855 8.61064 6.35779 8.631 6.40339C8.65136 6.449 8.68069 6.49004 8.71725 6.52407C8.75381 6.55809 8.79684 6.58441 8.84378 6.60146C8.89073 6.6185 8.94063 6.62592 8.9905 6.62327C9.04037 6.62062 9.0892 6.60796 9.13408 6.58604C9.17895 6.56412 9.21896 6.53339 9.2517 6.49568C9.28445 6.45797 9.30927 6.41406 9.32469 6.36656C9.3401 6.31905 9.3458 6.26893 9.34143 6.21918C9.31762 5.77267 9.17771 5.37825 8.8912 5.08802C8.6032 4.79778 8.21102 4.65639 7.76599 4.63257Z"
          fill="#7360F2"/>
</svg>
