<svg width="18" height="18" viewBox="0 0 18 18" fill="none" xmlns="http://www.w3.org/2000/svg">
    <g clip-path="url(#clip0_2090_201807)">
        <path d="M0.807148 8.89766C0.806746 10.3358 1.18544 11.74 1.90553 12.9776L0.738281 17.2064L5.09972 16.0717C6.30604 16.7233 7.65763 17.0648 9.03112 17.0648H9.03473C13.5689 17.0648 17.2598 13.4039 17.2617 8.90409C17.2626 6.72362 16.4076 4.67325 14.8541 3.13066C13.301 1.58821 11.2353 0.7383 9.0344 0.737305C4.49972 0.737305 0.809086 4.39807 0.807214 8.89766"
              fill="url(#paint0_linear_2090_201807)"/>
        <path d="M0.512947 8.89495C0.512479 10.3848 0.904749 11.8392 1.65051 13.1212L0.441406 17.5016L4.95923 16.3262C6.20404 16.9996 7.60557 17.3547 9.03171 17.3552H9.03538C13.7322 17.3552 17.5557 13.5626 17.5577 8.90172C17.5585 6.6429 16.6727 4.51882 15.0638 2.92097C13.4547 1.32332 11.3151 0.442823 9.03538 0.441895C4.33777 0.441895 0.514819 4.23401 0.512947 8.89495ZM3.20348 12.9004L3.03479 12.6347C2.32567 11.5159 1.95138 10.2231 1.95192 8.89548C1.95339 5.02143 5.13087 1.86958 9.03806 1.86958C10.9302 1.87037 12.7084 2.60226 14.0459 3.93017C15.3833 5.2582 16.1193 7.02357 16.1188 8.90118C16.117 12.7752 12.9395 15.9275 9.03538 15.9275H9.03258C7.76136 15.9268 6.51461 15.5881 5.42732 14.9479L5.16858 14.7957L2.4876 15.4931L3.20348 12.9004Z"
              fill="url(#paint1_linear_2090_201807)"/>
        <path d="M6.9035 5.36121C6.74397 5.0094 6.57609 5.0023 6.42438 4.99613C6.30015 4.99082 6.15814 4.99122 6.01626 4.99122C5.87425 4.99122 5.64352 5.04423 5.44849 5.25552C5.25325 5.46702 4.70312 5.97812 4.70312 7.01764C4.70312 8.05722 5.4662 9.06184 5.57258 9.20295C5.67909 9.34379 7.04571 11.5453 9.21012 12.3922C11.0089 13.096 11.375 12.9561 11.7654 12.9208C12.1559 12.8856 13.0253 12.4098 13.2027 11.9164C13.3802 11.4231 13.3802 11.0002 13.327 10.9119C13.2738 10.8238 13.1318 10.7709 12.9188 10.6653C12.7058 10.5596 11.6589 10.0485 11.4637 9.97796C11.2685 9.9075 11.1265 9.87234 10.9845 10.0839C10.8425 10.2951 10.4347 10.7709 10.3104 10.9119C10.1863 11.0531 10.062 11.0707 9.84911 10.965C9.63602 10.859 8.95024 10.6361 8.13661 9.91639C7.50358 9.35633 7.0762 8.66472 6.95198 8.45315C6.82775 8.24192 6.93867 8.12741 7.04545 8.02213C7.14113 7.92746 7.25847 7.7754 7.36504 7.65207C7.47122 7.52867 7.50665 7.44064 7.57766 7.29973C7.64873 7.15868 7.61316 7.03529 7.56001 6.9296C7.50665 6.82392 7.09285 5.77896 6.9035 5.36121Z"
              fill="white"/>
    </g>
    <defs>
        <linearGradient id="paint0_linear_2090_201807" x1="826.91" y1="1647.65" x2="826.91" y2="0.737305"
                        gradientUnits="userSpaceOnUse">
            <stop stop-color="#1FAF38"/>
            <stop offset="1" stop-color="#60D669"/>
        </linearGradient>
        <linearGradient id="paint1_linear_2090_201807" x1="856.255" y1="1706.41" x2="856.255" y2="0.441895"
                        gradientUnits="userSpaceOnUse">
            <stop stop-color="#F9F9F9"/>
            <stop offset="1" stop-color="white"/>
        </linearGradient>
        <clipPath id="clip0_2090_201807">
            <rect width="17.1163" height="17.1163" fill="white" transform="translate(0.441406 0.441895)"/>
        </clipPath>
    </defs>
</svg>
