<svg width="16" height="16" viewBox="0 0 16 16" fill="none" xmlns="http://www.w3.org/2000/svg">
<g id="Archive">
<path id="Vector" d="M14 3.5H2C1.72386 3.5 1.5 3.72386 1.5 4V5.5C1.5 5.77614 1.72386 6 2 6H14C14.2761 6 14.5 5.77614 14.5 5.5V4C14.5 3.72386 14.2761 3.5 14 3.5Z" stroke="#4E6E8A" stroke-width="1.5" stroke-linecap="round" stroke-linejoin="round"/>
<path id="Vector_2" d="M13.5 6V12C13.5 12.1326 13.4473 12.2598 13.3536 12.3536C13.2598 12.4473 13.1326 12.5 13 12.5H3C2.86739 12.5 2.74021 12.4473 2.64645 12.3536C2.55268 12.2598 2.5 12.1326 2.5 12V6" stroke="#4E6E8A" stroke-width="1.5" stroke-linecap="round" stroke-linejoin="round"/>
<path id="Vector_3" d="M6.5 8.5H9.5" stroke="#4E6E8A" stroke-width="1.5" stroke-linecap="round" stroke-linejoin="round"/>
</g>
</svg>
