<svg width="16" height="16" viewBox="0 0 16 16" fill="none" xmlns="http://www.w3.org/2000/svg">
<g id="Calendar">
<path id="Vector" d="M13 2.5H3C2.72386 2.5 2.5 2.72386 2.5 3V13C2.5 13.2761 2.72386 13.5 3 13.5H13C13.2761 13.5 13.5 13.2761 13.5 13V3C13.5 2.72386 13.2761 2.5 13 2.5Z" stroke="#0A3C68" stroke-width="1.5" stroke-linecap="round" stroke-linejoin="round"/>
<path id="Vector_2" d="M11 1.5V3.5" stroke="#0A3C68" stroke-width="1.5" stroke-linecap="round" stroke-linejoin="round"/>
<path id="Vector_3" d="M5 1.5V3.5" stroke="#0A3C68" stroke-width="1.5" stroke-linecap="round" stroke-linejoin="round"/>
<path id="Vector_4" d="M2.5 5.5H13.5" stroke="#0A3C68" stroke-width="1.5" stroke-linecap="round" stroke-linejoin="round"/>
<path id="Vector_5" d="M5.75 8H7.5L6.5 9.25C6.66443 9.25 6.82631 9.29054 6.97133 9.36804C7.11635 9.44554 7.24001 9.5576 7.33139 9.6943C7.42276 9.831 7.47901 9.98813 7.49516 10.1518C7.51132 10.3154 7.48687 10.4805 7.424 10.6324C7.36112 10.7843 7.26175 10.9184 7.13469 11.0228C7.00763 11.1271 6.85679 11.1985 6.69554 11.2307C6.53429 11.2628 6.3676 11.2547 6.21023 11.2071C6.05286 11.1594 5.90966 11.0737 5.79332 10.9575" stroke="#0A3C68" stroke-width="1.5" stroke-linecap="round" stroke-linejoin="round"/>
<path id="Vector_6" d="M9 8.75L10 8V11.25" stroke="#0A3C68" stroke-width="1.5" stroke-linecap="round" stroke-linejoin="round"/>
</g>
</svg>
