<svg xmlns="http://www.w3.org/2000/svg" width="14" height="14" viewBox="0 0 14 14" fill="none">
<path d="M7.80901 6.99902L11.9106 2.10996C11.9793 2.02871 11.9215 1.90527 11.8153 1.90527H10.5684C10.4949 1.90527 10.4246 1.93809 10.3762 1.99434L6.99339 6.02715L3.61057 1.99434C3.5637 1.93809 3.49339 1.90527 3.41839 1.90527H2.17151C2.06526 1.90527 2.00745 2.02871 2.0762 2.10996L6.17776 6.99902L2.0762 11.8881C2.0608 11.9062 2.05092 11.9283 2.04773 11.9519C2.04454 11.9755 2.04818 11.9994 2.05822 12.021C2.06826 12.0425 2.08426 12.0608 2.10435 12.0735C2.12443 12.0862 2.14774 12.0929 2.17151 12.0928H3.41839C3.49182 12.0928 3.56214 12.06 3.61057 12.0037L6.99339 7.9709L10.3762 12.0037C10.4231 12.06 10.4934 12.0928 10.5684 12.0928H11.8153C11.9215 12.0928 11.9793 11.9693 11.9106 11.8881L7.80901 6.99902Z" fill="black" fill-opacity="0.45"/>
</svg>