<svg xmlns="http://www.w3.org/2000/svg" width="16" height="16" viewBox="0 0 16 16" fill="none">
<path d="M10 4C9.73472 3.99993 9.48033 3.89449 9.29279 3.70686C9.10525 3.51923 8.99993 3.26478 9 2.9995C9.00007 2.73422 9.10551 2.47983 9.29314 2.29229C9.48077 2.10475 9.73522 1.99943 10.0005 1.9995C10.1319 1.99953 10.2619 2.02544 10.3833 2.07574C10.5046 2.12603 10.6149 2.19974 10.7077 2.29264C10.8006 2.38555 10.8742 2.49583 10.9245 2.6172C10.9747 2.73857 11.0005 2.86865 11.0005 3C11.0005 3.13135 10.9746 3.26142 10.9243 3.38276C10.874 3.5041 10.8003 3.61435 10.7074 3.70721C10.6145 3.80007 10.5042 3.87372 10.3828 3.92396C10.2614 3.97419 10.1314 4.00003 10 4ZM11.929 2.5C11.7055 1.64 10.929 1 10 1C9.071 1 8.2945 1.64 8.071 2.5H2V3.5H8.071C8.2945 4.36 9.071 5 10 5C10.929 5 11.7055 4.36 11.929 3.5H14V2.5H11.929ZM10 13C9.86865 13 9.73858 12.9741 9.61724 12.9238C9.4959 12.8735 9.38565 12.7998 9.29279 12.7069C9.19993 12.614 9.12628 12.5037 9.07604 12.3823C9.02581 12.2609 8.99997 12.1309 9 11.9995C9.00003 11.8681 9.02594 11.7381 9.07623 11.6167C9.12653 11.4954 9.20024 11.3851 9.29314 11.2923C9.38605 11.1994 9.49633 11.1258 9.6177 11.0755C9.73907 11.0253 9.86914 10.9995 10.0005 10.9995C10.2658 10.9996 10.5202 11.105 10.7077 11.2926C10.8952 11.4803 11.0006 11.7347 11.0005 12C11.0004 12.2653 10.895 12.5197 10.7074 12.7072C10.5197 12.8947 10.2653 13.0001 10 13ZM10 10C9.071 10 8.2945 10.64 8.071 11.5H2V12.5H8.071C8.2945 13.36 9.071 14 10 14C10.929 14 11.7055 13.36 11.929 12.5H14V11.5H11.929C11.7055 10.64 10.929 10 10 10ZM6 8.5C5.86865 8.49997 5.73858 8.47406 5.61724 8.42377C5.4959 8.37347 5.38565 8.29976 5.29279 8.20686C5.19993 8.11395 5.12628 8.00367 5.07604 7.8823C5.02581 7.76093 4.99997 7.63085 5 7.4995C5.00003 7.36814 5.02594 7.23808 5.07624 7.11674C5.12653 6.9954 5.20024 6.88515 5.29314 6.79229C5.38605 6.69943 5.49633 6.62578 5.6177 6.57554C5.73907 6.52531 5.86915 6.49947 6.0005 6.4995C6.26578 6.49957 6.52017 6.60501 6.70771 6.79264C6.89525 6.98027 7.00057 7.23472 7.0005 7.5C7.00043 7.76528 6.89499 8.01967 6.70736 8.20721C6.51973 8.39475 6.26528 8.50007 6 8.5ZM6 5.5C5.071 5.5 4.2945 6.14 4.071 7H2V8H4.071C4.2945 8.86 5.071 9.5 6 9.5C6.929 9.5 7.7055 8.86 7.929 8H14V7H7.929C7.7055 6.14 6.929 5.5 6 5.5Z" fill="#0A3C68"/>
</svg>