<svg xmlns="http://www.w3.org/2000/svg" width="16" height="16" viewBox="0 0 16 16" fill="none">
<path d="M13.9133 3.11875L10.886 0.0915312C10.8274 0.0329259 10.7479 1.12405e-06 10.6651 0L3.34891 0C2.99025 0.000397014 2.64639 0.143048 2.39277 0.396657C2.13916 0.650266 1.9965 0.99412 1.99609 1.35278V14.6472C1.9965 15.0059 2.13916 15.3497 2.39277 15.6033C2.64638 15.8569 2.99024 15.9996 3.34891 16H12.652C13.0107 15.9996 13.3545 15.8569 13.6082 15.6033C13.8618 15.3497 14.0044 15.0058 14.0048 14.6472V3.33978C14.0048 3.29874 13.9968 3.25809 13.9811 3.22016C13.9654 3.18224 13.9423 3.14778 13.9133 3.11875ZM10.9776 1.06694L12.938 3.02728H11.7054C11.5124 3.02706 11.3274 2.95031 11.191 2.81386C11.0545 2.67742 10.9778 2.49243 10.9776 2.29947V1.06694ZM12.6521 15.375H3.34891C3.15595 15.3748 2.97095 15.298 2.83451 15.1616C2.69807 15.0251 2.62132 14.8401 2.62109 14.6472V1.35278C2.62132 1.15982 2.69807 0.974836 2.83451 0.838398C2.97096 0.70196 3.15595 0.625215 3.34891 0.625H10.3526V2.29947C10.353 2.65813 10.4956 3.00199 10.7492 3.2556C11.0029 3.50922 11.3467 3.65188 11.7054 3.65228H13.3798V14.6472C13.3796 14.8401 13.3029 15.0251 13.1664 15.1616C13.03 15.298 12.845 15.3748 12.6521 15.375ZM12.0557 5.82788C12.0557 5.91076 12.0228 5.99024 11.9642 6.04885C11.9056 6.10745 11.8261 6.14038 11.7432 6.14038H6.37447C6.29159 6.14038 6.2121 6.10745 6.1535 6.04885C6.09489 5.99024 6.06197 5.91076 6.06197 5.82788C6.06197 5.745 6.09489 5.66551 6.1535 5.6069C6.2121 5.5483 6.29159 5.51538 6.37447 5.51538H11.7432C11.8261 5.51538 11.9056 5.5483 11.9642 5.6069C12.0228 5.66551 12.0557 5.745 12.0557 5.82788ZM12.0557 10.6853C12.0557 10.7682 12.0228 10.8476 11.9642 10.9063C11.9056 10.9649 11.8261 10.9978 11.7432 10.9978H6.37447C6.29159 10.9978 6.2121 10.9649 6.1535 10.9063C6.09489 10.8476 6.06197 10.7682 6.06197 10.6853C6.06197 10.6024 6.09489 10.5229 6.1535 10.4643C6.2121 10.4057 6.29159 10.3728 6.37447 10.3728H11.7432C11.8261 10.3728 11.9056 10.4057 11.9642 10.4643C12.0228 10.5229 12.0557 10.6024 12.0557 10.6853ZM12.0557 8.25656C12.0557 8.33944 12.0228 8.41893 11.9642 8.47753C11.9056 8.53614 11.8261 8.56906 11.7432 8.56906H6.37447C6.29159 8.56906 6.2121 8.53614 6.1535 8.47753C6.09489 8.41893 6.06197 8.33944 6.06197 8.25656C6.06197 8.17368 6.09489 8.0942 6.1535 8.03559C6.2121 7.97699 6.29159 7.94406 6.37447 7.94406H11.7432C11.8261 7.94406 11.9056 7.97699 11.9642 8.03559C12.0228 8.0942 12.0557 8.17368 12.0557 8.25656ZM12.0557 13.114C12.0557 13.1968 12.0228 13.2763 11.9642 13.3349C11.9056 13.3935 11.8261 13.4265 11.7432 13.4265H6.37447C6.29159 13.4265 6.2121 13.3935 6.1535 13.3349C6.09489 13.2763 6.06197 13.1968 6.06197 13.114C6.06197 13.0311 6.09489 12.9516 6.1535 12.893C6.2121 12.8344 6.29159 12.8015 6.37447 12.8015H11.7432C11.8261 12.8015 11.9056 12.8344 11.9642 12.893C12.0228 12.9516 12.0557 13.0311 12.0557 13.114ZM5.17934 5.05459H4.25772C4.17484 5.05459 4.09535 5.08752 4.03675 5.14612C3.97814 5.20473 3.94522 5.28421 3.94522 5.36709V6.28866C3.94522 6.37154 3.97814 6.45102 4.03675 6.50963C4.09535 6.56823 4.17484 6.60116 4.25772 6.60116H5.17934C5.26222 6.60116 5.34171 6.56823 5.40032 6.50963C5.45892 6.45102 5.49184 6.37154 5.49184 6.28866V5.36709C5.49184 5.28421 5.45892 5.20473 5.40032 5.14612C5.34171 5.08752 5.26222 5.05459 5.17934 5.05459ZM4.86684 5.97616H4.57022V5.67959H4.86684V5.97616ZM5.17934 12.3407H4.25772C4.17484 12.3407 4.09535 12.3736 4.03675 12.4322C3.97814 12.4908 3.94522 12.5703 3.94522 12.6532V13.5748C3.94522 13.6577 3.97814 13.7371 4.03675 13.7958C4.09535 13.8544 4.17484 13.8873 4.25772 13.8873H5.17934C5.26222 13.8873 5.34171 13.8544 5.40032 13.7958C5.45892 13.7371 5.49184 13.6577 5.49184 13.5748V12.6531C5.49184 12.5702 5.45892 12.4908 5.40032 12.4322C5.34171 12.3735 5.26222 12.3407 5.17934 12.3407ZM4.86684 13.2623H4.57022V12.9656H4.86684V13.2623ZM5.17934 9.91197H4.25772C4.17484 9.91197 4.09535 9.94489 4.03675 10.0035C3.97814 10.0621 3.94522 10.1416 3.94522 10.2245V11.1461C3.94522 11.2289 3.97814 11.3084 4.03675 11.367C4.09535 11.4256 4.17484 11.4586 4.25772 11.4586H5.17934C5.26222 11.4586 5.34171 11.4256 5.40032 11.367C5.45892 11.3084 5.49184 11.2289 5.49184 11.1461V10.2245C5.49184 10.1416 5.45892 10.0621 5.40032 10.0035C5.34171 9.94489 5.26222 9.91197 5.17934 9.91197ZM4.86684 10.8336H4.57022V10.537H4.86684V10.8336ZM5.17934 7.48328H4.25772C4.17484 7.48328 4.09535 7.51621 4.03675 7.57481C3.97814 7.63342 3.94522 7.7129 3.94522 7.79578V8.71737C3.94522 8.80025 3.97814 8.87974 4.03675 8.93835C4.09535 8.99695 4.17484 9.02987 4.25772 9.02987H5.17934C5.26222 9.02987 5.34171 8.99695 5.40032 8.93835C5.45892 8.87974 5.49184 8.80025 5.49184 8.71737V7.79578C5.49184 7.7129 5.45892 7.63342 5.40032 7.57481C5.34171 7.51621 5.26222 7.48328 5.17934 7.48328ZM4.86684 8.40487H4.57022V8.10828H4.86684V8.40487Z" fill="#0A3C68"/>
</svg>