<svg xmlns="http://www.w3.org/2000/svg" width="16" height="16" viewBox="0 0 16 16" fill="none">
<path d="M7.36198 9.92678C7.26091 10.1726 7.39481 10.349 7.51361 10.5054C7.58864 10.6042 7.65764 10.6951 7.65764 10.7906C7.65764 10.9176 7.57033 11.2819 7.48567 11.6054C7.53519 11.6992 7.57302 11.7655 7.60125 11.8112C7.62246 11.8456 7.63457 11.8623 7.6387 11.8677M7.36198 9.92678L6.93307 11.6224C6.93985 11.636 6.94651 11.6494 6.95306 11.6625C6.93306 11.7365 6.91434 11.8044 6.89838 11.8618C6.88322 11.9162 6.87061 11.9609 6.86182 11.9919L6.85167 12.0275L6.84905 12.0366L6.84841 12.0388L6.84827 12.0393L6.84824 12.0394L6.84823 12.0394L6.82101 12.1339L6.83133 12.2295L6.83112 12.2274L6.83074 12.2234L6.83008 12.2151C6.82971 12.2096 6.82937 12.2029 6.82929 12.195V12.1949C6.82918 12.1855 6.82878 12.1486 6.84004 12.1C6.84013 12.0996 6.84022 12.0992 6.84033 12.0987C6.84198 12.0915 6.84674 12.0706 6.85758 12.0421L7.22426 12.1479C7.23493 12.163 7.24452 12.1756 7.25315 12.1861M7.36198 9.92678C7.52606 9.52649 8.05075 9.37197 8.44717 9.61857L7.36198 9.92678ZM7.6387 11.8677C7.63167 11.8595 7.60955 11.8359 7.57305 11.811C7.55681 11.8 7.51165 11.7718 7.4468 11.7519C7.3826 11.9909 7.32866 12.178 7.32866 12.178M7.6387 11.8677C7.63902 11.8681 7.63929 11.8684 7.63952 11.8687C7.64195 11.8718 7.64166 11.8711 7.6387 11.8677ZM7.32866 12.178C7.32866 12.178 7.34108 12.2931 7.25315 12.1861M7.32866 12.178L7.8091 12.3165L7.80912 12.3164L7.80918 12.3162L7.80939 12.3154L7.81016 12.3128L7.81304 12.3027L7.82378 12.265C7.82437 12.263 7.82498 12.2608 7.82561 12.2586M7.32866 12.178C7.82578 12.1243 7.82581 12.1246 7.82584 12.1249L7.82589 12.1254L7.82601 12.1265L7.82625 12.1289L7.82675 12.1343L7.82778 12.1473C7.82843 12.1569 7.82907 12.1695 7.82923 12.1841C7.82938 12.1984 7.82931 12.225 7.82561 12.2586M7.25315 12.1861C6.83154 12.2315 6.83152 12.2313 6.83149 12.231L6.83154 12.2316L7.25315 12.1861ZM7.82561 12.2586C7.83468 12.2266 7.84708 12.1826 7.86175 12.1299C7.89307 12.0174 7.93498 11.8642 7.97703 11.7027C7.9912 11.6482 8.00549 11.5924 8.01949 11.5365M7.82561 12.2586C7.82339 12.2787 7.81986 12.3014 7.81429 12.3255L7.81419 12.3259C7.80596 12.3615 7.75924 12.5634 7.5474 12.6737C7.29247 12.8063 7.07189 12.6796 7.01036 12.6377C6.93587 12.587 6.8837 12.5253 6.85394 12.4875C6.81909 12.4432 6.78476 12.3923 6.75041 12.3366C6.68156 12.2251 6.59541 12.0668 6.48516 11.8446L6.48488 11.844C6.2625 11.3943 6.03501 10.8475 5.86536 10.4199C5.82515 10.3186 5.78795 10.2233 5.75456 10.1369M8.01949 11.5365L6.20574 9.96939C6.04901 10.0219 5.89865 10.0777 5.75456 10.1369M8.01949 11.5365L8.33897 12.4111L8.75626 13.5536L9.26313 12.448L10.3788 10.0144C10.4095 10.03 10.4437 10.0488 10.4813 10.0713C10.7753 10.2476 11.1693 10.5839 11.5647 11.0166C11.9568 11.4458 12.3261 11.9434 12.5827 12.4236C12.8444 12.9133 12.9523 13.317 12.9251 13.5916C12.9185 13.6033 12.8754 13.6745 12.6689 13.779C12.4174 13.9063 12.0353 14.0231 11.538 14.12C10.5507 14.3124 9.23025 14.4041 7.89594 14.4124C6.56433 14.4206 5.24583 14.3458 4.26893 14.2147C3.77675 14.1487 3.39255 14.0711 3.14173 13.9905C3.09806 13.9764 3.06186 13.9634 3.03226 13.9517M8.01949 11.5365L3.03226 13.9517M5.75456 10.1369C4.89013 10.4916 4.25099 10.9647 3.8118 11.5434C3.33365 12.1734 3.06417 12.9658 3.03226 13.9517M5.75456 10.1369L3.03226 13.9517M6.85759 12.0421C6.88028 11.9825 6.9296 11.8896 7.03279 11.8184C7.11931 11.9836 7.18072 12.0862 7.22426 12.1479L6.85759 12.0421ZM2.9198 13.8959C2.92 13.8959 2.92231 13.8975 2.92614 13.9007C2.92151 13.8976 2.9196 13.8959 2.9198 13.8959ZM8.38053 11.0676L8.13233 11.0292C8.13233 11.0292 8.13233 11.0292 8.13233 11.0292C8.19673 11.0392 8.27799 11.0517 8.38053 11.0676ZM8.1614 10.2311C8.12552 10.3043 8.0942 10.3727 8.06689 10.436C8.04481 10.3933 8.02252 10.3581 8.00491 10.3316C7.97474 10.2861 7.94248 10.2435 7.91897 10.2125L7.91282 10.2044C7.88967 10.1739 7.87309 10.152 7.85754 10.1298C7.84749 10.1155 7.84027 10.1042 7.83513 10.0957C7.85637 10.0607 7.89521 10.028 7.95557 10.0106C8.02727 9.99003 8.11022 9.99808 8.18242 10.0427C8.20223 10.0552 8.21874 10.0663 8.23244 10.076C8.21772 10.1131 8.19545 10.1622 8.16214 10.2296L8.1614 10.2311ZM7.82443 10.1169L7.82448 10.1166L7.82443 10.1169ZM10.4791 9.79573C10.4791 9.79574 10.4791 9.79575 10.479 9.79576L10.4791 9.79573Z" stroke="#0A3C68"/>
<path d="M4.88979 4.3118C4.93413 3.50095 5.30355 2.77507 5.87244 2.26253C5.99774 2.46211 6.2242 2.58483 6.4593 2.58483H6.8349C6.8981 2.58483 6.9608 2.57589 7.02115 2.5589V3.13667C7.02115 3.53411 7.35346 3.81303 7.7077 3.81303H8.08416C8.43399 3.81303 8.77152 3.53903 8.77152 3.13667V2.5687C8.81968 2.57931 8.86903 2.58483 8.91869 2.58483H9.29424C9.53115 2.58483 9.76418 2.45838 9.889 2.25068C10.4649 2.76387 10.8397 3.49456 10.8846 4.31195L10.8872 4.3588H4.88722L4.88979 4.3118Z" stroke="#0A3C68"/>
<path d="M4.78779 4.4281C4.78779 4.4281 4.52295 7.6328 5.91046 8.55121C7.29795 9.47041 8.50225 9.62413 9.78813 8.74319C11.0732 7.86298 11.1756 7.15447 11.1348 5.87165C11.094 4.5896 11.114 4.39844 11.114 4.39844L4.78779 4.4281ZM5.12926 4.68715L10.7742 4.69417C10.7742 4.69417 10.7559 4.86271 10.7925 5.99102C10.8275 7.11933 10.7376 7.74203 9.58991 8.51688C8.44308 9.29248 7.36792 9.15671 6.13032 8.34832C4.89275 7.53996 5.12926 4.68715 5.12926 4.68715Z" fill="#0A3C68"/>
<path d="M4.77443 4.92967C4.19309 4.90001 3.99988 5.56404 4.23558 5.94796C4.46294 6.31939 4.98846 6.51992 4.98846 6.51992L4.94431 6.09699C4.94431 6.09699 4.54206 6.32642 4.4238 5.79659C4.3047 5.26597 4.97348 5.13488 4.77443 4.92967Z" fill="#0A3C68"/>
<path d="M11.159 4.92967C11.7153 4.90001 11.9002 5.56404 11.6753 5.94796C11.458 6.31939 10.9541 6.51992 10.9541 6.51992L10.9974 6.09699C10.9974 6.09699 11.3822 6.32642 11.4954 5.79659C11.6095 5.26597 10.9699 5.13488 11.159 4.92967Z" fill="#0A3C68"/>
</svg>