<svg xmlns="http://www.w3.org/2000/svg" width="16" height="16" viewBox="0 0 16 16" fill="none">
<g clip-path="url(#clip0_2381_123273)">
<path d="M8 0.015625C4.691 0.015625 2 2.70138 2 6.00393C2 10.1548 7.416 15.6082 7.646 15.8387C7.744 15.9355 7.872 15.9844 8 15.9844C8.128 15.9844 8.256 15.9355 8.354 15.8387C8.584 15.6082 14 10.1548 14 6.00393C14 2.70138 11.309 0.015625 8 0.015625ZM8 14.7638C6.806 13.4883 3 9.17474 3 6.00393C3 3.2523 5.243 1.01368 8 1.01368C10.757 1.01368 13 3.2523 13 6.00393C13 9.17174 9.194 13.4883 8 14.7638Z" fill="#0A3C68"/>
<path d="M8 2.01172C6.897 2.01172 6 2.90697 6 4.00782C6 5.10867 6.897 6.00392 8 6.00392C9.103 6.00392 10 5.10867 10 4.00782C10 2.90697 9.103 2.01172 8 2.01172ZM8 5.00587C7.449 5.00587 7 4.55775 7 4.00782C7 3.45789 7.449 3.00977 8 3.00977C8.551 3.00977 9 3.45789 9 4.00782C9 4.55775 8.551 5.00587 8 5.00587Z" fill="#0A3C68"/>
<path d="M9 6.00391H8H7C5.897 6.00391 5 6.89916 5 8.00001V9.49708C5 9.77255 5.224 9.99611 5.5 9.99611H10.5C10.776 9.99611 11 9.77255 11 9.49708V8.00001C11 6.89916 10.103 6.00391 9 6.00391ZM10 8.99806H6V8.00001C6 7.45008 6.449 7.00196 7 7.00196H9C9.551 7.00196 10 7.45008 10 8.00001V8.99806Z" fill="#0A3C68"/>
</g>
<defs>
<clipPath id="clip0_2381_123273">
<rect width="16" height="15.9688" fill="white" transform="translate(0 0.015625)"/>
</clipPath>
</defs>
</svg>