<svg xmlns="http://www.w3.org/2000/svg" width="15" height="48" viewBox="0 0 15 48" fill="none">
<path d="M7.89472 18.6475H6.6924C6.58553 18.6475 6.53209 18.7009 6.53209 18.8078V25.0999H0.561065C0.454193 25.0999 0.400757 25.1533 0.400757 25.2602V26.4625C0.400757 26.5694 0.454193 26.6228 0.561065 26.6228H6.53209V32.9149C6.53209 33.0218 6.58553 33.0752 6.6924 33.0752H7.89472C8.00159 33.0752 8.05503 33.0218 8.05503 32.9149V26.6228H14.027C14.1339 26.6228 14.1873 26.5694 14.1873 26.4625V25.2602C14.1873 25.1533 14.1339 25.0999 14.027 25.0999H8.05503V18.8078C8.05503 18.7009 8.00159 18.6475 7.89472 18.6475Z" fill="white"/>
</svg>