<svg xmlns="http://www.w3.org/2000/svg" width="16" height="16" viewBox="0 0 16 16" fill="none">
<g clip-path="url(#clip0_1570_110574)">
<path d="M8.18752 14.75H1.89662C1.62978 14.75 1.46889 14.6011 1.39662 14.5123C1.27199 14.359 1.22377 14.1595 1.2643 13.9648C1.91335 10.8472 4.66469 8.57056 7.84096 8.4967C7.89369 8.49866 7.94667 8.5 8.00002 8.5C10.3434 8.5 12.25 6.59351 12.25 4.25C12.25 1.90649 10.3434 0 8.00002 0C5.65651 0 3.75002 1.90649 3.75002 4.25C3.75002 5.64087 4.42165 6.87793 5.45766 7.65369C4.50856 7.96606 3.61781 8.45203 2.83839 9.09314C1.40932 10.2687 0.415665 11.9083 0.0405425 13.7101C-0.0770112 14.2747 0.063858 14.8545 0.426895 15.301C0.788101 15.7452 1.32387 16 1.89662 16H8.18752C8.53261 16 8.81252 15.7202 8.81252 15.375C8.81252 15.0298 8.53261 14.75 8.18752 14.75ZM5.00002 4.25C5.00002 2.59583 6.34572 1.25 8.00002 1.25C9.65419 1.25 11 2.59583 11 4.25C11 5.88049 9.69252 7.2113 8.07094 7.24915C8.04762 7.24646 8.02406 7.24475 8.00002 7.24475C7.95119 7.24475 7.90248 7.24548 7.85378 7.24634C6.26723 7.16992 5.00002 5.85522 5.00002 4.25ZM16 12.8744C16 13.2196 15.7201 13.4994 15.375 13.4994H10.6875C10.3423 13.4994 10.0625 13.2196 10.0625 12.8744C10.0625 12.5293 10.3423 12.2494 10.6875 12.2494H15.375C15.7201 12.2494 16 12.5293 16 12.8744ZM10.6875 9.75H15.375C15.7201 9.75 16 10.0298 16 10.375C16 10.7202 15.7201 11 15.375 11H10.6875C10.3423 11 10.0625 10.7202 10.0625 10.375C10.0625 10.0298 10.3423 9.75 10.6875 9.75ZM16 15.375C16 15.7202 15.7201 16 15.375 16H10.6875C10.3423 16 10.0625 15.7202 10.0625 15.375C10.0625 15.0298 10.3423 14.75 10.6875 14.75H15.375C15.7201 14.75 16 15.0298 16 15.375Z" fill="#4E6E8A"/>
</g>
<defs>
<clipPath id="clip0_1570_110574">
<rect width="16" height="16" fill="white"/>
</clipPath>
</defs>
</svg>