<svg width="17" height="16" viewBox="0 0 17 16" fill="none" xmlns="http://www.w3.org/2000/svg">
<g id="person_13952911 2" clip-path="url(#clip0_1570_110563)">
<g id="Group">
<path id="Vector" fill-rule="evenodd" clip-rule="evenodd" d="M7.00002 0C4.79085 0 3 1.79086 3 4C3 6.20914 4.79085 8 7.00002 8C9.20914 8 11 6.20914 11 4C11 1.79086 9.20914 0 7.00002 0ZM4.33333 4C4.33333 2.52724 5.52722 1.33333 7.00002 1.33333C8.47274 1.33333 9.66667 2.52724 9.66667 4C9.66667 5.47276 8.47274 6.66667 7.00002 6.66667C5.52722 6.66667 4.33333 5.47276 4.33333 4Z" fill="#4E6E8A"/>
<path id="Vector_2" d="M7.27974 7C5.32787 7 3.45596 7.78263 2.0758 9.17577C0.986829 10.275 0.274392 11.6831 0.0222235 13.1962C-0.150467 14.2323 0.711812 15 1.6186 15H9.26113C9.57374 15 9.82724 14.7442 9.82724 14.4286C9.82724 14.113 9.57374 13.8571 9.26113 13.8571H1.6186C1.27477 13.8571 1.10397 13.5945 1.13876 13.3858C1.35213 12.1055 1.95499 10.9139 2.8764 9.98389C4.04423 8.80509 5.62815 8.14286 7.27974 8.14286C8.29614 8.14286 9.28695 8.39366 10.1709 8.86143C10.4479 9.00794 10.79 8.90011 10.9352 8.62057C11.0803 8.34109 10.9735 7.99571 10.6966 7.8492C9.65192 7.29646 8.48097 7 7.27974 7Z" fill="#4E6E8A"/>
<path id="Vector_3" d="M13.7384 10.9318C13.7384 10.6372 13.5005 10.3984 13.2072 10.3984C12.9138 10.3984 12.6759 10.6372 12.6759 10.9318V11.9355L11.9071 12.3214C11.6447 12.4532 11.5383 12.7735 11.6695 13.0369C11.8007 13.3004 12.1198 13.4072 12.3823 13.2755L13.7384 12.5947V10.9318Z" fill="#4E6E8A"/>
<path id="Vector_4" fill-rule="evenodd" clip-rule="evenodd" d="M9.48828 12.2685C9.48828 10.2066 11.1532 8.53516 13.207 8.53516C15.2608 8.53516 16.9258 10.2066 16.9258 12.2685C16.9258 14.3304 15.2608 16.0018 13.207 16.0018C11.1532 16.0018 9.48828 14.3304 9.48828 12.2685ZM13.207 9.60182C11.74 9.60182 10.5508 10.7957 10.5508 12.2685C10.5508 13.7412 11.74 14.9352 13.207 14.9352C14.674 14.9352 15.8633 13.7412 15.8633 12.2685C15.8633 10.7957 14.674 9.60182 13.207 9.60182Z" fill="#4E6E8A"/>
</g>
</g>
<defs>
<clipPath id="clip0_1570_110563">
<rect width="17" height="16" fill="white"/>
</clipPath>
</defs>
</svg>
