<svg xmlns="http://www.w3.org/2000/svg" width="16" height="16" viewBox="0 0 16 16" fill="none">
<path d="M12.5 4.5C13.0523 4.5 13.5 4.05228 13.5 3.5C13.5 2.94772 13.0523 2.5 12.5 2.5C11.9477 2.5 11.5 2.94772 11.5 3.5C11.5 4.05228 11.9477 4.5 12.5 4.5Z" stroke="#4E6E8A" stroke-width="1.5" stroke-linecap="round" stroke-linejoin="round"/>
<path d="M12.5 2.5V1.75" stroke="#4E6E8A" stroke-width="1.5" stroke-linecap="round" stroke-linejoin="round"/>
<path d="M11.6339 3L10.9844 2.625" stroke="#4E6E8A" stroke-width="1.5" stroke-linecap="round" stroke-linejoin="round"/>
<path d="M11.6339 4L10.9844 4.375" stroke="#4E6E8A" stroke-width="1.5" stroke-linecap="round" stroke-linejoin="round"/>
<path d="M12.5 4.5V5.25" stroke="#4E6E8A" stroke-width="1.5" stroke-linecap="round" stroke-linejoin="round"/>
<path d="M13.3652 4L14.0148 4.375" stroke="#4E6E8A" stroke-width="1.5" stroke-linecap="round" stroke-linejoin="round"/>
<path d="M13.3652 3L14.0148 2.625" stroke="#4E6E8A" stroke-width="1.5" stroke-linecap="round" stroke-linejoin="round"/>
<path d="M1.9375 13.4994C2.55222 12.4354 3.43613 11.5519 4.50043 10.9376C5.56472 10.3234 6.77192 9.99999 8.00076 10C9.22959 10 10.4368 10.3234 11.5011 10.9377C12.5654 11.552 13.4492 12.4355 14.0639 13.4995" stroke="#4E6E8A" stroke-width="1.5" stroke-linecap="round" stroke-linejoin="round"/>
<path d="M11.6647 7.60684C11.3654 8.28785 10.8822 8.87188 10.2692 9.29326C9.65616 9.71464 8.93777 9.95666 8.19476 9.99212C7.45174 10.0276 6.71357 9.85505 6.06324 9.49395C5.41291 9.13285 4.8762 8.59749 4.51347 7.94807C4.15073 7.29865 3.97635 6.56091 4.00994 5.81781C4.04352 5.07471 4.28374 4.35571 4.70357 3.74166C5.12341 3.1276 5.70622 2.64284 6.38648 2.34188C7.06673 2.04092 7.81745 1.93569 8.55424 2.03802" stroke="#4E6E8A" stroke-width="1.5" stroke-linecap="round" stroke-linejoin="round"/>
</svg>